{"glyphs":{"0":{"ha":772,"x_min":66,"x_max":707,"o":"m 385 -18 q 267 5 317 -18 q 181 70 216 29 q 123 165 146 111 q 89 280 101 219 q 71 407 76 342 q 66 533 66 471 q 71 649 66 589 q 89 767 76 709 q 124 875 102 824 q 182 965 147 926 q 268 1026 218 1004 q 385 1048 317 1048 q 503 1026 452 1048 q 588 965 553 1004 q 647 875 624 926 q 683 767 670 824 q 702 649 696 709 q 707 533 707 589 q 701 407 706 471 q 683 280 696 342 q 647 165 670 219 q 589 70 625 111 q 503 5 553 29 q 385 -18 453 -18 m 385 155 q 421 160 404 155 q 452 180 437 165 q 477 222 466 195 q 495 290 488 248 q 507 392 503 332 q 511 533 511 452 q 508 675 511 610 q 492 787 505 740 q 454 861 479 834 q 385 887 429 887 q 315 861 340 887 q 278 787 290 834 q 264 675 267 740 q 262 533 262 610 q 266 392 262 452 q 277 290 269 332 q 295 222 284 248 q 319 180 306 195 q 350 160 333 165 q 385 155 366 155 z "},"1":{"ha":556,"x_min":56,"x_max":529,"o":"m 65 170 l 199 170 l 199 768 q 151 762 174 765 q 109 759 131 760 q 74 757 87 757 l 56 757 l 56 903 l 293 1042 l 394 1042 l 394 170 l 529 170 l 521 0 l 65 0 l 65 170 z "},"2":{"ha":701,"x_min":43,"x_max":646,"o":"m 64 779 q 100 877 75 830 q 163 959 125 924 q 253 1015 202 994 q 365 1036 304 1036 q 474 1020 422 1036 q 564 972 526 1004 q 624 892 602 940 q 646 781 646 844 q 630 670 646 726 q 586 561 614 615 q 521 454 558 507 q 442 353 484 402 q 356 257 400 303 q 269 171 311 212 l 629 171 q 626 125 629 145 q 620 85 623 104 q 615 45 617 66 q 612 0 612 25 l 43 0 l 43 151 q 127 253 82 201 q 216 357 172 304 q 301 463 260 409 q 374 570 342 516 q 424 677 405 623 q 443 784 443 730 q 437 821 443 803 q 421 851 431 838 q 394 872 410 864 q 358 880 378 880 q 322 873 338 880 q 294 855 307 866 q 272 830 281 844 q 256 802 262 817 q 231 726 239 768 l 64 779 z "},"3":{"ha":705,"x_min":24,"x_max":640,"o":"m 62 842 q 119 932 89 895 q 185 994 150 970 q 262 1029 221 1018 q 354 1040 304 1040 q 454 1024 406 1040 q 542 975 503 1007 q 603 895 580 943 q 626 783 626 846 q 622 731 626 762 q 602 667 618 701 q 553 602 585 634 q 466 543 522 569 q 540 506 507 528 q 595 453 572 484 q 629 381 617 422 q 640 290 640 341 q 616 158 640 216 q 552 62 593 101 q 457 3 511 23 q 342 -17 403 -17 q 237 -3 288 -17 q 144 39 186 11 q 70 111 101 68 q 24 212 39 154 l 172 277 q 194 233 182 254 q 223 195 205 212 q 267 170 241 179 q 329 160 292 160 q 376 171 355 160 q 413 199 397 181 q 436 239 428 216 q 444 288 444 262 q 427 374 444 341 q 379 425 409 407 q 309 448 349 442 q 224 454 269 454 l 224 610 q 303 615 266 610 q 369 637 340 621 q 413 682 397 654 q 429 757 429 711 q 423 800 429 779 q 405 836 417 821 q 374 861 393 852 q 332 871 356 871 q 274 854 298 871 q 233 817 250 837 q 201 762 214 793 l 62 842 z "},"4":{"ha":737,"x_min":31,"x_max":711,"o":"m 385 260 l 31 260 l 31 416 l 376 1042 l 581 1042 l 581 416 l 711 416 l 694 260 l 581 260 l 581 8 l 385 -8 l 385 260 m 385 416 l 385 782 l 192 416 l 385 416 z "},"5":{"ha":714,"x_min":53,"x_max":667,"o":"m 210 294 q 234 228 217 257 q 250 204 241 216 q 272 183 260 192 q 300 168 285 174 q 336 162 316 162 q 395 174 370 162 q 435 208 419 186 q 457 262 450 231 q 465 334 465 294 q 457 396 465 365 q 434 452 450 427 q 396 492 419 477 q 341 508 373 508 q 272 487 304 508 q 214 435 239 466 l 68 496 l 113 1042 l 625 1042 l 609 879 l 283 879 l 260 636 q 300 650 279 644 q 343 660 319 655 q 395 664 368 664 l 397 664 q 505 638 455 664 q 590 567 554 612 q 646 463 626 522 q 667 338 667 404 q 643 195 667 260 q 578 83 620 130 q 479 9 536 36 q 354 -17 422 -17 q 253 0 302 -17 q 164 48 205 16 q 95 128 124 81 q 53 236 66 175 l 210 294 z "},"6":{"ha":705,"x_min":63,"x_max":655,"o":"m 63 525 q 71 640 63 580 q 96 759 79 701 q 139 870 113 817 q 202 962 165 922 q 287 1025 239 1002 q 394 1048 334 1048 q 476 1032 437 1048 q 546 983 515 1015 q 598 904 577 951 q 627 796 619 857 l 475 761 q 466 802 471 780 q 451 843 461 824 q 425 873 441 861 q 381 886 408 886 q 334 870 353 886 q 301 830 314 855 q 280 773 288 805 q 269 707 273 741 q 263 640 264 673 q 262 581 262 607 q 337 619 294 604 q 422 633 380 633 q 519 610 475 633 q 592 546 562 586 q 639 455 623 507 q 655 347 655 403 q 634 211 655 277 q 575 94 613 145 q 483 13 536 43 q 365 -18 429 -18 q 254 4 301 -18 q 174 65 207 26 q 119 157 140 104 q 85 271 97 210 q 68 396 73 331 q 63 525 63 461 m 262 420 l 262 363 q 264 308 262 336 q 271 252 266 279 q 287 204 276 225 q 314 169 297 182 q 356 156 331 156 q 407 173 387 156 q 439 214 427 189 q 455 269 450 239 q 459 323 459 298 q 454 376 459 350 q 436 422 448 401 q 404 456 424 444 q 353 469 383 469 q 318 465 335 469 q 290 454 302 460 q 263 440 275 448 q 262 429 262 435 q 262 420 262 425 z "},"7":{"ha":626,"x_min":26,"x_max":604,"o":"m 109 0 q 144 208 118 102 q 207 422 170 313 q 291 644 245 531 q 386 873 337 756 l 26 873 l 42 1042 l 604 1042 l 604 897 q 497 662 545 781 q 417 429 450 544 q 367 206 385 315 q 349 0 349 98 l 109 0 z "},"8":{"ha":751,"x_min":55,"x_max":700,"o":"m 55 252 q 68 342 55 300 q 105 417 81 383 q 160 479 128 452 q 229 528 191 507 q 122 625 159 568 q 85 761 85 682 q 109 879 85 826 q 173 970 132 932 q 268 1028 213 1008 q 385 1048 322 1048 q 488 1032 438 1048 q 577 983 538 1015 q 639 905 616 951 q 663 799 663 859 q 651 727 663 762 q 618 663 639 693 q 571 608 598 633 q 513 564 544 583 q 585 515 551 541 q 644 456 618 488 q 685 385 670 424 q 700 298 700 346 q 672 162 700 221 q 599 63 645 103 q 493 2 553 23 q 367 -18 433 -18 q 255 -2 311 -18 q 155 48 199 15 q 83 133 111 82 q 55 252 55 184 m 250 270 q 260 208 250 234 q 286 166 269 182 q 325 142 302 150 q 374 134 348 134 q 422 141 399 134 q 464 161 446 147 q 493 198 482 175 q 505 253 505 220 q 498 299 505 277 q 480 340 491 321 q 455 374 469 359 q 427 402 441 390 q 349 452 392 431 q 299 403 321 431 q 266 346 281 379 q 250 270 250 312 m 275 790 q 286 737 275 760 q 312 695 296 713 q 347 662 328 677 q 384 637 366 648 q 439 679 415 656 q 478 725 460 699 q 496 783 496 752 q 487 822 496 804 q 464 853 479 840 q 427 873 448 866 q 382 880 406 880 q 341 873 360 880 q 307 855 321 867 q 284 826 292 843 q 275 790 275 810 z "},"9":{"ha":705,"x_min":50,"x_max":642,"o":"m 642 505 q 634 390 642 450 q 609 271 626 330 q 566 160 592 213 q 503 68 539 108 q 418 5 466 28 q 311 -18 370 -18 q 228 -2 267 -18 q 158 47 189 15 q 106 126 127 79 q 77 234 85 173 l 229 269 q 238 228 233 250 q 253 188 243 206 q 280 157 263 169 q 323 144 296 144 q 371 160 351 144 q 404 200 391 175 q 424 257 416 225 q 436 323 432 290 q 441 390 440 357 q 443 450 442 423 q 368 411 411 426 q 283 397 325 397 q 185 420 229 397 q 112 484 142 444 q 66 575 82 524 q 50 683 50 627 q 71 819 50 753 q 130 936 92 885 q 222 1018 168 987 q 340 1048 275 1048 q 451 1026 404 1048 q 531 965 498 1004 q 586 873 564 926 q 620 760 608 820 q 637 634 632 699 q 642 505 642 569 m 443 618 l 443 667 q 441 722 443 694 q 434 778 439 751 q 418 827 429 805 q 391 861 408 848 q 349 874 374 874 q 297 858 317 874 q 266 816 277 841 q 250 761 254 791 q 245 707 245 732 q 251 654 245 680 q 269 608 256 629 q 301 574 281 587 q 351 561 321 561 q 386 565 370 561 q 414 575 402 570 q 441 590 429 582 q 442 601 441 595 q 443 610 442 606 q 443 618 443 614 z "},"\u0002":{"ha":0,"x_min":0,"x_max":0,"o":""},"\t":{"ha":0,"x_min":0,"x_max":0,"o":""},"\n":{"ha":0,"x_min":0,"x_max":0,"o":""}," ":{"ha":339,"x_min":0,"x_max":0,"o":""},"!":{"ha":368,"x_min":86,"x_max":281,"o":"m 86 1042 l 281 1042 l 250 304 l 119 304 l 86 1042 m 86 -8 l 86 203 l 281 203 l 281 0 l 86 -8 z "},"\"":{"ha":567,"x_min":56,"x_max":511,"o":"m 251 1042 l 218 651 l 88 643 l 56 1042 l 251 1042 m 511 1042 l 479 651 l 349 643 l 316 1042 l 511 1042 z "},"#":{"ha":870,"x_min":43,"x_max":827,"o":"m 76 812 l 216 812 l 247 1042 l 450 1042 l 420 812 l 546 812 l 576 1042 l 780 1042 l 749 812 l 827 812 l 827 651 l 728 651 l 699 422 l 794 422 l 794 260 l 677 260 l 644 0 l 440 0 l 474 260 l 348 260 l 314 0 l 111 0 l 144 260 l 43 260 l 43 422 l 165 422 l 195 651 l 76 651 l 76 812 m 369 422 l 495 422 l 525 651 l 399 651 l 369 422 z "},"$":{"ha":705,"x_min":33,"x_max":670,"o":"m 311 20 q 214 48 258 26 q 135 104 170 70 q 75 183 100 138 q 33 278 49 227 l 184 359 q 209 318 196 340 q 237 275 222 296 q 270 235 252 254 q 311 205 288 216 l 311 446 l 211 505 q 149 548 177 525 q 100 599 121 571 q 69 659 80 627 q 58 730 58 691 q 77 837 58 787 q 129 924 96 886 q 209 986 163 962 q 311 1018 256 1010 l 311 1107 l 408 1107 l 408 1018 q 550 954 491 1006 q 640 810 610 901 l 481 732 q 465 766 473 749 q 449 798 457 783 q 431 824 441 812 q 408 844 421 836 l 408 610 l 488 564 q 578 499 543 531 q 633 436 613 467 q 661 377 653 406 q 670 326 669 349 q 650 212 670 264 q 596 121 631 160 q 513 56 561 81 q 408 22 465 31 l 408 -65 l 311 -65 l 311 20 m 256 751 q 273 702 256 723 q 311 667 290 681 l 311 851 q 269 811 282 839 q 256 751 256 784 m 463 294 q 447 348 463 325 q 408 387 431 370 l 408 201 q 447 239 432 214 q 463 294 463 264 z "},"%":{"ha":1421,"x_min":32,"x_max":1390,"o":"m 296 628 q 339 640 321 628 q 370 673 358 652 q 389 719 382 693 q 395 772 395 745 q 389 825 395 799 q 370 872 382 851 q 340 905 358 892 q 297 918 321 918 q 254 905 273 918 q 224 873 236 893 q 205 826 212 852 q 199 773 199 800 q 205 721 199 747 q 224 675 212 695 q 254 642 236 654 q 296 628 272 629 m 298 496 q 181 517 231 496 q 98 573 132 537 q 48 660 65 610 q 32 770 32 710 q 48 879 32 829 q 98 965 65 928 q 181 1021 132 1001 q 298 1042 231 1042 q 412 1021 363 1042 q 495 965 462 1001 q 546 879 529 928 q 564 770 564 829 q 546 660 564 710 q 495 573 529 610 q 412 517 462 537 q 298 496 363 496 m 1122 131 q 1165 143 1147 131 q 1196 176 1184 155 q 1215 222 1208 196 q 1221 275 1221 248 q 1215 328 1221 302 q 1196 375 1208 354 q 1166 408 1184 395 q 1123 420 1147 420 q 1080 408 1099 420 q 1050 376 1062 396 q 1031 329 1038 355 q 1025 276 1025 303 q 1031 224 1025 250 q 1050 178 1038 198 q 1080 144 1062 157 q 1122 131 1098 132 m 1124 -1 q 1007 20 1057 -1 q 924 76 958 40 q 874 163 891 113 q 858 273 858 213 q 874 382 858 332 q 924 468 891 431 q 1007 524 958 504 q 1124 545 1057 545 q 1238 524 1189 545 q 1321 468 1288 504 q 1372 382 1355 431 q 1390 273 1390 332 q 1372 163 1390 213 q 1321 76 1355 113 q 1238 20 1288 40 q 1124 -1 1189 -1 m 743 1042 l 930 1042 l 664 0 l 477 0 l 743 1042 z "},"&":{"ha":865,"x_min":26,"x_max":832,"o":"m 26 254 q 44 351 26 307 q 91 433 62 395 q 155 500 119 470 q 225 553 191 530 q 178 632 199 590 q 145 715 160 669 q 131 811 131 761 q 151 910 131 866 q 205 985 171 954 q 287 1032 240 1016 q 386 1048 333 1048 q 481 1034 437 1048 q 558 991 525 1019 q 610 920 591 962 q 629 823 629 878 q 613 741 629 781 q 570 668 596 702 q 512 605 544 633 q 450 555 480 576 l 576 360 q 602 424 590 391 q 624 488 613 452 q 643 559 635 524 l 797 511 q 765 407 785 456 q 726 321 745 358 q 680 239 704 277 q 746 190 711 209 q 832 165 781 172 l 832 -9 q 734 -2 772 -9 q 668 20 696 5 q 619 56 641 35 q 570 104 597 77 q 511 57 543 79 q 444 18 480 35 q 367 -9 408 1 q 277 -19 325 -19 q 180 1 225 -19 q 100 58 134 22 q 46 144 66 94 q 26 254 26 195 m 300 438 q 262 405 279 424 q 235 366 246 387 q 219 322 224 345 q 213 279 213 300 q 220 233 213 255 q 243 195 228 212 q 281 170 258 179 q 336 160 304 160 q 389 168 363 160 q 433 184 414 175 q 474 210 455 195 q 420 280 444 249 q 379 334 397 311 q 348 374 361 357 q 327 403 336 391 l 300 438 m 376 659 q 383 667 376 659 q 399 689 389 675 q 420 720 408 703 q 441 756 431 737 q 457 794 450 775 q 463 832 463 814 q 456 867 463 852 q 437 892 449 882 q 412 908 426 903 q 383 913 397 913 q 356 907 370 913 q 332 890 342 901 q 315 866 321 880 q 308 838 308 852 q 312 802 308 819 q 323 765 315 785 q 345 720 332 745 q 376 659 358 694 z "},"'":{"ha":306,"x_min":56,"x_max":251,"o":"m 251 1042 l 218 651 l 88 643 l 56 1042 l 251 1042 z "},"(":{"ha":463,"x_min":42,"x_max":425,"o":"m 425 -52 q 307 -21 360 -46 q 211 43 254 3 q 137 134 168 82 q 84 247 105 186 q 53 372 63 307 q 42 505 42 438 q 53 641 42 574 q 85 769 64 708 q 139 882 106 830 q 213 973 171 935 q 309 1035 256 1012 q 425 1060 361 1058 l 425 936 q 343 887 378 927 q 284 788 308 847 q 249 655 261 728 q 237 505 237 581 q 249 351 237 427 q 284 216 261 276 q 343 119 308 157 q 425 77 378 81 l 425 -52 z "},")":{"ha":463,"x_min":38,"x_max":421,"o":"m 38 77 q 120 119 85 81 q 179 216 155 157 q 214 351 202 276 q 226 505 226 427 q 214 655 226 581 q 179 788 202 728 q 120 887 155 847 q 38 936 85 927 l 38 1060 q 154 1035 101 1058 q 250 973 208 1012 q 325 882 292 935 q 378 769 357 830 q 410 641 399 708 q 421 505 421 574 q 411 372 421 438 q 379 247 400 307 q 327 134 358 186 q 252 43 295 82 q 156 -21 210 3 q 38 -52 102 -46 l 38 77 z "},"*":{"ha":713,"x_min":34,"x_max":680,"o":"m 446 944 l 411 699 l 625 802 l 680 616 l 442 580 l 620 404 l 466 290 l 357 507 l 248 290 l 94 404 l 271 580 l 34 616 l 88 802 l 302 699 l 268 944 l 446 944 z "},"+":{"ha":580,"x_min":46,"x_max":533,"o":"m 370 176 l 370 14 l 209 14 l 209 176 l 46 176 l 46 338 l 209 338 l 209 500 l 370 500 l 370 338 l 533 338 l 533 176 l 370 176 z "},",":{"ha":331,"x_min":67,"x_max":262,"o":"m 262 195 l 262 0 q 255 -64 262 -37 q 237 -113 248 -92 q 211 -148 226 -134 q 181 -171 196 -162 q 100 -195 145 -193 l 100 -65 q 137 -55 124 -65 q 157 -33 151 -45 q 165 0 164 -18 l 67 0 l 67 195 l 262 195 z "},"-":{"ha":545,"x_min":77,"x_max":468,"o":"m 77 487 l 468 487 l 468 326 l 77 326 l 77 487 z "},".":{"ha":332,"x_min":69,"x_max":264,"o":"m 264 195 l 264 8 l 69 -8 l 69 195 l 264 195 z "},"/":{"ha":426,"x_min":43,"x_max":383,"o":"m 180 1042 l 383 1042 l 247 0 l 43 0 l 180 1042 z "},":":{"ha":350,"x_min":77,"x_max":273,"o":"m 273 195 l 273 0 l 77 -8 l 77 195 l 273 195 m 273 586 l 273 391 l 77 391 l 77 586 l 273 586 z "},";":{"ha":351,"x_min":78,"x_max":273,"o":"m 273 195 l 273 0 q 266 -64 273 -37 q 248 -113 259 -92 q 222 -148 237 -134 q 192 -171 207 -162 q 111 -195 156 -193 l 111 -65 q 148 -55 135 -65 q 168 -33 161 -45 q 176 0 175 -18 l 78 -8 l 78 195 l 273 195 m 273 586 l 273 391 l 78 391 l 78 586 l 273 586 z "},"<":{"ha":662,"x_min":38,"x_max":595,"o":"m 38 298 l 38 477 l 587 722 l 578 545 l 272 412 l 595 293 l 586 60 l 38 298 z "},"=":{"ha":545,"x_min":77,"x_max":468,"o":"m 77 357 l 468 357 l 468 195 l 77 195 l 77 357 m 77 617 l 468 617 l 468 456 l 77 456 l 77 617 z "},">":{"ha":662,"x_min":66,"x_max":624,"o":"m 76 60 l 66 293 l 390 412 l 84 545 l 75 722 l 624 477 l 624 298 l 76 60 z "},"?":{"ha":600,"x_min":34,"x_max":567,"o":"m 295 260 l 132 260 q 132 384 125 334 q 155 468 139 434 q 192 522 170 501 q 238 559 214 543 q 286 589 262 575 q 329 623 310 603 q 359 673 347 644 q 371 749 371 703 q 370 787 371 763 q 361 835 368 811 q 338 876 354 859 q 292 894 321 894 q 256 879 270 894 q 235 844 243 865 q 224 800 227 823 q 219 760 221 777 l 34 768 q 56 882 36 830 q 111 970 76 933 q 193 1028 145 1008 q 297 1048 240 1048 q 418 1022 367 1048 q 502 951 469 995 q 551 853 535 908 q 567 743 567 798 q 555 638 567 681 q 525 566 544 596 q 481 517 505 536 q 431 480 456 497 q 381 447 406 463 q 337 407 357 430 q 307 350 318 383 q 295 269 295 317 l 295 260 m 311 195 l 311 0 l 115 -8 l 115 195 l 311 195 z "},"@":{"ha":1070,"x_min":37,"x_max":1035,"o":"m 1035 526 q 1020 404 1035 458 q 977 313 1005 351 q 907 256 948 276 q 813 236 866 236 q 785 239 804 236 q 746 253 766 241 q 705 286 725 264 q 674 346 686 307 q 595 251 640 282 q 501 220 550 220 q 430 235 465 220 q 368 282 395 251 q 324 362 340 314 q 308 474 308 410 q 325 589 308 541 q 368 666 341 636 q 428 710 395 696 q 496 724 462 724 q 542 719 519 724 q 585 702 565 713 q 621 674 604 690 q 647 638 637 659 l 671 712 l 778 712 l 778 394 q 790 336 778 353 q 821 318 802 318 q 857 330 842 318 q 881 360 871 341 q 896 402 890 378 q 903 448 901 425 q 906 492 905 471 q 906 526 906 512 q 880 668 906 607 q 808 771 854 730 q 697 832 762 812 q 555 853 632 853 q 444 837 494 853 q 352 793 393 821 q 281 727 312 765 q 230 645 251 689 q 199 552 210 600 q 189 455 189 503 q 209 324 189 387 q 269 211 229 260 q 373 132 310 162 q 522 102 435 102 q 657 122 585 102 q 817 186 729 142 l 866 84 q 679 4 766 29 q 511 -22 591 -22 q 300 18 389 -22 q 153 124 211 58 q 66 276 94 191 q 37 452 37 361 q 53 582 37 517 q 97 706 68 647 q 171 816 127 765 q 273 905 215 867 q 401 963 330 942 q 555 985 472 985 q 674 972 615 985 q 786 933 733 959 q 885 869 840 907 q 964 780 930 831 q 1016 665 997 729 q 1035 526 1035 602 m 627 572 q 547 618 582 618 q 513 607 528 618 q 488 578 498 597 q 472 533 477 559 q 467 474 467 507 q 473 418 467 442 q 490 378 479 394 q 515 354 501 362 q 545 347 529 347 q 589 366 567 347 q 627 424 612 385 l 627 572 z "},"A":{"ha":767,"x_min":17,"x_max":751,"o":"m 243 223 l 198 0 l 17 0 l 237 1029 l 526 1042 l 751 8 l 530 0 l 491 223 l 243 223 m 454 390 l 359 888 l 280 390 l 454 390 z "},"B":{"ha":764,"x_min":96,"x_max":722,"o":"m 96 1042 l 330 1042 q 499 1021 430 1042 q 610 963 568 1000 q 672 878 653 926 q 690 773 690 829 q 683 701 690 735 q 660 639 675 667 q 625 589 646 611 q 577 555 604 568 q 631 521 605 541 q 677 471 657 501 q 710 397 698 441 q 722 292 722 354 q 704 186 722 231 q 652 108 685 140 q 575 55 619 75 q 479 22 530 34 q 373 5 429 9 q 263 0 318 0 l 96 0 l 96 1042 m 337 163 q 429 179 393 163 q 488 218 466 195 q 518 269 509 242 q 527 319 527 296 q 512 399 527 370 q 472 445 497 429 q 414 465 447 460 q 345 470 380 470 l 300 470 l 300 163 l 337 163 m 342 618 q 407 622 377 618 q 457 641 436 627 q 490 682 478 655 q 501 753 501 709 q 488 817 501 792 q 451 855 474 842 q 397 874 428 869 q 333 879 367 879 l 293 879 l 293 618 l 342 618 z "},"C":{"ha":725,"x_min":55,"x_max":676,"o":"m 676 355 q 658 214 676 282 q 604 94 640 146 q 511 10 567 41 q 380 -22 456 -22 q 266 2 315 -22 q 180 66 216 25 q 120 162 144 107 q 81 279 96 216 q 61 409 67 342 q 55 543 55 477 q 62 662 55 601 q 86 782 70 724 q 129 891 102 840 q 191 980 155 942 q 276 1041 228 1019 q 385 1063 324 1063 q 508 1030 454 1063 q 598 944 562 998 q 655 824 635 891 q 675 688 675 757 l 478 677 q 477 702 478 683 q 473 745 477 720 q 464 797 470 770 q 446 848 457 825 q 416 886 434 871 q 374 901 399 901 q 331 885 349 901 q 300 842 313 869 q 279 779 288 815 q 267 704 271 743 q 260 623 262 664 q 258 543 258 581 q 260 446 258 494 q 267 354 262 397 q 282 274 273 311 q 306 210 291 237 q 343 168 321 183 q 393 153 364 153 q 445 174 425 153 q 477 228 465 195 q 495 299 490 260 q 503 371 500 337 l 676 355 z "},"D":{"ha":768,"x_min":96,"x_max":718,"o":"m 96 1042 l 309 1042 q 616 912 515 1042 q 718 517 718 782 q 709 387 718 451 q 682 266 701 323 q 634 159 663 208 q 564 75 605 111 q 468 20 522 40 q 345 0 414 0 l 96 0 l 96 1042 m 299 879 l 299 163 l 328 163 q 396 176 367 163 q 446 212 425 189 q 480 266 467 235 q 501 332 493 297 q 512 404 509 367 q 515 478 515 441 l 515 554 q 511 641 515 597 q 496 728 507 686 q 464 805 485 771 q 409 859 443 838 q 323 879 374 879 l 299 879 z "},"E":{"ha":670,"x_min":96,"x_max":636,"o":"m 96 1042 l 625 1042 l 609 879 l 300 879 l 300 631 l 519 631 l 518 456 l 300 456 l 300 163 l 636 163 l 620 0 l 96 0 l 96 1042 z "},"F":{"ha":637,"x_min":96,"x_max":625,"o":"m 96 1042 l 625 1042 l 608 878 l 299 878 l 299 606 l 517 606 l 517 433 l 299 433 l 299 8 l 96 -8 l 96 1042 z "},"G":{"ha":768,"x_min":55,"x_max":699,"o":"m 501 688 q 496 731 498 708 q 489 779 494 755 q 478 825 485 803 q 460 865 471 848 q 431 893 448 882 q 391 903 414 903 q 343 885 363 903 q 308 838 323 867 q 283 768 293 808 q 269 685 274 728 q 261 598 263 642 q 258 514 258 553 q 259 435 258 477 q 263 351 260 393 q 275 272 267 310 q 298 205 283 234 q 336 159 313 176 q 392 142 359 142 q 440 157 419 142 q 475 199 460 172 q 496 264 489 227 q 503 345 503 301 l 400 345 l 416 521 l 699 521 l 699 8 l 621 0 q 618 13 621 3 q 612 37 616 23 q 605 68 609 51 q 596 102 600 85 q 574 193 586 143 q 545 85 569 133 q 518 46 534 65 q 479 12 503 27 q 425 -13 456 -3 q 353 -22 394 -22 q 255 -1 298 -22 q 178 57 211 20 q 122 145 145 94 q 83 257 98 196 q 62 386 68 317 q 55 525 55 454 q 63 648 55 585 q 87 771 71 711 q 130 884 104 831 q 194 977 157 937 q 281 1040 232 1017 q 393 1063 331 1063 q 530 1033 473 1063 q 623 953 587 1003 q 677 837 660 903 q 695 701 695 772 l 501 688 z "},"H":{"ha":794,"x_min":96,"x_max":699,"o":"m 495 433 l 300 433 l 300 8 l 96 -8 l 96 1025 l 300 1042 l 300 619 l 495 619 l 495 1025 l 699 1042 l 699 8 l 495 -8 l 495 433 z "},"I":{"ha":395,"x_min":96,"x_max":300,"o":"m 96 1025 l 300 1042 l 300 8 l 96 -8 l 96 1025 z "},"J":{"ha":448,"x_min":23,"x_max":357,"o":"m 23 139 q 53 132 39 134 q 77 130 66 130 q 121 142 106 130 q 143 176 136 155 q 152 223 151 197 q 153 277 153 250 l 153 1025 l 357 1042 l 357 260 q 347 147 357 198 q 313 59 337 96 q 251 1 290 22 q 153 -19 212 -19 q 23 1 98 -19 l 23 139 z "},"K":{"ha":780,"x_min":96,"x_max":767,"o":"m 400 452 l 300 272 l 300 0 l 96 0 l 96 1025 l 300 1042 l 300 586 l 547 1042 l 764 1042 l 541 612 l 767 29 l 560 -18 l 400 452 z "},"L":{"ha":659,"x_min":96,"x_max":652,"o":"m 299 1042 l 299 163 l 652 163 l 619 0 l 96 0 l 96 1025 l 299 1042 z "},"M":{"ha":1099,"x_min":96,"x_max":1004,"o":"m 264 776 l 264 8 l 96 0 l 96 1032 l 394 1040 l 566 396 l 732 1017 l 1004 1034 l 1004 8 l 793 -8 l 793 773 l 599 0 l 473 0 l 264 776 z "},"N":{"ha":844,"x_min":96,"x_max":749,"o":"m 277 643 l 277 8 l 96 0 l 96 1034 l 308 1042 l 576 422 l 576 1025 l 749 1042 l 749 8 l 582 -8 l 277 643 z "},"O":{"ha":763,"x_min":58,"x_max":705,"o":"m 380 -22 q 264 1 314 -22 q 178 63 214 23 q 119 158 142 103 q 83 276 96 212 q 64 412 69 340 q 58 556 58 483 q 77 760 58 666 q 135 920 96 853 q 235 1022 174 986 q 380 1059 296 1059 q 527 1022 465 1059 q 628 920 588 986 q 686 760 667 853 q 705 556 705 666 q 699 412 705 483 q 680 276 694 340 q 643 158 666 212 q 583 63 619 103 q 497 1 547 23 q 380 -22 447 -22 m 380 151 q 445 179 421 151 q 482 260 469 208 q 498 388 494 313 q 501 556 501 463 q 500 624 501 589 q 495 698 499 660 q 483 772 491 736 q 462 836 475 808 q 428 880 448 863 q 380 897 408 897 q 333 880 353 897 q 300 836 313 863 q 279 772 287 808 q 267 698 271 736 q 262 624 263 660 q 261 556 261 589 q 264 388 261 463 q 280 260 268 313 q 316 179 292 208 q 380 151 340 151 z "},"P":{"ha":739,"x_min":96,"x_max":711,"o":"m 96 1042 l 226 1042 q 335 1041 279 1042 q 445 1033 391 1040 q 548 1007 499 1025 q 632 954 596 989 q 690 864 669 919 q 711 729 711 810 q 694 604 711 656 q 646 516 676 552 q 575 460 615 481 q 488 428 534 439 q 394 413 442 416 q 299 410 345 410 l 299 8 l 96 -8 l 96 1042 m 335 574 q 402 581 370 574 q 457 605 433 587 q 495 652 481 622 q 509 730 509 683 q 497 806 509 777 q 462 851 485 836 q 406 873 439 867 q 330 879 372 879 l 300 879 l 300 574 l 335 574 z "},"Q":{"ha":760,"x_min":57,"x_max":707,"o":"m 379 -22 q 263 2 313 -22 q 177 67 213 26 q 118 164 141 109 q 81 284 95 220 q 62 418 68 349 q 57 556 57 488 q 65 689 57 625 q 90 810 73 753 q 134 913 107 866 q 196 993 160 960 q 277 1045 231 1027 q 379 1063 323 1063 q 482 1045 436 1063 q 564 993 528 1027 q 626 913 600 960 q 670 810 652 866 q 695 689 687 753 q 703 556 703 625 q 697 413 703 485 q 676 275 691 341 q 635 153 661 210 q 570 57 610 97 q 591 8 576 26 q 625 -21 606 -11 q 666 -36 644 -31 q 707 -43 688 -40 l 707 -199 q 693 -199 699 -199 q 680 -200 686 -200 q 590 -188 629 -200 q 522 -151 551 -175 q 472 -93 492 -127 q 440 -16 452 -59 q 431 -18 440 -18 q 410 -20 421 -18 q 379 -22 396 -21 m 379 151 q 448 182 423 151 q 484 267 472 212 q 497 395 495 321 q 500 556 500 469 q 499 622 500 585 q 495 697 498 659 q 485 772 492 735 q 464 838 477 809 q 430 884 450 867 q 379 902 409 902 q 329 884 349 902 q 295 838 309 867 q 275 772 282 809 q 264 697 267 735 q 260 622 261 659 q 260 556 260 585 q 262 395 260 469 q 276 267 264 321 q 311 182 287 212 q 379 151 335 151 z "},"R":{"ha":784,"x_min":96,"x_max":764,"o":"m 96 -8 l 96 1034 l 343 1042 q 499 1025 429 1042 q 620 973 570 1008 q 698 882 671 937 q 726 751 726 827 q 715 660 726 701 q 684 587 704 619 q 637 531 665 555 q 576 488 610 507 q 585 467 576 487 q 606 416 593 448 q 636 343 619 384 q 670 260 652 302 q 764 36 711 161 l 564 -18 l 378 456 l 299 456 l 299 8 l 96 -8 m 299 607 l 368 607 q 427 612 399 607 q 476 632 454 617 q 510 675 497 648 q 522 749 522 703 q 512 811 522 786 q 485 851 503 836 q 445 872 468 866 q 394 879 421 879 l 299 879 l 299 607 z "},"S":{"ha":740,"x_min":33,"x_max":704,"o":"m 501 774 q 478 823 489 800 q 454 863 468 846 q 420 891 440 881 q 370 901 401 901 q 329 892 347 901 q 299 869 311 884 q 282 834 288 854 q 276 793 276 814 q 281 760 276 775 q 296 731 287 744 q 317 708 305 718 q 340 690 328 697 l 508 592 q 606 521 568 558 q 665 447 644 484 q 694 376 686 410 q 704 314 703 342 q 679 177 704 239 q 608 71 653 115 q 503 2 564 26 q 372 -22 442 -22 q 252 -2 307 -22 q 156 53 198 18 q 82 135 113 87 q 33 239 52 183 l 205 319 q 237 266 220 295 q 277 211 255 236 q 326 168 298 185 q 391 151 354 151 q 426 160 409 151 q 455 183 442 168 q 475 216 467 197 q 483 255 483 235 q 463 328 483 296 q 414 378 443 359 l 231 486 q 162 535 193 507 q 107 596 130 563 q 71 669 83 630 q 58 751 58 707 q 82 878 58 821 q 150 977 107 935 q 253 1041 193 1018 q 381 1063 312 1063 q 562 1009 487 1063 q 673 852 637 956 l 501 774 z "},"T":{"ha":663,"x_min":19,"x_max":646,"o":"m 19 879 l 35 1042 l 646 1042 l 629 879 l 435 879 l 435 8 l 231 -8 l 231 879 l 19 879 z "},"U":{"ha":789,"x_min":90,"x_max":699,"o":"m 90 1034 l 293 1042 l 293 327 q 295 264 293 296 q 308 208 297 233 q 342 167 319 183 q 407 151 365 151 q 468 168 446 151 q 499 210 489 184 q 511 267 509 235 q 513 329 513 298 l 513 1025 l 699 1042 l 699 367 q 698 297 699 337 q 688 213 696 256 q 661 128 680 170 q 606 52 642 85 q 515 -1 570 19 q 379 -22 460 -22 q 249 8 304 -22 q 159 87 195 37 q 106 203 123 137 q 90 343 90 270 l 90 1034 z "},"V":{"ha":741,"x_min":12,"x_max":731,"o":"m 12 1034 l 252 1042 l 391 323 l 535 1034 l 731 1042 l 480 0 l 257 0 l 12 1034 z "},"W":{"ha":1076,"x_min":18,"x_max":1063,"o":"m 416 0 l 230 0 l 18 1034 l 241 1042 l 351 418 l 468 1034 l 634 1042 l 744 411 l 877 1034 l 1063 1042 l 841 0 l 640 0 l 529 636 l 416 0 z "},"X":{"ha":722,"x_min":1,"x_max":730,"o":"m 340 326 l 193 0 l 1 0 l 259 529 l 11 1042 l 254 1042 l 375 771 l 500 1042 l 694 1042 l 459 568 l 730 0 l 488 0 l 340 326 z "},"Y":{"ha":696,"x_min":-2,"x_max":695,"o":"m 249 412 l -2 1042 l 222 1042 l 365 608 l 519 1042 l 695 1042 l 454 436 l 454 8 l 249 -8 l 249 412 z "},"Z":{"ha":684,"x_min":35,"x_max":644,"o":"m 394 879 l 66 879 l 83 1042 l 634 1042 l 634 907 l 286 163 l 644 163 l 611 0 l 35 0 l 35 129 l 394 879 z "},"[":{"ha":469,"x_min":96,"x_max":429,"o":"m 96 1107 l 429 1107 l 429 977 l 299 977 l 299 64 l 429 64 l 429 -65 l 96 -65 l 96 1107 z "},"\\":{"ha":426,"x_min":43,"x_max":382,"o":"m 382 0 l 179 0 l 43 1042 l 246 1042 l 382 0 z "},"]":{"ha":470,"x_min":41,"x_max":374,"o":"m 374 -65 l 41 -65 l 41 64 l 171 64 l 171 977 l 41 977 l 41 1107 l 374 1107 l 374 -65 z "},"^":{"ha":700,"x_min":18,"x_max":680,"o":"m 680 437 l 447 431 l 328 759 l 195 437 l 18 435 l 262 977 l 442 977 l 680 437 z "},"_":{"ha":377,"x_min":-7,"x_max":384,"o":"m -7 0 l 384 0 l 384 -161 l -7 -161 l -7 0 z "},"`":{"ha":416,"x_min":-33,"x_max":322,"o":"m 245 842 l -33 1076 l 121 1213 l 322 910 l 245 842 z "},"a":{"ha":656,"x_min":38,"x_max":598,"o":"m 38 222 q 54 319 38 277 q 97 391 70 361 q 159 441 123 421 q 232 474 194 462 q 309 493 271 487 q 382 502 348 500 q 381 555 382 529 q 375 602 380 581 q 358 635 370 623 q 326 648 347 648 q 295 641 308 648 q 274 620 283 633 q 261 592 266 608 q 255 560 257 576 l 65 593 q 98 690 73 652 q 160 751 124 728 q 240 782 197 773 q 326 791 283 791 q 439 773 392 791 q 517 722 487 754 q 563 645 548 689 q 577 551 577 602 l 577 147 q 580 100 577 124 q 587 55 583 75 q 598 8 592 31 l 408 -8 l 387 87 q 356 47 375 66 q 315 14 338 28 q 266 -9 292 -1 q 215 -18 240 -18 q 142 0 175 -18 q 86 50 110 18 q 51 126 63 82 q 38 222 38 170 m 229 224 q 248 150 229 178 q 307 121 267 121 q 333 129 320 121 q 357 144 347 136 q 382 168 370 155 l 382 385 q 321 377 349 385 q 273 350 294 369 q 241 300 252 331 q 229 224 229 269 z "},"b":{"ha":723,"x_min":83,"x_max":671,"o":"m 83 8 l 83 1017 l 279 1042 l 279 682 q 326 726 301 706 q 377 761 351 747 q 429 783 403 775 q 481 791 456 791 q 554 770 519 791 q 614 702 589 749 q 655 578 640 655 q 671 391 671 502 q 656 208 671 285 q 612 80 641 131 q 542 6 583 30 q 446 -18 500 -18 q 398 -14 419 -18 q 359 -1 376 -9 q 330 18 342 7 q 309 39 317 28 q 279 98 288 65 l 231 -8 l 83 8 m 279 326 q 287 225 279 264 q 309 162 295 185 q 339 131 322 140 q 374 121 356 121 q 430 143 410 121 q 460 202 450 165 q 473 288 471 239 q 475 391 475 336 q 474 483 475 440 q 466 557 472 526 q 446 607 459 589 q 408 625 432 625 q 368 617 390 625 q 326 598 345 608 q 279 572 302 586 l 279 326 z "},"c":{"ha":619,"x_min":46,"x_max":579,"o":"m 574 275 q 551 156 566 210 q 508 64 536 102 q 435 3 479 25 q 326 -18 391 -18 q 240 -3 279 -18 q 170 40 201 12 q 116 105 139 67 q 77 188 93 143 q 54 282 62 233 q 46 384 46 332 q 63 532 46 459 q 114 663 79 605 q 202 756 149 720 q 330 791 256 791 q 428 771 383 791 q 506 713 473 751 q 558 625 539 676 q 579 511 577 573 l 394 503 q 389 543 392 520 q 380 587 387 566 q 360 622 373 608 q 328 637 348 637 q 291 623 306 637 q 267 588 277 610 q 253 538 258 566 q 245 483 248 511 q 242 431 243 456 q 242 391 242 407 q 242 350 242 374 q 245 298 243 326 q 254 244 248 271 q 269 195 259 217 q 295 160 279 174 q 334 146 311 146 q 359 153 348 146 q 378 170 370 159 q 392 193 386 180 q 401 220 397 206 q 412 293 410 252 l 574 275 z "},"d":{"ha":724,"x_min":53,"x_max":640,"o":"m 492 -8 l 445 98 q 415 39 436 65 q 394 18 406 28 q 364 -1 381 7 q 326 -14 347 -9 q 277 -18 304 -18 q 182 6 224 -18 q 112 80 140 30 q 68 208 83 131 q 53 391 53 285 q 65 575 53 498 q 103 699 77 651 q 170 769 129 747 q 268 791 210 791 q 301 787 284 791 q 333 774 317 782 q 363 755 349 766 q 390 734 378 745 q 445 678 419 709 l 445 1017 l 640 1042 l 640 8 l 492 -8 m 445 586 q 415 617 431 604 q 385 638 401 629 q 350 648 368 648 q 294 628 314 648 q 263 573 273 608 q 251 491 253 538 q 248 391 248 444 q 251 288 248 336 q 263 202 253 239 q 294 143 273 165 q 350 121 314 121 q 385 131 368 121 q 415 162 401 140 q 437 225 429 185 q 445 326 445 264 l 445 586 z "},"e":{"ha":654,"x_min":47,"x_max":621,"o":"m 242 363 q 247 285 242 327 q 263 208 252 243 q 292 149 274 172 q 337 125 311 125 q 379 144 360 125 q 412 185 398 162 q 435 229 427 208 q 446 253 444 249 l 593 197 q 557 110 580 149 q 503 42 535 71 q 429 -2 471 14 q 334 -18 387 -18 q 209 12 262 -18 q 119 95 155 41 q 65 223 83 149 q 47 387 47 298 q 66 551 47 476 q 121 679 84 625 q 212 762 157 732 q 340 791 267 791 q 463 762 410 791 q 550 679 515 732 q 603 551 585 625 q 621 387 621 476 l 618 377 q 616 369 616 373 q 615 363 615 366 l 242 363 m 429 476 q 424 548 429 515 q 408 605 418 581 q 379 643 397 629 q 337 657 362 657 q 302 643 319 657 q 272 605 285 629 q 250 548 258 581 q 242 476 242 515 l 429 476 z "},"f":{"ha":468,"x_min":23,"x_max":452,"o":"m 119 635 l 23 635 l 31 781 l 119 781 l 119 796 q 123 889 119 844 q 145 969 127 934 q 203 1027 164 1005 q 313 1048 243 1048 q 374 1045 349 1048 q 415 1038 399 1042 q 446 1028 433 1034 l 446 911 l 403 911 q 355 901 372 911 q 328 875 337 891 q 317 838 319 859 q 315 795 315 817 l 315 781 l 452 781 l 444 635 l 315 635 l 315 8 l 119 -8 l 119 635 z "},"g":{"ha":752,"x_min":30,"x_max":747,"o":"m 30 -83 q 36 -47 30 -64 q 51 -15 41 -30 q 73 11 61 -1 q 98 33 85 23 q 167 70 128 55 q 109 93 134 79 q 87 107 98 99 q 68 125 77 115 q 55 147 60 135 q 50 174 50 159 q 57 211 50 193 q 73 244 63 229 q 97 274 83 260 q 123 299 110 288 q 197 347 156 326 q 135 397 162 368 q 112 426 123 410 q 92 461 101 442 q 78 504 83 481 q 73 553 73 526 q 98 656 73 611 q 164 731 123 701 q 256 776 205 761 q 359 791 307 791 q 427 786 397 791 q 482 772 458 781 q 525 753 506 763 q 557 733 543 743 q 585 758 568 743 q 625 788 602 773 q 673 813 647 803 q 726 824 699 824 q 732 824 729 824 q 739 823 736 823 q 747 821 743 822 l 747 657 q 712 670 728 664 q 684 680 699 675 q 661 684 669 684 q 647 682 654 684 q 635 677 641 680 q 623 672 629 675 q 638 631 631 652 q 648 594 644 614 q 653 556 653 574 q 636 469 653 513 q 585 389 618 425 q 500 330 551 353 q 383 315 450 307 q 336 317 357 315 q 302 318 316 318 q 262 300 273 310 q 251 254 251 290 q 265 221 251 234 q 300 205 279 208 l 484 191 q 579 174 537 186 q 652 134 622 161 q 698 70 682 107 q 714 -14 714 33 q 698 -92 714 -58 q 654 -152 682 -127 q 590 -195 627 -178 q 514 -223 554 -212 q 434 -238 475 -233 q 357 -243 393 -243 q 216 -231 277 -243 q 114 -198 155 -219 q 51 -148 73 -177 q 30 -83 30 -119 m 208 -24 q 217 -55 208 -41 q 247 -78 226 -68 q 300 -93 267 -88 q 380 -98 333 -98 q 487 -75 450 -98 q 524 -12 524 -52 q 508 24 524 11 q 469 44 492 37 q 422 52 446 50 q 383 54 398 54 l 269 54 q 247 45 258 51 q 227 29 236 39 q 213 6 218 19 q 208 -24 208 -7 m 268 560 q 271 514 268 538 q 284 471 275 490 q 312 438 294 451 q 359 426 330 426 q 423 459 399 426 q 446 556 446 493 q 439 609 446 587 q 420 645 432 631 q 392 666 408 659 q 358 673 376 673 q 317 663 334 673 q 290 636 300 652 q 273 600 279 620 q 268 560 268 579 z "},"h":{"ha":749,"x_min":84,"x_max":670,"o":"m 475 524 q 455 602 475 578 q 407 625 436 625 q 350 611 380 625 q 279 572 320 596 l 279 8 l 84 -8 l 84 1017 l 279 1042 l 279 682 q 397 765 340 739 q 503 791 453 791 q 570 778 540 791 q 623 738 601 764 q 657 676 645 713 q 670 594 670 640 l 670 8 l 475 -8 l 475 524 z "},"i":{"ha":363,"x_min":84,"x_max":280,"o":"m 84 765 l 279 781 l 279 8 l 84 -8 l 84 765 m 280 1085 l 280 890 l 85 889 l 85 1084 l 280 1085 z "},"j":{"ha":363,"x_min":-24,"x_max":280,"o":"m 280 1085 l 280 890 l 85 889 l 85 1084 l 280 1085 m -24 -65 q 36 -60 14 -65 q 68 -42 58 -54 q 81 -11 79 -31 q 84 37 84 8 l 84 765 l 279 781 l 279 37 q 277 -62 279 -18 q 258 -135 274 -105 q 207 -180 241 -164 q 106 -195 172 -195 q 47 -192 79 -195 q -24 -182 15 -189 l -24 -65 z "},"k":{"ha":692,"x_min":85,"x_max":690,"o":"m 280 286 l 280 0 l 85 0 l 85 1017 l 280 1042 l 280 526 l 479 781 l 690 781 l 470 500 l 674 41 l 502 -18 l 344 370 l 280 286 z "},"l":{"ha":363,"x_min":84,"x_max":279,"o":"m 84 1017 l 279 1042 l 279 8 l 84 -8 l 84 1017 z "},"m":{"ha":1008,"x_min":84,"x_max":930,"o":"m 735 544 q 724 604 735 583 q 695 625 713 625 q 659 616 675 625 q 631 597 643 607 q 605 569 616 585 l 605 8 l 410 -8 l 410 545 q 400 606 410 588 q 376 625 390 625 q 340 616 357 625 q 309 597 323 607 q 279 569 293 585 l 279 8 l 84 -8 l 84 765 l 279 781 l 279 682 q 372 761 321 730 q 481 791 423 791 q 551 764 521 791 q 596 670 581 736 q 687 759 639 726 q 797 791 734 791 q 861 775 836 791 q 902 729 886 760 q 924 654 918 699 q 930 554 930 610 l 930 8 l 735 -8 l 735 544 z "},"n":{"ha":749,"x_min":84,"x_max":670,"o":"m 475 522 q 455 602 475 579 q 404 625 435 625 q 346 608 378 625 q 279 571 313 591 l 279 8 l 84 -8 l 84 765 l 279 781 l 279 682 q 395 762 338 732 q 503 791 453 791 q 570 778 540 791 q 623 738 601 764 q 657 676 645 713 q 670 594 670 640 l 670 8 l 475 -8 l 475 522 z "},"o":{"ha":680,"x_min":47,"x_max":633,"o":"m 340 -18 q 212 12 267 -18 q 121 96 157 42 q 66 225 84 150 q 47 391 47 300 q 66 552 47 479 q 121 679 84 626 q 212 762 157 732 q 340 791 267 791 q 467 762 412 791 q 558 679 522 732 q 614 552 595 626 q 633 391 633 479 q 614 225 633 300 q 558 96 595 150 q 467 12 522 42 q 340 -18 412 -18 m 339 127 q 380 140 363 127 q 408 174 397 153 q 425 223 418 195 q 433 280 431 250 q 437 338 436 309 q 437 391 437 367 q 437 444 437 415 q 433 501 436 472 q 425 558 431 530 q 408 607 418 585 q 380 641 397 628 q 340 654 363 654 q 299 641 315 654 q 271 607 282 628 q 255 558 260 585 q 246 501 249 530 q 243 444 243 472 q 243 391 243 415 q 243 338 243 367 q 246 280 243 309 q 255 223 249 250 q 271 174 260 195 q 298 140 281 153 q 339 127 315 127 z "},"p":{"ha":707,"x_min":84,"x_max":651,"o":"m 84 765 l 279 781 l 279 706 q 314 738 296 722 q 354 765 333 753 q 397 784 374 777 q 445 791 420 791 q 535 773 498 791 q 594 723 571 754 q 629 651 617 692 q 646 565 641 610 q 651 476 650 521 q 651 391 651 431 q 650 309 651 354 q 642 219 648 264 q 622 131 635 174 q 584 55 608 88 q 522 2 559 22 q 430 -18 484 -18 q 364 -5 392 -18 q 317 24 336 8 q 279 67 295 43 l 279 -205 l 84 -243 l 84 765 m 363 651 q 329 643 344 651 q 302 624 313 634 q 279 597 290 612 l 279 193 q 300 162 288 176 q 326 141 310 151 q 364 131 342 131 q 401 141 385 131 q 430 180 418 151 q 449 259 442 208 q 456 391 456 310 q 450 514 456 464 q 432 594 444 564 q 403 638 420 625 q 363 651 385 651 z "},"q":{"ha":694,"x_min":56,"x_max":610,"o":"m 610 -218 l 414 -243 l 414 67 q 376 24 399 43 q 329 -5 357 8 q 264 -18 301 -18 q 178 2 213 -18 q 120 55 143 22 q 84 131 97 88 q 65 219 71 174 q 58 309 59 264 q 56 391 56 353 q 57 476 56 431 q 61 565 57 521 q 77 651 66 610 q 109 723 87 692 q 164 773 130 754 q 249 791 198 791 q 296 784 273 791 q 340 765 319 777 q 379 738 361 753 q 414 706 398 722 l 447 781 l 610 765 l 610 -218 m 345 651 q 304 638 322 651 q 275 594 287 625 q 258 514 264 564 q 252 391 252 464 q 257 259 252 310 q 274 180 263 208 q 298 141 284 151 q 330 131 313 131 q 368 141 351 131 q 394 162 384 151 q 414 193 406 176 l 414 597 q 395 624 406 612 q 373 643 386 634 q 345 651 360 651 z "},"r":{"ha":564,"x_min":84,"x_max":540,"o":"m 84 765 l 279 781 l 279 656 q 319 702 296 678 q 372 746 342 726 q 437 779 401 766 q 516 791 473 791 q 524 791 519 791 q 531 790 528 791 q 540 789 535 789 l 540 556 q 475 576 508 566 q 410 586 443 586 q 345 572 377 586 q 279 521 313 557 l 279 8 l 84 -8 l 84 765 z "},"s":{"ha":628,"x_min":41,"x_max":591,"o":"m 191 229 q 212 182 197 202 q 247 150 224 164 q 305 136 269 136 q 336 139 319 136 q 368 149 353 142 q 393 169 383 157 q 404 199 404 180 q 386 240 404 224 q 345 266 368 256 l 181 332 q 80 415 115 359 q 45 552 45 471 q 68 655 45 610 q 127 730 90 700 q 211 776 163 760 q 309 791 258 791 q 392 779 351 791 q 469 743 433 767 q 530 684 504 719 q 569 603 556 648 l 409 553 q 389 600 401 579 q 358 632 377 618 q 311 647 339 647 q 280 644 295 647 q 253 632 265 640 q 234 613 241 625 q 227 585 227 601 q 234 561 227 572 q 251 543 241 551 q 273 528 262 534 q 294 518 285 522 l 433 460 q 495 426 466 446 q 545 379 524 406 q 578 316 566 352 q 591 232 591 279 q 567 122 591 169 q 505 44 543 75 q 417 -3 466 13 q 318 -18 368 -18 q 212 -4 258 -18 q 130 35 165 9 q 73 98 96 61 q 41 180 51 134 l 191 229 z "},"t":{"ha":496,"x_min":19,"x_max":483,"o":"m 134 781 l 153 951 l 323 975 l 323 781 l 483 781 l 475 635 l 323 635 l 323 204 q 333 166 323 181 q 357 144 342 152 q 389 133 372 136 q 423 130 407 130 q 458 132 444 130 q 472 135 465 134 l 472 1 q 435 -9 457 -5 q 389 -15 417 -12 q 323 -18 361 -18 q 257 -9 291 -18 q 194 21 222 0 q 147 78 165 43 q 128 165 128 113 l 128 635 l 19 635 l 27 781 l 134 781 z "},"u":{"ha":749,"x_min":79,"x_max":665,"o":"m 274 258 q 292 178 274 201 q 338 155 309 155 q 367 160 352 155 q 399 174 382 165 q 434 193 416 182 q 469 216 452 204 l 469 765 l 665 781 l 665 8 l 469 -8 l 469 92 q 357 11 412 41 q 252 -18 301 -18 q 182 -4 214 -18 q 127 35 151 9 q 92 97 104 60 q 79 179 79 134 l 79 765 l 274 781 l 274 258 z "},"v":{"ha":632,"x_min":6,"x_max":627,"o":"m 6 765 l 239 781 l 337 281 l 450 757 l 627 773 l 528 434 l 403 0 l 223 0 l 100 434 l 6 765 z "},"w":{"ha":892,"x_min":24,"x_max":879,"o":"m 454 507 l 345 0 l 185 0 l 24 766 l 223 781 l 290 339 l 389 765 l 551 781 l 635 345 l 720 765 l 879 773 l 700 0 l 543 0 l 454 507 z "},"x":{"ha":638,"x_min":7,"x_max":642,"o":"m 312 230 l 193 0 l 7 0 l 218 393 l 14 781 l 227 781 l 321 590 l 420 781 l 605 781 l 417 430 l 642 8 l 427 -8 l 312 230 z "},"y":{"ha":611,"x_min":1,"x_max":603,"o":"m 20 -77 q 54 -78 38 -77 q 81 -79 68 -79 q 101 -79 95 -79 q 158 -71 135 -79 q 197 -48 182 -63 q 218 -12 212 -33 q 224 35 224 9 l 224 73 l 1 772 l 213 781 l 323 292 l 427 777 l 603 779 l 403 14 q 342 -123 378 -71 q 266 -202 307 -175 q 183 -239 225 -230 q 102 -248 140 -248 q 73 -246 88 -248 q 47 -243 58 -245 q 20 -239 33 -241 l 20 -77 z "},"z":{"ha":597,"x_min":36,"x_max":566,"o":"m 566 159 l 549 0 l 36 0 l 36 123 l 304 627 l 56 627 l 73 781 l 537 781 l 537 666 l 274 159 l 566 159 z "},"{":{"ha":457,"x_min":31,"x_max":421,"o":"m 96 374 q 95 407 96 390 q 87 438 94 424 q 68 461 81 452 q 31 470 55 470 l 31 598 q 68 607 55 598 q 87 630 81 616 q 95 661 94 644 q 96 694 96 678 q 110 871 96 794 q 161 1000 124 948 q 260 1080 197 1053 q 421 1107 323 1107 l 421 997 q 346 979 372 997 q 307 923 319 960 q 293 828 295 885 q 291 694 291 771 q 289 653 291 674 q 275 610 287 631 q 236 570 262 589 q 161 534 210 551 q 236 498 210 517 q 275 458 262 479 q 289 415 287 437 q 291 374 291 394 q 293 231 291 292 q 307 130 295 170 q 346 71 319 90 q 421 51 372 51 l 421 -59 q 260 -31 323 -59 q 161 53 197 -2 q 110 189 124 108 q 96 374 96 269 z "},"|":{"ha":395,"x_min":96,"x_max":299,"o":"m 96 1107 l 299 1107 l 299 -65 l 96 -65 l 96 1107 z "},"}":{"ha":456,"x_min":35,"x_max":426,"o":"m 361 374 q 347 189 361 269 q 296 53 332 108 q 196 -31 259 -2 q 35 -59 133 -59 l 35 51 q 111 71 84 51 q 149 130 137 90 q 163 231 161 170 q 165 374 165 292 q 168 415 165 394 q 182 458 170 437 q 220 498 194 479 q 296 534 247 517 q 220 570 247 551 q 182 610 194 589 q 168 653 170 631 q 165 694 165 674 q 163 828 165 771 q 149 923 161 885 q 111 979 137 960 q 35 997 84 997 l 35 1107 q 196 1080 133 1107 q 296 1000 259 1053 q 347 871 332 948 q 361 694 361 794 q 362 661 361 678 q 369 630 363 644 q 388 607 375 616 q 426 598 401 598 l 426 470 q 388 461 401 470 q 369 438 375 452 q 362 407 363 424 q 361 374 361 390 z "},"~":{"ha":553,"x_min":62,"x_max":494,"o":"m 62 632 q 109 680 85 659 q 156 713 130 698 q 207 728 181 728 q 254 717 233 728 q 294 691 275 705 q 331 665 313 677 q 370 654 349 654 q 427 665 404 654 q 466 691 451 677 q 494 728 484 707 l 494 605 q 486 590 494 604 q 460 558 477 575 q 419 527 444 541 q 365 513 395 513 q 322 526 342 513 q 283 554 303 539 q 242 583 264 570 q 193 595 220 595 q 144 584 168 595 q 102 558 121 572 q 62 521 81 541 l 62 632 z "}," ":{"ha":339,"x_min":0,"x_max":0,"o":""},"¡":{"ha":368,"x_min":86,"x_max":281,"o":"m 86 -8 l 281 -8 l 250 730 l 119 730 l 86 -8 m 86 1042 l 86 830 l 281 830 l 281 1034 l 86 1042 z "},"¢":{"ha":667,"x_min":35,"x_max":629,"o":"m 298 -11 q 182 40 231 3 q 100 131 133 78 q 52 250 68 184 q 35 384 35 315 q 51 522 35 454 q 98 647 66 591 q 180 741 130 703 q 298 788 229 779 l 298 911 l 392 911 l 392 787 q 487 756 444 779 q 561 696 530 732 q 610 613 592 661 q 629 511 627 566 l 444 503 q 439 532 442 516 q 430 566 436 549 q 415 597 425 583 q 392 623 406 612 l 392 148 q 415 159 405 151 q 432 177 425 167 q 444 201 439 188 q 452 227 449 214 q 462 293 460 256 l 625 275 q 602 161 616 213 q 561 71 587 109 q 493 10 534 33 q 392 -17 452 -13 l 392 -130 l 298 -130 l 298 -11 m 231 391 q 232 342 231 372 q 239 281 233 313 q 259 220 245 250 q 298 171 273 190 l 298 624 q 270 595 281 613 q 251 556 258 578 q 239 512 243 535 q 234 466 235 488 q 232 424 232 444 q 231 391 231 404 z "},"£":{"ha":620,"x_min":66,"x_max":577,"o":"m 71 561 l 140 561 q 121 625 131 593 q 98 696 109 663 q 81 760 88 730 q 75 813 75 790 q 97 917 75 871 q 155 995 119 962 q 236 1044 191 1027 q 327 1061 281 1061 q 412 1048 370 1061 q 487 1007 453 1035 q 545 938 522 980 q 577 836 569 895 l 420 777 q 396 872 420 841 q 336 903 372 903 q 292 879 311 903 q 274 800 274 854 q 290 707 274 751 q 325 618 306 663 q 348 561 337 590 l 475 561 l 475 431 l 376 431 l 376 429 q 358 322 376 379 q 295 195 340 264 q 391 218 342 218 q 482 202 437 218 q 572 157 527 185 l 572 7 l 543 -1 q 499 34 521 20 q 458 54 478 47 q 419 63 438 61 q 382 66 400 66 q 308 54 342 66 q 245 29 275 43 q 191 3 216 15 q 143 -8 166 -8 q 109 -3 123 -8 q 85 8 95 2 q 66 24 74 16 l 66 153 q 114 185 95 163 q 145 240 134 208 q 162 314 157 273 q 167 401 167 355 q 165 431 167 416 l 71 431 l 71 561 z "},"¤":{"ha":823,"x_min":60,"x_max":765,"o":"m 124 303 l 60 377 l 155 460 q 128 534 137 494 q 119 618 119 574 q 129 705 119 665 q 157 781 138 746 l 60 867 l 124 941 l 221 855 q 304 896 256 882 q 412 911 351 911 q 520 896 473 911 q 603 854 568 881 l 701 941 l 765 867 l 667 780 q 695 705 686 745 q 704 618 704 664 q 695 534 704 574 q 669 461 686 495 l 765 377 l 701 303 l 606 386 q 522 342 570 357 q 412 327 474 327 q 301 342 349 327 q 218 385 253 357 l 124 303 m 412 473 q 541 618 541 473 q 412 764 541 764 q 282 618 282 764 q 412 473 282 473 z "},"¥":{"ha":743,"x_min":23,"x_max":720,"o":"m 274 412 l 23 1042 l 247 1042 l 390 608 l 545 1042 l 720 1042 l 479 436 l 479 0 l 274 0 l 274 412 z "},"¦":{"ha":400,"x_min":98,"x_max":302,"o":"m 98 391 l 302 391 l 302 -65 l 98 -65 l 98 391 m 98 1107 l 302 1107 l 302 651 l 98 651 l 98 1107 z "},"§":{"ha":667,"x_min":56,"x_max":613,"o":"m 207 212 q 228 165 213 185 q 262 133 240 147 q 321 119 285 119 q 352 122 334 119 q 384 132 369 125 q 409 152 399 140 q 419 182 419 163 q 401 223 419 207 q 360 249 384 239 l 197 315 q 96 395 131 341 q 61 528 61 450 q 76 615 61 576 q 117 683 92 653 q 68 831 68 740 q 90 931 68 888 q 149 1004 113 975 q 233 1048 186 1034 q 332 1063 281 1063 q 415 1052 374 1063 q 491 1017 456 1040 q 552 960 526 994 q 591 882 578 926 l 431 832 q 411 879 424 858 q 380 911 399 897 q 333 926 361 926 q 302 922 317 926 q 276 911 288 919 q 256 891 264 903 q 249 863 249 880 q 256 840 249 850 q 274 821 263 829 q 296 806 284 812 q 317 797 307 800 l 456 739 q 517 707 488 726 q 567 663 546 688 q 601 603 589 637 q 613 524 613 569 q 596 430 613 471 q 551 359 579 389 q 591 298 576 333 q 606 215 606 262 q 583 112 606 156 q 520 38 559 67 q 433 -7 481 8 q 334 -22 384 -22 q 227 -9 274 -22 q 146 28 180 4 q 89 86 111 52 q 56 163 66 121 l 207 212 m 242 561 q 249 533 242 545 q 267 510 256 520 q 289 493 277 500 q 310 481 300 486 l 400 444 q 418 462 410 451 q 426 491 426 473 q 408 532 426 516 q 367 558 391 549 l 258 602 q 247 585 251 595 q 242 561 242 574 z "},"¨":{"ha":740,"x_min":110,"x_max":631,"o":"m 305 1042 l 305 846 l 110 846 l 110 1042 l 305 1042 m 631 1042 l 631 846 l 435 846 l 435 1042 l 631 1042 z "},"©":{"ha":947,"x_min":37,"x_max":911,"o":"m 675 395 q 663 308 675 349 q 627 234 651 266 q 566 183 603 202 q 479 164 529 164 q 380 192 420 164 q 314 264 339 220 q 277 361 288 308 q 265 467 265 415 q 270 532 265 499 q 286 597 275 566 q 314 656 296 629 q 355 705 331 684 q 411 738 379 726 q 483 750 443 750 q 563 730 528 750 q 624 676 599 709 q 661 602 648 643 q 674 517 674 560 l 545 512 q 544 526 545 515 q 541 551 543 536 q 535 581 539 565 q 523 609 530 596 q 503 631 515 623 q 475 640 492 640 q 436 624 450 640 q 413 583 421 608 q 402 527 405 558 q 399 467 399 496 q 402 393 399 429 q 415 328 406 357 q 441 282 424 300 q 488 265 459 265 q 523 279 509 265 q 544 313 536 292 q 556 359 552 334 q 561 406 559 384 l 675 395 m 127 456 q 154 314 127 380 q 229 197 182 247 q 339 119 276 148 q 474 90 402 90 q 608 119 545 90 q 719 197 671 148 q 793 314 766 247 q 821 456 821 380 q 793 599 821 532 q 719 715 766 666 q 608 794 671 765 q 474 823 545 823 q 339 794 402 823 q 229 715 276 765 q 154 599 182 666 q 127 456 127 532 m 37 456 q 52 578 37 519 q 96 687 68 636 q 165 779 125 738 q 254 850 205 821 q 358 897 302 880 q 474 913 414 913 q 590 897 534 913 q 694 850 646 880 q 783 779 743 821 q 851 687 823 738 q 895 578 880 636 q 911 456 911 519 q 895 335 911 393 q 851 226 880 277 q 783 134 823 175 q 694 62 743 92 q 590 16 646 33 q 474 0 534 0 q 358 16 414 0 q 254 62 302 33 q 165 134 205 92 q 96 226 125 175 q 52 335 68 277 q 37 456 37 393 z "},"ª":{"ha":525,"x_min":46,"x_max":458,"o":"m 46 372 q 72 472 46 433 q 135 534 97 511 q 218 566 174 557 q 300 578 262 576 q 299 617 300 598 q 294 652 298 637 q 282 677 290 667 q 258 686 273 686 q 236 681 245 686 q 220 666 227 675 q 211 645 214 656 q 206 621 208 633 l 66 646 q 91 716 72 688 q 137 761 110 745 q 195 785 163 778 q 258 791 227 791 q 342 778 307 791 q 400 740 377 764 q 433 684 422 716 q 444 615 444 652 l 444 317 q 446 282 444 300 q 451 249 448 264 q 458 215 454 231 l 319 203 l 303 273 q 281 244 295 258 q 250 219 267 230 q 214 202 233 208 q 176 195 195 195 q 123 209 147 195 q 82 245 99 222 q 56 302 65 269 q 46 372 46 334 m 187 374 q 201 319 187 340 q 244 298 214 298 q 264 303 254 298 q 282 315 274 309 q 300 332 292 323 l 300 492 q 255 486 275 492 q 219 466 235 480 q 196 430 204 452 q 187 374 187 408 z "},"«":{"ha":844,"x_min":37,"x_max":781,"o":"m 37 298 l 37 477 l 382 742 l 373 565 l 169 412 l 391 273 l 381 40 l 37 298 m 427 298 l 427 477 l 773 742 l 764 565 l 559 412 l 781 273 l 772 40 l 427 298 z "},"¬":{"ha":535,"x_min":64,"x_max":455,"o":"m 64 487 l 455 487 l 455 195 l 357 195 l 357 326 l 64 326 l 64 487 z "},"®":{"ha":947,"x_min":37,"x_max":911,"o":"m 127 456 q 154 314 127 380 q 229 197 182 247 q 339 119 276 148 q 474 90 402 90 q 608 119 545 90 q 719 197 671 148 q 793 314 766 247 q 821 456 821 380 q 793 599 821 532 q 719 715 766 666 q 608 794 671 765 q 474 823 545 823 q 339 794 402 823 q 229 715 276 765 q 154 599 182 666 q 127 456 127 532 m 37 456 q 52 578 37 519 q 96 687 68 636 q 165 779 125 738 q 254 850 205 821 q 358 897 302 880 q 474 913 414 913 q 590 897 534 913 q 694 850 646 880 q 783 779 743 821 q 851 687 823 738 q 895 578 880 636 q 911 456 911 519 q 895 335 911 393 q 851 226 880 277 q 783 134 823 175 q 694 62 743 92 q 590 16 646 33 q 474 0 534 0 q 358 16 414 0 q 254 62 302 33 q 165 134 205 92 q 96 226 125 175 q 52 335 68 277 q 37 456 37 393 m 317 742 l 403 742 q 475 742 437 742 q 547 737 512 741 q 615 722 583 732 q 671 692 647 712 q 709 641 694 673 q 723 564 723 610 q 711 500 723 526 q 680 455 700 473 q 633 426 659 437 q 576 410 606 416 q 513 402 545 404 q 451 401 481 401 l 451 158 l 317 158 l 317 742 m 475 496 q 518 498 498 496 q 555 509 539 501 q 580 530 571 517 q 589 564 589 543 q 582 601 589 587 q 558 622 574 614 q 522 632 543 629 q 471 635 500 635 l 452 635 l 452 496 l 475 496 z "},"¯":{"ha":609,"x_min":110,"x_max":500,"o":"m 110 977 l 500 977 l 500 846 l 110 846 l 110 977 z "},"°":{"ha":625,"x_min":46,"x_max":578,"o":"m 46 522 q 63 625 46 577 q 114 707 80 672 q 199 761 148 741 q 318 781 250 781 q 430 761 381 781 q 511 707 478 741 q 561 625 544 672 q 578 522 578 577 q 561 418 578 466 q 511 336 544 371 q 430 282 478 302 q 318 262 381 262 q 199 282 250 262 q 114 336 148 302 q 63 418 80 371 q 46 522 46 466 m 409 522 q 407 560 409 538 q 397 602 406 582 q 369 636 388 623 q 317 650 351 650 q 258 636 279 650 q 227 602 237 623 q 216 560 217 582 q 214 522 214 538 q 216 483 214 505 q 227 441 217 461 q 258 407 237 420 q 317 393 279 393 q 369 407 351 393 q 397 441 388 420 q 407 483 406 461 q 409 522 409 505 z "},"±":{"ha":587,"x_min":51,"x_max":538,"o":"m 375 391 l 375 228 l 214 228 l 214 391 l 51 391 l 51 552 l 214 552 l 214 715 l 375 715 l 375 552 l 538 552 l 538 391 l 375 391 m 96 162 l 487 162 l 487 1 l 96 1 l 96 162 z "},"²":{"ha":570,"x_min":59,"x_max":511,"o":"m 59 896 q 87 960 67 929 q 137 1013 107 990 q 207 1050 168 1036 q 294 1063 247 1063 q 378 1053 338 1063 q 447 1019 417 1042 q 494 959 477 996 q 511 871 511 922 q 489 776 511 824 q 432 683 467 728 q 355 597 397 638 q 273 521 313 555 l 479 521 q 478 486 479 501 q 474 456 476 471 q 470 426 472 441 q 469 391 469 410 l 59 391 l 59 508 q 113 566 84 536 q 171 626 142 596 q 226 687 199 656 q 273 748 253 718 q 306 810 294 779 q 318 872 318 841 q 308 916 318 898 q 277 935 297 935 q 248 920 259 935 q 231 888 237 905 q 221 842 224 867 l 59 896 z "},"³":{"ha":581,"x_min":33,"x_max":511,"o":"m 58 930 q 100 991 78 966 q 149 1032 123 1016 q 205 1055 174 1048 q 273 1063 235 1063 q 357 1052 316 1063 q 430 1019 398 1041 q 481 966 462 998 q 501 892 501 934 q 498 857 501 877 q 481 814 494 836 q 443 770 469 792 q 374 732 418 749 q 475 671 439 711 q 511 563 511 631 q 491 475 511 513 q 437 411 471 437 q 359 372 404 385 q 264 358 314 358 q 187 368 224 358 q 119 396 150 377 q 65 444 88 415 q 33 511 43 473 l 178 554 q 189 530 182 541 q 203 509 195 518 q 225 495 212 500 q 256 490 237 490 q 285 495 272 490 q 307 511 298 501 q 321 534 316 522 q 326 562 326 547 q 314 612 326 593 q 284 641 303 631 q 240 655 265 652 q 186 659 214 659 l 186 789 q 236 793 212 789 q 278 805 260 796 q 306 831 296 814 q 316 874 316 848 q 301 918 316 899 q 258 937 287 937 q 231 927 242 937 q 213 907 220 918 q 198 878 204 894 l 58 930 z "},"´":{"ha":416,"x_min":112,"x_max":467,"o":"m 112 913 l 313 1216 l 467 1079 l 189 844 l 112 913 z "},"µ":{"ha":745,"x_min":87,"x_max":673,"o":"m 87 765 l 282 781 l 282 258 q 300 178 282 201 q 347 155 317 155 q 375 160 360 155 q 408 174 391 165 q 442 193 425 182 q 477 216 460 204 l 477 765 l 673 781 l 673 8 l 477 -8 l 477 92 q 396 45 436 62 q 321 29 356 29 q 282 31 300 29 l 282 -130 l 87 -138 l 87 765 z "},"¶":{"ha":781,"x_min":32,"x_max":743,"o":"m 743 873 l 645 873 l 645 0 l 488 0 l 488 518 q 436 519 462 518 q 385 522 411 519 l 385 0 l 227 0 l 227 543 q 149 573 185 555 q 87 620 113 591 q 46 686 61 648 q 32 777 32 725 q 56 892 32 846 q 122 968 81 939 q 218 1013 163 998 q 334 1035 273 1028 q 459 1041 395 1041 q 583 1042 523 1042 l 743 1042 l 743 873 z "},"·":{"ha":350,"x_min":77,"x_max":273,"o":"m 273 521 l 273 326 l 77 326 l 77 521 l 273 521 z "},"¸":{"ha":374,"x_min":52,"x_max":354,"o":"m 111 33 l 214 33 l 194 -52 q 263 -81 235 -63 q 309 -117 291 -98 q 336 -156 326 -136 q 349 -191 345 -175 q 354 -217 353 -207 q 354 -230 354 -228 q 342 -298 354 -271 q 309 -344 330 -326 q 262 -369 289 -361 q 208 -377 236 -377 q 122 -365 163 -377 q 52 -334 80 -353 l 52 -222 q 105 -241 81 -235 q 149 -246 130 -246 q 199 -231 184 -246 q 214 -196 214 -216 q 207 -168 214 -182 q 183 -142 199 -154 q 143 -123 168 -131 q 84 -116 119 -116 l 111 33 z "},"¹":{"ha":517,"x_min":62,"x_max":481,"o":"m 71 521 l 192 521 l 192 818 l 150 812 q 113 809 132 810 q 79 807 93 807 l 62 807 l 62 903 l 286 1042 l 355 1042 l 355 521 l 481 521 l 473 391 l 71 391 l 71 521 z "},"º":{"ha":645,"x_min":57,"x_max":589,"o":"m 321 378 q 365 390 346 378 q 395 422 383 402 q 414 469 408 443 q 420 522 420 494 q 414 575 420 549 q 395 622 408 601 q 365 655 383 642 q 322 667 347 667 q 279 655 298 667 q 249 623 261 643 q 231 576 237 602 q 224 523 224 550 q 231 471 224 496 q 249 425 237 445 q 279 391 261 404 q 321 378 297 378 m 323 246 q 207 267 256 246 q 123 323 157 287 q 74 410 90 359 q 57 520 57 460 q 74 629 57 579 q 123 714 90 678 q 207 771 157 751 q 323 791 256 791 q 437 771 388 791 q 520 714 487 751 q 571 629 554 678 q 589 520 589 579 q 571 410 589 460 q 520 323 554 359 q 437 267 487 287 q 323 246 388 246 z "},"»":{"ha":844,"x_min":62,"x_max":807,"o":"m 463 40 l 453 273 l 675 412 l 471 565 l 461 742 l 807 477 l 807 298 l 463 40 m 72 40 l 62 273 l 284 412 l 80 565 l 71 742 l 416 477 l 416 298 l 72 40 z "},"¼":{"ha":1350,"x_min":48,"x_max":1319,"o":"m 1066 130 l 802 130 l 802 244 l 1040 651 l 1234 651 l 1234 251 l 1319 251 l 1308 130 l 1234 130 l 1234 -22 l 1066 -33 l 1066 130 m 722 1042 l 917 1042 l 656 0 l 461 0 l 722 1042 m 57 521 l 178 521 l 178 818 l 136 812 q 99 809 119 810 q 66 807 79 807 l 48 807 l 48 903 l 273 1042 l 341 1042 l 341 521 l 468 521 l 460 391 l 57 391 l 57 521 m 1066 251 l 1066 482 l 927 251 l 1066 251 z "},"½":{"ha":1345,"x_min":44,"x_max":1312,"o":"m 718 1042 l 913 1042 l 652 0 l 457 0 l 718 1042 m 859 505 q 887 569 867 538 q 938 623 907 600 q 1007 659 968 646 q 1095 673 1047 673 q 1178 662 1139 673 q 1247 628 1217 651 q 1294 568 1277 605 q 1312 480 1312 532 q 1289 386 1312 433 q 1232 293 1267 338 q 1156 206 1198 248 q 1074 130 1114 165 l 1280 130 q 1278 95 1280 111 q 1274 65 1276 80 q 1271 35 1272 50 q 1269 0 1269 20 l 859 0 l 859 117 q 913 176 884 146 q 971 236 942 205 q 1026 296 1000 266 q 1074 358 1053 327 q 1106 419 1094 389 q 1118 481 1118 450 q 1108 526 1118 507 q 1077 544 1097 544 q 1048 529 1059 544 q 1031 497 1038 515 q 1021 451 1024 477 l 859 505 m 53 521 l 174 521 l 174 818 l 132 812 q 95 809 115 810 q 62 807 75 807 l 44 807 l 44 903 l 269 1042 l 337 1042 l 337 521 l 464 521 l 456 391 l 53 391 l 53 521 z "},"¾":{"ha":1343,"x_min":29,"x_max":1312,"o":"m 714 1042 l 909 1042 l 649 0 l 454 0 l 714 1042 m 54 930 q 97 991 75 966 q 145 1032 119 1016 q 201 1055 171 1048 q 269 1063 232 1063 q 354 1052 313 1063 q 427 1019 395 1041 q 478 966 458 998 q 498 892 498 934 q 494 857 498 877 q 478 814 491 836 q 440 770 465 792 q 371 732 414 749 q 472 671 436 711 q 507 563 507 631 q 487 475 507 513 q 434 411 467 437 q 355 372 400 385 q 261 358 311 358 q 184 368 221 358 q 116 396 146 377 q 62 444 85 415 q 29 511 39 473 l 175 554 q 185 530 179 541 q 200 509 191 518 q 221 495 209 500 q 252 490 234 490 q 281 495 269 490 q 303 511 294 501 q 317 534 313 522 q 322 562 322 547 q 311 612 322 593 q 281 641 300 631 q 236 655 262 652 q 182 659 211 659 l 182 789 q 233 793 209 789 q 274 805 256 796 q 302 831 292 814 q 313 874 313 848 q 298 918 313 899 q 254 937 283 937 q 228 927 239 937 q 210 907 217 918 q 195 878 201 894 l 54 930 m 1059 130 l 794 130 l 794 244 l 1033 651 l 1227 651 l 1227 251 l 1312 251 l 1301 130 l 1227 130 l 1227 -22 l 1059 -33 l 1059 130 m 1059 251 l 1059 482 l 920 251 l 1059 251 z "},"¿":{"ha":600,"x_min":34,"x_max":567,"o":"m 306 780 l 469 780 q 469 656 475 706 q 446 573 462 606 q 409 518 431 539 q 362 481 387 497 q 315 451 338 465 q 272 417 291 437 q 242 367 254 397 q 230 291 230 338 q 231 253 230 277 q 240 206 233 229 q 263 164 247 182 q 309 147 279 147 q 345 161 331 147 q 366 197 358 176 q 377 240 374 218 q 382 280 380 263 l 567 272 q 545 159 565 210 q 490 70 525 107 q 408 12 456 33 q 304 -8 361 -8 q 183 19 234 -8 q 99 89 132 45 q 50 187 66 132 q 34 298 34 242 q 45 402 34 359 q 76 474 57 444 q 120 524 96 504 q 170 560 144 543 q 220 594 195 577 q 263 634 244 610 q 294 690 283 657 q 306 772 306 723 l 306 780 m 290 845 l 290 1040 l 486 1048 l 486 845 l 290 845 z "},"À":{"ha":767,"x_min":17,"x_max":751,"o":"m 243 223 l 198 0 l 17 0 l 237 1029 l 526 1042 l 751 8 l 530 0 l 491 223 l 243 223 m 454 390 l 359 888 l 280 390 l 454 390 m 411 1102 l 133 1337 l 287 1474 l 488 1171 l 411 1102 z "},"Á":{"ha":767,"x_min":17,"x_max":751,"o":"m 243 223 l 198 0 l 17 0 l 237 1029 l 526 1042 l 751 8 l 530 0 l 491 223 l 243 223 m 454 390 l 359 888 l 280 390 l 454 390 m 275 1173 l 476 1476 l 630 1339 l 351 1105 l 275 1173 z "},"Â":{"ha":767,"x_min":17,"x_max":751,"o":"m 243 223 l 198 0 l 17 0 l 237 1029 l 526 1042 l 751 8 l 530 0 l 491 223 l 243 223 m 454 390 l 359 888 l 280 390 l 454 390 m 157 1107 l 319 1432 l 456 1432 l 612 1107 l 443 1107 l 378 1303 l 299 1107 l 157 1107 z "},"Ã":{"ha":767,"x_min":17,"x_max":751,"o":"m 243 223 l 198 0 l 17 0 l 237 1029 l 526 1042 l 751 8 l 530 0 l 491 223 l 243 223 m 454 390 l 359 888 l 280 390 l 454 390 m 168 1220 q 211 1261 189 1243 q 253 1290 230 1277 q 299 1303 276 1303 q 348 1294 326 1303 q 390 1276 370 1286 q 429 1257 410 1265 q 469 1249 448 1249 q 514 1257 495 1249 q 546 1276 534 1265 q 570 1303 560 1288 l 600 1193 q 591 1177 600 1192 q 566 1143 583 1161 q 525 1109 549 1124 q 471 1095 501 1095 q 426 1105 446 1095 q 386 1129 406 1116 q 343 1152 366 1141 q 292 1163 321 1163 q 250 1153 271 1163 q 214 1129 230 1142 q 178 1095 195 1114 l 168 1220 z "},"Ä":{"ha":767,"x_min":17,"x_max":751,"o":"m 243 223 l 198 0 l 17 0 l 237 1029 l 526 1042 l 751 8 l 530 0 l 491 223 l 243 223 m 454 390 l 359 888 l 280 390 l 454 390 m 319 1302 l 319 1107 l 124 1107 l 124 1302 l 319 1302 m 645 1302 l 645 1107 l 450 1107 l 450 1302 l 645 1302 z "},"Å":{"ha":767,"x_min":17,"x_max":751,"o":"m 243 223 l 198 0 l 17 0 l 237 1029 l 526 1042 l 751 8 l 530 0 l 491 223 l 243 223 m 454 390 l 359 888 l 280 390 l 454 390 m 385 1107 q 307 1118 345 1107 q 239 1153 269 1130 q 191 1210 209 1175 q 172 1292 172 1245 q 191 1373 172 1338 q 239 1430 209 1407 q 307 1464 269 1453 q 385 1476 345 1476 q 462 1464 424 1476 q 530 1430 500 1453 q 578 1373 559 1407 q 596 1292 596 1338 q 578 1210 596 1245 q 530 1153 559 1175 q 462 1118 500 1130 q 385 1107 424 1107 m 384 1215 q 414 1219 399 1215 q 441 1234 429 1224 q 460 1258 453 1244 q 468 1291 468 1272 q 460 1323 468 1310 q 441 1347 453 1337 q 415 1361 430 1356 q 385 1367 399 1367 q 354 1361 369 1367 q 327 1347 338 1356 q 308 1323 315 1337 q 300 1291 300 1310 q 308 1258 300 1272 q 327 1234 315 1244 q 353 1219 338 1224 q 384 1215 368 1215 z "},"Æ":{"ha":1072,"x_min":-5,"x_max":1038,"o":"m 522 0 l 532 223 l 305 223 l 217 0 l -5 0 l 444 1029 l 582 1042 l 1027 1042 l 1010 879 l 749 879 l 749 631 l 920 631 l 920 456 l 749 456 l 749 163 l 1038 163 l 1021 0 l 522 0 m 533 390 l 548 888 l 372 390 l 533 390 z "},"Ç":{"ha":728,"x_min":56,"x_max":677,"o":"m 677 355 q 660 214 677 282 q 605 94 642 146 q 513 10 568 41 q 382 -22 457 -22 q 267 2 317 -22 q 181 66 217 25 q 121 162 145 107 q 83 279 97 216 q 62 409 68 342 q 56 543 56 477 q 64 662 56 601 q 87 782 71 724 q 130 891 104 840 q 193 980 156 942 q 277 1041 229 1019 q 387 1063 326 1063 q 509 1030 455 1063 q 600 944 563 998 q 656 824 637 891 q 676 688 676 757 l 479 677 q 479 702 479 683 q 475 745 478 720 q 465 797 471 770 q 447 848 458 825 q 418 886 435 871 q 375 901 400 901 q 333 885 351 901 q 302 842 315 869 q 281 779 289 815 q 268 704 273 743 q 261 623 263 664 q 260 543 260 581 q 261 446 260 494 q 269 354 263 397 q 283 274 274 311 q 308 210 292 237 q 344 168 323 183 q 395 153 366 153 q 447 174 427 153 q 479 228 467 195 q 496 299 491 260 q 505 371 502 337 l 677 355 m 335 33 l 438 33 l 418 -52 q 487 -81 459 -63 q 532 -117 515 -98 q 559 -156 550 -136 q 573 -191 569 -175 q 577 -217 577 -207 q 578 -230 578 -228 q 566 -298 578 -271 q 533 -344 553 -326 q 486 -369 513 -361 q 431 -377 460 -377 q 346 -365 387 -377 q 275 -334 304 -353 l 275 -222 q 329 -241 305 -235 q 373 -246 353 -246 q 423 -231 408 -246 q 438 -196 438 -216 q 431 -168 438 -182 q 407 -142 423 -154 q 367 -123 391 -131 q 308 -116 342 -116 l 335 33 z "},"È":{"ha":670,"x_min":1,"x_max":636,"o":"m 96 1042 l 625 1042 l 609 879 l 300 879 l 300 631 l 519 631 l 518 456 l 300 456 l 300 163 l 636 163 l 620 0 l 96 0 l 96 1042 m 279 1102 l 1 1337 l 155 1474 l 357 1171 l 279 1102 z "},"É":{"ha":670,"x_min":96,"x_max":668,"o":"m 96 1042 l 625 1042 l 609 879 l 300 879 l 300 631 l 519 631 l 518 456 l 300 456 l 300 163 l 636 163 l 620 0 l 96 0 l 96 1042 m 313 1173 l 514 1476 l 668 1339 l 389 1105 l 313 1173 z "},"Ê":{"ha":670,"x_min":96,"x_max":636,"o":"m 96 1042 l 625 1042 l 609 879 l 300 879 l 300 631 l 519 631 l 518 456 l 300 456 l 300 163 l 636 163 l 620 0 l 96 0 l 96 1042 m 131 1107 l 294 1432 l 431 1432 l 587 1107 l 417 1107 l 352 1303 l 273 1107 l 131 1107 z "},"Ë":{"ha":670,"x_min":96,"x_max":636,"o":"m 96 1042 l 625 1042 l 609 879 l 300 879 l 300 631 l 519 631 l 518 456 l 300 456 l 300 163 l 636 163 l 620 0 l 96 0 l 96 1042 m 305 1302 l 305 1107 l 110 1107 l 110 1302 l 305 1302 m 631 1302 l 631 1107 l 435 1107 l 435 1302 l 631 1302 z "},"Ì":{"ha":395,"x_min":-54,"x_max":302,"o":"m 96 1025 l 300 1042 l 300 8 l 96 -8 l 96 1025 m 224 1102 l -54 1337 l 100 1474 l 302 1171 l 224 1102 z "},"Í":{"ha":395,"x_min":88,"x_max":444,"o":"m 96 1025 l 300 1042 l 300 8 l 96 -8 l 96 1025 m 88 1173 l 290 1476 l 444 1339 l 165 1105 l 88 1173 z "},"Î":{"ha":395,"x_min":-30,"x_max":426,"o":"m 96 1025 l 300 1042 l 300 8 l 96 -8 l 96 1025 m -30 1107 l 133 1432 l 270 1432 l 426 1107 l 256 1107 l 191 1303 l 113 1107 l -30 1107 z "},"Ï":{"ha":395,"x_min":-63,"x_max":458,"o":"m 96 1025 l 300 1042 l 300 8 l 96 -8 l 96 1025 m 132 1302 l 132 1107 l -63 1107 l -63 1302 l 132 1302 m 458 1302 l 458 1107 l 262 1107 l 262 1302 l 458 1302 z "},"Ð":{"ha":772,"x_min":3,"x_max":722,"o":"m 3 586 l 100 586 l 100 1042 l 313 1042 q 621 912 519 1042 q 722 517 722 782 q 713 387 722 451 q 686 266 705 323 q 638 159 667 208 q 568 75 609 111 q 472 20 526 40 q 349 0 418 0 l 100 0 l 100 456 l 3 456 l 3 586 m 303 879 l 303 586 l 394 586 l 394 456 l 303 456 l 303 163 l 332 163 q 400 176 371 163 q 450 212 429 189 q 484 266 471 235 q 505 332 497 297 q 516 404 513 367 q 519 478 519 441 l 519 554 q 515 641 519 597 q 500 728 511 686 q 468 805 489 771 q 413 859 447 838 q 327 879 378 879 l 303 879 z "},"Ñ":{"ha":844,"x_min":96,"x_max":749,"o":"m 277 643 l 277 8 l 96 0 l 96 1034 l 308 1042 l 576 422 l 576 1025 l 749 1042 l 749 8 l 582 -8 l 277 643 m 190 1220 q 233 1261 210 1243 q 275 1290 252 1277 q 321 1303 298 1303 q 370 1294 348 1303 q 411 1276 391 1286 q 450 1257 431 1265 q 491 1249 469 1249 q 536 1257 517 1249 q 568 1276 555 1265 q 592 1303 582 1288 l 622 1193 q 613 1177 622 1192 q 588 1143 604 1161 q 547 1109 571 1124 q 492 1095 523 1095 q 448 1105 468 1095 q 408 1129 428 1116 q 365 1152 387 1141 q 313 1163 342 1163 q 272 1153 292 1163 q 236 1129 252 1142 q 200 1095 217 1114 l 190 1220 z "},"Ò":{"ha":763,"x_min":58,"x_max":705,"o":"m 380 -22 q 264 1 314 -22 q 178 63 214 23 q 119 158 142 103 q 83 276 96 212 q 64 412 69 340 q 58 556 58 483 q 77 760 58 666 q 135 920 96 853 q 235 1022 174 986 q 380 1059 296 1059 q 527 1022 465 1059 q 628 920 588 986 q 686 760 667 853 q 705 556 705 666 q 699 412 705 483 q 680 276 694 340 q 643 158 666 212 q 583 63 619 103 q 497 1 547 23 q 380 -22 447 -22 m 380 151 q 445 179 421 151 q 482 260 469 208 q 498 388 494 313 q 501 556 501 463 q 500 624 501 589 q 495 698 499 660 q 483 772 491 736 q 462 836 475 808 q 428 880 448 863 q 380 897 408 897 q 333 880 353 897 q 300 836 313 863 q 279 772 287 808 q 267 698 271 736 q 262 624 263 660 q 261 556 261 589 q 264 388 261 463 q 280 260 268 313 q 316 179 292 208 q 380 151 340 151 m 441 1102 l 163 1337 l 317 1474 l 518 1171 l 441 1102 z "},"Ó":{"ha":763,"x_min":58,"x_max":705,"o":"m 380 -22 q 264 1 314 -22 q 178 63 214 23 q 119 158 142 103 q 83 276 96 212 q 64 412 69 340 q 58 556 58 483 q 77 760 58 666 q 135 920 96 853 q 235 1022 174 986 q 380 1059 296 1059 q 527 1022 465 1059 q 628 920 588 986 q 686 760 667 853 q 705 556 705 666 q 699 412 705 483 q 680 276 694 340 q 643 158 666 212 q 583 63 619 103 q 497 1 547 23 q 380 -22 447 -22 m 380 151 q 445 179 421 151 q 482 260 469 208 q 498 388 494 313 q 501 556 501 463 q 500 624 501 589 q 495 698 499 660 q 483 772 491 736 q 462 836 475 808 q 428 880 448 863 q 380 897 408 897 q 333 880 353 897 q 300 836 313 863 q 279 772 287 808 q 267 698 271 736 q 262 624 263 660 q 261 556 261 589 q 264 388 261 463 q 280 260 268 313 q 316 179 292 208 q 380 151 340 151 m 271 1173 l 473 1476 l 627 1339 l 348 1105 l 271 1173 z "},"Ô":{"ha":763,"x_min":58,"x_max":705,"o":"m 380 -22 q 264 1 314 -22 q 178 63 214 23 q 119 158 142 103 q 83 276 96 212 q 64 412 69 340 q 58 556 58 483 q 77 760 58 666 q 135 920 96 853 q 235 1022 174 986 q 380 1059 296 1059 q 527 1022 465 1059 q 628 920 588 986 q 686 760 667 853 q 705 556 705 666 q 699 412 705 483 q 680 276 694 340 q 643 158 666 212 q 583 63 619 103 q 497 1 547 23 q 380 -22 447 -22 m 380 151 q 445 179 421 151 q 482 260 469 208 q 498 388 494 313 q 501 556 501 463 q 500 624 501 589 q 495 698 499 660 q 483 772 491 736 q 462 836 475 808 q 428 880 448 863 q 380 897 408 897 q 333 880 353 897 q 300 836 313 863 q 279 772 287 808 q 267 698 271 736 q 262 624 263 660 q 261 556 261 589 q 264 388 261 463 q 280 260 268 313 q 316 179 292 208 q 380 151 340 151 m 153 1107 l 316 1432 l 453 1432 l 609 1107 l 439 1107 l 374 1303 l 296 1107 l 153 1107 z "},"Õ":{"ha":763,"x_min":58,"x_max":705,"o":"m 380 -22 q 264 1 314 -22 q 178 63 214 23 q 119 158 142 103 q 83 276 96 212 q 64 412 69 340 q 58 556 58 483 q 77 760 58 666 q 135 920 96 853 q 235 1022 174 986 q 380 1059 296 1059 q 527 1022 465 1059 q 628 920 588 986 q 686 760 667 853 q 705 556 705 666 q 699 412 705 483 q 680 276 694 340 q 643 158 666 212 q 583 63 619 103 q 497 1 547 23 q 380 -22 447 -22 m 380 151 q 445 179 421 151 q 482 260 469 208 q 498 388 494 313 q 501 556 501 463 q 500 624 501 589 q 495 698 499 660 q 483 772 491 736 q 462 836 475 808 q 428 880 448 863 q 380 897 408 897 q 333 880 353 897 q 300 836 313 863 q 279 772 287 808 q 267 698 271 736 q 262 624 263 660 q 261 556 261 589 q 264 388 261 463 q 280 260 268 313 q 316 179 292 208 q 380 151 340 151 m 165 1220 q 208 1261 185 1243 q 250 1290 227 1277 q 296 1303 273 1303 q 345 1294 323 1303 q 386 1276 366 1286 q 425 1257 406 1265 q 466 1249 444 1249 q 511 1257 492 1249 q 543 1276 530 1265 q 567 1303 557 1288 l 597 1193 q 588 1177 597 1192 q 563 1143 579 1161 q 522 1109 546 1124 q 467 1095 498 1095 q 423 1105 443 1095 q 382 1129 403 1116 q 340 1152 362 1141 q 288 1163 317 1163 q 247 1153 267 1163 q 211 1129 227 1142 q 175 1095 192 1114 l 165 1220 z "},"Ö":{"ha":763,"x_min":58,"x_max":705,"o":"m 380 -22 q 264 1 314 -22 q 178 63 214 23 q 119 158 142 103 q 83 276 96 212 q 64 412 69 340 q 58 556 58 483 q 77 760 58 666 q 135 920 96 853 q 235 1022 174 986 q 380 1059 296 1059 q 527 1022 465 1059 q 628 920 588 986 q 686 760 667 853 q 705 556 705 666 q 699 412 705 483 q 680 276 694 340 q 643 158 666 212 q 583 63 619 103 q 497 1 547 23 q 380 -22 447 -22 m 380 151 q 445 179 421 151 q 482 260 469 208 q 498 388 494 313 q 501 556 501 463 q 500 624 501 589 q 495 698 499 660 q 483 772 491 736 q 462 836 475 808 q 428 880 448 863 q 380 897 408 897 q 333 880 353 897 q 300 836 313 863 q 279 772 287 808 q 267 698 271 736 q 262 624 263 660 q 261 556 261 589 q 264 388 261 463 q 280 260 268 313 q 316 179 292 208 q 380 151 340 151 m 316 1302 l 316 1107 l 121 1107 l 121 1302 l 316 1302 m 642 1302 l 642 1107 l 446 1107 l 446 1302 l 642 1302 z "},"×":{"ha":581,"x_min":48,"x_max":533,"o":"m 290 488 l 417 616 l 531 501 l 404 374 l 533 245 l 418 131 l 290 260 l 163 133 l 48 247 l 176 374 l 50 499 l 165 614 l 290 488 z "},"Ø":{"ha":766,"x_min":20,"x_max":766,"o":"m 381 -22 q 297 -11 335 -22 q 229 20 260 0 q 175 68 199 39 q 133 131 151 96 l 84 72 l 20 134 l 96 227 q 67 384 75 300 q 59 556 59 467 q 78 764 59 671 q 136 924 96 858 q 236 1027 175 991 q 381 1063 296 1063 q 541 1019 475 1063 q 645 893 606 974 l 702 962 l 766 900 l 680 794 q 705 556 705 689 q 700 412 705 483 q 681 276 694 340 q 643 158 667 212 q 584 63 620 103 q 498 1 548 23 q 381 -22 448 -22 m 262 556 l 262 490 q 263 430 262 459 l 494 711 q 482 782 490 748 q 461 843 474 817 q 428 885 448 869 q 381 901 408 901 q 334 885 353 901 q 301 841 314 868 q 280 777 288 813 q 268 703 272 741 q 263 627 264 665 q 262 556 262 589 m 381 151 q 446 179 422 151 q 483 260 470 208 q 498 388 495 313 q 502 556 502 463 l 502 578 l 273 301 q 308 190 283 229 q 381 151 333 151 z "},"Ù":{"ha":789,"x_min":90,"x_max":699,"o":"m 90 1034 l 293 1042 l 293 327 q 295 264 293 296 q 308 208 297 233 q 342 167 319 183 q 407 151 365 151 q 468 168 446 151 q 499 210 489 184 q 511 267 509 235 q 513 329 513 298 l 513 1025 l 699 1042 l 699 367 q 698 297 699 337 q 688 213 696 256 q 661 128 680 170 q 606 52 642 85 q 515 -1 570 19 q 379 -22 460 -22 q 249 8 304 -22 q 159 87 195 37 q 106 203 123 137 q 90 343 90 270 l 90 1034 m 454 1102 l 176 1337 l 330 1474 l 532 1171 l 454 1102 z "},"Ú":{"ha":789,"x_min":90,"x_max":699,"o":"m 90 1034 l 293 1042 l 293 327 q 295 264 293 296 q 308 208 297 233 q 342 167 319 183 q 407 151 365 151 q 468 168 446 151 q 499 210 489 184 q 511 267 509 235 q 513 329 513 298 l 513 1025 l 699 1042 l 699 367 q 698 297 699 337 q 688 213 696 256 q 661 128 680 170 q 606 52 642 85 q 515 -1 570 19 q 379 -22 460 -22 q 249 8 304 -22 q 159 87 195 37 q 106 203 123 137 q 90 343 90 270 l 90 1034 m 285 1173 l 486 1476 l 640 1339 l 361 1105 l 285 1173 z "},"Û":{"ha":789,"x_min":90,"x_max":699,"o":"m 90 1034 l 293 1042 l 293 327 q 295 264 293 296 q 308 208 297 233 q 342 167 319 183 q 407 151 365 151 q 468 168 446 151 q 499 210 489 184 q 511 267 509 235 q 513 329 513 298 l 513 1025 l 699 1042 l 699 367 q 698 297 699 337 q 688 213 696 256 q 661 128 680 170 q 606 52 642 85 q 515 -1 570 19 q 379 -22 460 -22 q 249 8 304 -22 q 159 87 195 37 q 106 203 123 137 q 90 343 90 270 l 90 1034 m 167 1107 l 330 1432 l 467 1432 l 623 1107 l 453 1107 l 388 1303 l 309 1107 l 167 1107 z "},"Ü":{"ha":789,"x_min":90,"x_max":699,"o":"m 90 1034 l 293 1042 l 293 327 q 295 264 293 296 q 308 208 297 233 q 342 167 319 183 q 407 151 365 151 q 468 168 446 151 q 499 210 489 184 q 511 267 509 235 q 513 329 513 298 l 513 1025 l 699 1042 l 699 367 q 698 297 699 337 q 688 213 696 256 q 661 128 680 170 q 606 52 642 85 q 515 -1 570 19 q 379 -22 460 -22 q 249 8 304 -22 q 159 87 195 37 q 106 203 123 137 q 90 343 90 270 l 90 1034 m 330 1302 l 330 1107 l 134 1107 l 134 1302 l 330 1302 m 655 1302 l 655 1107 l 460 1107 l 460 1302 l 655 1302 z "},"Ý":{"ha":696,"x_min":-2,"x_max":695,"o":"m 249 412 l -2 1042 l 222 1042 l 365 608 l 519 1042 l 695 1042 l 454 436 l 454 8 l 249 -8 l 249 412 m 237 1173 l 438 1476 l 592 1339 l 313 1105 l 237 1173 z "},"Þ":{"ha":734,"x_min":95,"x_max":711,"o":"m 95 1042 l 300 1042 l 300 791 q 398 787 349 791 q 493 773 447 784 q 578 743 538 763 q 647 689 618 722 q 694 605 677 655 q 711 486 711 555 q 693 366 711 416 q 645 282 675 316 q 574 228 614 248 q 488 197 534 208 q 393 183 441 186 q 298 180 345 180 l 298 -46 l 95 -62 l 95 1042 m 334 331 q 401 337 370 331 q 456 361 433 344 q 494 409 480 378 q 508 487 508 439 q 496 563 508 534 q 461 608 484 592 q 405 630 438 624 q 329 635 372 635 l 300 635 l 300 331 l 334 331 z "},"ß":{"ha":793,"x_min":84,"x_max":764,"o":"m 84 0 l 84 716 q 107 874 84 808 q 169 982 130 940 q 256 1043 207 1024 q 359 1063 306 1063 q 491 1042 432 1063 q 592 985 551 1021 q 656 904 633 950 q 678 808 678 858 q 645 690 678 749 q 538 582 611 631 q 622 548 581 568 q 694 498 663 528 q 745 425 726 468 q 764 319 764 381 q 749 211 764 258 q 706 130 733 164 q 641 72 679 95 q 559 33 604 48 q 466 11 515 18 q 366 1 416 3 l 366 156 l 374 156 q 460 169 424 156 q 520 204 497 182 q 555 255 544 227 q 567 313 567 283 q 554 378 567 346 q 516 434 541 410 q 456 475 492 459 q 374 490 420 490 l 374 631 q 435 660 409 643 q 477 698 460 677 q 502 742 494 719 q 509 787 509 764 q 500 834 509 811 q 474 874 491 857 q 434 902 458 891 q 380 912 410 912 q 343 903 361 912 q 312 874 326 893 q 289 825 298 854 q 281 753 281 795 l 281 0 l 84 0 z "},"à":{"ha":656,"x_min":38,"x_max":598,"o":"m 38 222 q 54 319 38 277 q 97 391 70 361 q 159 441 123 421 q 232 474 194 462 q 309 493 271 487 q 382 502 348 500 q 381 555 382 529 q 375 602 380 581 q 358 635 370 623 q 326 648 347 648 q 295 641 308 648 q 274 620 283 633 q 261 592 266 608 q 255 560 257 576 l 65 593 q 98 690 73 652 q 160 751 124 728 q 240 782 197 773 q 326 791 283 791 q 439 773 392 791 q 517 722 487 754 q 563 645 548 689 q 577 551 577 602 l 577 147 q 580 100 577 124 q 587 55 583 75 q 598 8 592 31 l 408 -8 l 387 87 q 356 47 375 66 q 315 14 338 28 q 266 -9 292 -1 q 215 -18 240 -18 q 142 0 175 -18 q 86 50 110 18 q 51 126 63 82 q 38 222 38 170 m 229 224 q 248 150 229 178 q 307 121 267 121 q 333 129 320 121 q 357 144 347 136 q 382 168 370 155 l 382 385 q 321 377 349 385 q 273 350 294 369 q 241 300 252 331 q 229 224 229 269 m 386 842 l 108 1076 l 262 1213 l 463 910 l 386 842 z "},"á":{"ha":656,"x_min":38,"x_max":598,"o":"m 38 222 q 54 319 38 277 q 97 391 70 361 q 159 441 123 421 q 232 474 194 462 q 309 493 271 487 q 382 502 348 500 q 381 555 382 529 q 375 602 380 581 q 358 635 370 623 q 326 648 347 648 q 295 641 308 648 q 274 620 283 633 q 261 592 266 608 q 255 560 257 576 l 65 593 q 98 690 73 652 q 160 751 124 728 q 240 782 197 773 q 326 791 283 791 q 439 773 392 791 q 517 722 487 754 q 563 645 548 689 q 577 551 577 602 l 577 147 q 580 100 577 124 q 587 55 583 75 q 598 8 592 31 l 408 -8 l 387 87 q 356 47 375 66 q 315 14 338 28 q 266 -9 292 -1 q 215 -18 240 -18 q 142 0 175 -18 q 86 50 110 18 q 51 126 63 82 q 38 222 38 170 m 229 224 q 248 150 229 178 q 307 121 267 121 q 333 129 320 121 q 357 144 347 136 q 382 168 370 155 l 382 385 q 321 377 349 385 q 273 350 294 369 q 241 300 252 331 q 229 224 229 269 m 216 913 l 418 1216 l 572 1079 l 293 844 l 216 913 z "},"â":{"ha":656,"x_min":38,"x_max":598,"o":"m 38 222 q 54 319 38 277 q 97 391 70 361 q 159 441 123 421 q 232 474 194 462 q 309 493 271 487 q 382 502 348 500 q 381 555 382 529 q 375 602 380 581 q 358 635 370 623 q 326 648 347 648 q 295 641 308 648 q 274 620 283 633 q 261 592 266 608 q 255 560 257 576 l 65 593 q 98 690 73 652 q 160 751 124 728 q 240 782 197 773 q 326 791 283 791 q 439 773 392 791 q 517 722 487 754 q 563 645 548 689 q 577 551 577 602 l 577 147 q 580 100 577 124 q 587 55 583 75 q 598 8 592 31 l 408 -8 l 387 87 q 356 47 375 66 q 315 14 338 28 q 266 -9 292 -1 q 215 -18 240 -18 q 142 0 175 -18 q 86 50 110 18 q 51 126 63 82 q 38 222 38 170 m 229 224 q 248 150 229 178 q 307 121 267 121 q 333 129 320 121 q 357 144 347 136 q 382 168 370 155 l 382 385 q 321 377 349 385 q 273 350 294 369 q 241 300 252 331 q 229 224 229 269 m 98 846 l 261 1172 l 398 1172 l 554 846 l 385 846 l 319 1043 l 241 846 l 98 846 z "},"ã":{"ha":656,"x_min":38,"x_max":598,"o":"m 38 222 q 54 319 38 277 q 97 391 70 361 q 159 441 123 421 q 232 474 194 462 q 309 493 271 487 q 382 502 348 500 q 381 555 382 529 q 375 602 380 581 q 358 635 370 623 q 326 648 347 648 q 295 641 308 648 q 274 620 283 633 q 261 592 266 608 q 255 560 257 576 l 65 593 q 98 690 73 652 q 160 751 124 728 q 240 782 197 773 q 326 791 283 791 q 439 773 392 791 q 517 722 487 754 q 563 645 548 689 q 577 551 577 602 l 577 147 q 580 100 577 124 q 587 55 583 75 q 598 8 592 31 l 408 -8 l 387 87 q 356 47 375 66 q 315 14 338 28 q 266 -9 292 -1 q 215 -18 240 -18 q 142 0 175 -18 q 86 50 110 18 q 51 126 63 82 q 38 222 38 170 m 229 224 q 248 150 229 178 q 307 121 267 121 q 333 129 320 121 q 357 144 347 136 q 382 168 370 155 l 382 385 q 321 377 349 385 q 273 350 294 369 q 241 300 252 331 q 229 224 229 269 m 111 960 q 153 1001 131 983 q 195 1029 172 1017 q 241 1042 218 1042 q 290 1034 269 1042 q 332 1015 312 1025 q 371 997 352 1005 q 412 988 390 988 q 457 997 437 988 q 488 1015 476 1005 q 513 1042 503 1027 l 543 932 q 534 916 543 932 q 508 882 525 901 q 468 849 492 864 q 413 834 444 834 q 369 845 389 834 q 328 868 349 856 q 286 892 308 881 q 234 903 263 903 q 193 892 213 903 q 157 869 172 882 q 121 835 138 854 l 111 960 z "},"ä":{"ha":656,"x_min":38,"x_max":598,"o":"m 38 222 q 54 319 38 277 q 97 391 70 361 q 159 441 123 421 q 232 474 194 462 q 309 493 271 487 q 382 502 348 500 q 381 555 382 529 q 375 602 380 581 q 358 635 370 623 q 326 648 347 648 q 295 641 308 648 q 274 620 283 633 q 261 592 266 608 q 255 560 257 576 l 65 593 q 98 690 73 652 q 160 751 124 728 q 240 782 197 773 q 326 791 283 791 q 439 773 392 791 q 517 722 487 754 q 563 645 548 689 q 577 551 577 602 l 577 147 q 580 100 577 124 q 587 55 583 75 q 598 8 592 31 l 408 -8 l 387 87 q 356 47 375 66 q 315 14 338 28 q 266 -9 292 -1 q 215 -18 240 -18 q 142 0 175 -18 q 86 50 110 18 q 51 126 63 82 q 38 222 38 170 m 229 224 q 248 150 229 178 q 307 121 267 121 q 333 129 320 121 q 357 144 347 136 q 382 168 370 155 l 382 385 q 321 377 349 385 q 273 350 294 369 q 241 300 252 331 q 229 224 229 269 m 264 1042 l 264 846 l 68 846 l 68 1042 l 264 1042 m 589 1042 l 589 846 l 394 846 l 394 1042 l 589 1042 z "},"å":{"ha":656,"x_min":38,"x_max":598,"o":"m 38 222 q 54 319 38 277 q 97 391 70 361 q 159 441 123 421 q 232 474 194 462 q 309 493 271 487 q 382 502 348 500 q 381 555 382 529 q 375 602 380 581 q 358 635 370 623 q 326 648 347 648 q 295 641 308 648 q 274 620 283 633 q 261 592 266 608 q 255 560 257 576 l 65 593 q 98 690 73 652 q 160 751 124 728 q 240 782 197 773 q 326 791 283 791 q 439 773 392 791 q 517 722 487 754 q 563 645 548 689 q 577 551 577 602 l 577 147 q 580 100 577 124 q 587 55 583 75 q 598 8 592 31 l 408 -8 l 387 87 q 356 47 375 66 q 315 14 338 28 q 266 -9 292 -1 q 215 -18 240 -18 q 142 0 175 -18 q 86 50 110 18 q 51 126 63 82 q 38 222 38 170 m 229 224 q 248 150 229 178 q 307 121 267 121 q 333 129 320 121 q 357 144 347 136 q 382 168 370 155 l 382 385 q 321 377 349 385 q 273 350 294 369 q 241 300 252 331 q 229 224 229 269 m 327 846 q 249 858 287 846 q 181 892 211 869 q 133 950 151 915 q 115 1031 115 985 q 133 1112 115 1078 q 181 1170 151 1147 q 249 1204 211 1192 q 327 1215 287 1215 q 404 1204 366 1215 q 472 1170 442 1192 q 520 1112 502 1147 q 538 1031 538 1078 q 520 950 538 985 q 472 892 502 915 q 404 858 442 869 q 327 846 366 846 m 326 954 q 357 959 342 954 q 384 974 372 964 q 403 998 395 983 q 410 1031 410 1012 q 403 1063 410 1049 q 384 1086 395 1077 q 357 1101 372 1096 q 327 1106 342 1106 q 296 1101 311 1106 q 269 1086 281 1096 q 250 1063 257 1077 q 243 1031 243 1049 q 250 998 243 1012 q 269 974 257 983 q 296 959 281 964 q 326 954 311 954 z "},"æ":{"ha":988,"x_min":37,"x_max":954,"o":"m 576 363 q 581 285 576 327 q 596 208 585 243 q 626 149 608 172 q 671 125 644 125 q 713 144 694 125 q 746 185 732 162 q 769 229 760 208 q 779 253 777 249 l 927 197 q 891 110 913 149 q 837 42 869 71 q 763 -2 805 14 q 667 -18 721 -18 q 563 12 608 -18 q 484 98 517 43 q 439 41 466 64 q 381 6 412 19 q 315 -13 349 -7 q 248 -18 281 -18 q 161 0 200 -18 q 95 50 122 18 q 52 126 67 82 q 37 222 37 170 q 53 319 37 277 q 95 391 68 361 q 157 441 122 421 q 231 474 193 462 q 308 493 269 487 q 380 502 347 500 q 380 555 380 529 q 374 602 379 581 q 357 635 368 623 q 324 648 345 648 q 294 641 307 648 q 273 620 281 633 q 260 592 264 608 q 254 560 256 576 l 64 593 q 97 690 71 652 q 159 751 123 728 q 238 782 195 773 q 324 791 281 791 q 421 767 380 791 q 490 700 462 743 q 572 767 527 743 q 674 791 618 791 q 796 762 744 791 q 884 679 848 732 q 937 551 919 625 q 954 387 954 476 l 951 377 q 949 369 950 373 q 949 363 949 366 l 576 363 m 228 224 q 247 150 228 178 q 305 121 265 121 q 335 134 321 121 q 359 166 349 146 q 375 211 370 186 q 380 259 380 235 l 380 385 q 320 377 348 385 q 272 350 292 369 q 239 300 251 331 q 228 224 228 269 m 762 476 q 757 548 762 515 q 741 605 752 581 q 713 643 730 629 q 671 657 696 657 q 636 644 653 657 q 607 608 620 631 q 585 553 593 585 q 576 484 576 521 l 576 476 l 762 476 z "},"ç":{"ha":621,"x_min":47,"x_max":580,"o":"m 575 275 q 552 156 567 210 q 508 64 536 102 q 436 3 480 25 q 326 -18 392 -18 q 241 -3 279 -18 q 171 40 202 12 q 117 105 140 67 q 78 188 94 143 q 55 282 62 233 q 47 384 47 332 q 63 532 47 459 q 115 663 80 605 q 203 756 149 720 q 330 791 256 791 q 429 771 384 791 q 507 713 474 751 q 559 625 540 676 q 580 511 578 573 l 395 503 q 390 543 393 520 q 380 587 387 566 q 361 622 374 608 q 328 637 349 637 q 292 623 307 637 q 268 588 277 610 q 253 538 258 566 q 246 483 248 511 q 243 431 243 456 q 243 391 243 407 q 243 350 243 374 q 246 298 243 326 q 254 244 249 271 q 270 195 260 217 q 296 160 280 174 q 334 146 311 146 q 359 153 349 146 q 378 170 370 159 q 392 193 387 180 q 402 220 398 206 q 412 293 411 252 l 575 275 m 267 33 l 370 33 l 350 -52 q 419 -81 391 -63 q 465 -117 447 -98 q 492 -156 482 -136 q 505 -191 501 -175 q 510 -217 509 -207 q 510 -230 510 -228 q 498 -298 510 -271 q 465 -344 486 -326 q 418 -369 445 -361 q 363 -377 392 -377 q 278 -365 319 -377 q 208 -334 236 -353 l 208 -222 q 261 -241 237 -235 q 305 -246 286 -246 q 355 -231 340 -246 q 370 -196 370 -216 q 363 -168 370 -182 q 339 -142 355 -154 q 299 -123 323 -131 q 240 -116 275 -116 l 267 33 z "},"è":{"ha":654,"x_min":47,"x_max":621,"o":"m 242 363 q 247 285 242 327 q 263 208 252 243 q 292 149 274 172 q 337 125 311 125 q 379 144 360 125 q 412 185 398 162 q 435 229 427 208 q 446 253 444 249 l 593 197 q 557 110 580 149 q 503 42 535 71 q 429 -2 471 14 q 334 -18 387 -18 q 209 12 262 -18 q 119 95 155 41 q 65 223 83 149 q 47 387 47 298 q 66 551 47 476 q 121 679 84 625 q 212 762 157 732 q 340 791 267 791 q 463 762 410 791 q 550 679 515 732 q 603 551 585 625 q 621 387 621 476 l 618 377 q 616 369 616 373 q 615 363 615 366 l 242 363 m 429 476 q 424 548 429 515 q 408 605 418 581 q 379 643 397 629 q 337 657 362 657 q 302 643 319 657 q 272 605 285 629 q 250 548 258 581 q 242 476 242 515 l 429 476 m 385 842 l 107 1076 l 261 1213 l 463 910 l 385 842 z "},"é":{"ha":654,"x_min":47,"x_max":621,"o":"m 242 363 q 247 285 242 327 q 263 208 252 243 q 292 149 274 172 q 337 125 311 125 q 379 144 360 125 q 412 185 398 162 q 435 229 427 208 q 446 253 444 249 l 593 197 q 557 110 580 149 q 503 42 535 71 q 429 -2 471 14 q 334 -18 387 -18 q 209 12 262 -18 q 119 95 155 41 q 65 223 83 149 q 47 387 47 298 q 66 551 47 476 q 121 679 84 625 q 212 762 157 732 q 340 791 267 791 q 463 762 410 791 q 550 679 515 732 q 603 551 585 625 q 621 387 621 476 l 618 377 q 616 369 616 373 q 615 363 615 366 l 242 363 m 429 476 q 424 548 429 515 q 408 605 418 581 q 379 643 397 629 q 337 657 362 657 q 302 643 319 657 q 272 605 285 629 q 250 548 258 581 q 242 476 242 515 l 429 476 m 216 913 l 417 1216 l 571 1079 l 292 844 l 216 913 z "},"ê":{"ha":654,"x_min":47,"x_max":621,"o":"m 242 363 q 247 285 242 327 q 263 208 252 243 q 292 149 274 172 q 337 125 311 125 q 379 144 360 125 q 412 185 398 162 q 435 229 427 208 q 446 253 444 249 l 593 197 q 557 110 580 149 q 503 42 535 71 q 429 -2 471 14 q 334 -18 387 -18 q 209 12 262 -18 q 119 95 155 41 q 65 223 83 149 q 47 387 47 298 q 66 551 47 476 q 121 679 84 625 q 212 762 157 732 q 340 791 267 791 q 463 762 410 791 q 550 679 515 732 q 603 551 585 625 q 621 387 621 476 l 618 377 q 616 369 616 373 q 615 363 615 366 l 242 363 m 429 476 q 424 548 429 515 q 408 605 418 581 q 379 643 397 629 q 337 657 362 657 q 302 643 319 657 q 272 605 285 629 q 250 548 258 581 q 242 476 242 515 l 429 476 m 98 846 l 260 1172 l 397 1172 l 553 846 l 384 846 l 319 1043 l 240 846 l 98 846 z "},"ë":{"ha":654,"x_min":47,"x_max":621,"o":"m 242 363 q 247 285 242 327 q 263 208 252 243 q 292 149 274 172 q 337 125 311 125 q 379 144 360 125 q 412 185 398 162 q 435 229 427 208 q 446 253 444 249 l 593 197 q 557 110 580 149 q 503 42 535 71 q 429 -2 471 14 q 334 -18 387 -18 q 209 12 262 -18 q 119 95 155 41 q 65 223 83 149 q 47 387 47 298 q 66 551 47 476 q 121 679 84 625 q 212 762 157 732 q 340 791 267 791 q 463 762 410 791 q 550 679 515 732 q 603 551 585 625 q 621 387 621 476 l 618 377 q 616 369 616 373 q 615 363 615 366 l 242 363 m 429 476 q 424 548 429 515 q 408 605 418 581 q 379 643 397 629 q 337 657 362 657 q 302 643 319 657 q 272 605 285 629 q 250 548 258 581 q 242 476 242 515 l 429 476 m 262 1042 l 262 846 l 67 846 l 67 1042 l 262 1042 m 588 1042 l 588 846 l 393 846 l 393 1042 l 588 1042 z "},"ì":{"ha":363,"x_min":-37,"x_max":318,"o":"m 84 765 l 279 781 l 279 8 l 84 -8 l 84 765 m 241 842 l -37 1076 l 117 1213 l 318 910 l 241 842 z "},"í":{"ha":363,"x_min":72,"x_max":427,"o":"m 84 765 l 279 781 l 279 8 l 84 -8 l 84 765 m 72 913 l 273 1216 l 427 1079 l 149 844 l 72 913 z "},"î":{"ha":363,"x_min":-46,"x_max":410,"o":"m 84 765 l 279 781 l 279 8 l 84 -8 l 84 765 m -46 846 l 117 1172 l 254 1172 l 410 846 l 240 846 l 175 1043 l 96 846 l -46 846 z "},"ï":{"ha":363,"x_min":-79,"x_max":442,"o":"m 84 765 l 279 781 l 279 8 l 84 -8 l 84 765 m 117 1042 l 117 846 l -79 846 l -79 1042 l 117 1042 m 442 1042 l 442 846 l 247 846 l 247 1042 l 442 1042 z "},"ð":{"ha":682,"x_min":-5,"x_max":683,"o":"m 223 815 l 367 859 q 330 896 351 882 q 269 913 304 913 q 213 903 242 913 q 156 879 183 893 q 105 848 128 864 q 68 819 82 831 l -5 945 q 76 1005 39 982 q 149 1042 113 1029 q 221 1059 184 1055 q 304 1063 258 1063 q 407 1039 361 1063 q 488 974 453 1015 q 532 910 513 945 l 640 943 l 683 821 l 583 789 q 590 765 587 777 q 614 643 606 705 q 621 525 621 581 q 616 396 621 461 q 600 270 612 330 q 566 156 587 209 q 511 63 544 102 q 430 1 477 24 q 319 -22 383 -22 q 201 6 255 -22 q 110 80 148 34 q 50 185 71 125 q 29 307 29 244 q 45 429 29 370 q 92 534 62 488 q 165 607 122 580 q 262 635 208 635 q 348 620 304 635 q 422 581 391 604 q 420 645 422 609 q 414 717 419 680 q 410 736 412 727 l 267 692 l 223 815 m 422 412 q 422 420 422 416 q 422 429 422 425 q 421 440 421 435 q 394 454 408 448 q 366 465 382 460 q 331 469 349 469 q 281 455 301 469 q 248 416 260 440 q 231 363 236 393 q 225 303 225 333 q 230 255 225 281 q 245 207 234 229 q 277 171 257 185 q 328 156 297 156 q 370 169 353 156 q 398 203 387 182 q 413 252 408 224 q 420 308 418 279 q 422 363 422 336 l 422 412 z "},"ñ":{"ha":749,"x_min":84,"x_max":670,"o":"m 475 522 q 455 602 475 579 q 404 625 435 625 q 346 608 378 625 q 279 571 313 591 l 279 8 l 84 -8 l 84 765 l 279 781 l 279 682 q 395 762 338 732 q 503 791 453 791 q 570 778 540 791 q 623 738 601 764 q 657 676 645 713 q 670 594 670 640 l 670 8 l 475 -8 l 475 522 m 155 960 q 197 1001 175 983 q 239 1029 216 1017 q 286 1042 262 1042 q 334 1034 313 1042 q 376 1015 356 1025 q 415 997 396 1005 q 456 988 434 988 q 501 997 481 988 q 532 1015 520 1005 q 557 1042 547 1027 l 587 932 q 578 916 587 932 q 552 882 569 901 q 512 849 536 864 q 457 834 488 834 q 413 845 433 834 q 372 868 393 856 q 330 892 352 881 q 278 903 307 903 q 237 892 257 903 q 201 869 216 882 q 165 835 182 854 l 155 960 z "},"ò":{"ha":680,"x_min":47,"x_max":633,"o":"m 340 -18 q 212 12 267 -18 q 121 96 157 42 q 66 225 84 150 q 47 391 47 300 q 66 552 47 479 q 121 679 84 626 q 212 762 157 732 q 340 791 267 791 q 467 762 412 791 q 558 679 522 732 q 614 552 595 626 q 633 391 633 479 q 614 225 633 300 q 558 96 595 150 q 467 12 522 42 q 340 -18 412 -18 m 339 127 q 380 140 363 127 q 408 174 397 153 q 425 223 418 195 q 433 280 431 250 q 437 338 436 309 q 437 391 437 367 q 437 444 437 415 q 433 501 436 472 q 425 558 431 530 q 408 607 418 585 q 380 641 397 628 q 340 654 363 654 q 299 641 315 654 q 271 607 282 628 q 255 558 260 585 q 246 501 249 530 q 243 444 243 472 q 243 391 243 415 q 243 338 243 367 q 246 280 243 309 q 255 223 249 250 q 271 174 260 195 q 298 140 281 153 q 339 127 315 127 m 399 842 l 121 1076 l 275 1213 l 477 910 l 399 842 z "},"ó":{"ha":680,"x_min":47,"x_max":633,"o":"m 340 -18 q 212 12 267 -18 q 121 96 157 42 q 66 225 84 150 q 47 391 47 300 q 66 552 47 479 q 121 679 84 626 q 212 762 157 732 q 340 791 267 791 q 467 762 412 791 q 558 679 522 732 q 614 552 595 626 q 633 391 633 479 q 614 225 633 300 q 558 96 595 150 q 467 12 522 42 q 340 -18 412 -18 m 339 127 q 380 140 363 127 q 408 174 397 153 q 425 223 418 195 q 433 280 431 250 q 437 338 436 309 q 437 391 437 367 q 437 444 437 415 q 433 501 436 472 q 425 558 431 530 q 408 607 418 585 q 380 641 397 628 q 340 654 363 654 q 299 641 315 654 q 271 607 282 628 q 255 558 260 585 q 246 501 249 530 q 243 444 243 472 q 243 391 243 415 q 243 338 243 367 q 246 280 243 309 q 255 223 249 250 q 271 174 260 195 q 298 140 281 153 q 339 127 315 127 m 230 913 l 431 1216 l 585 1079 l 307 844 l 230 913 z "},"ô":{"ha":680,"x_min":47,"x_max":633,"o":"m 340 -18 q 212 12 267 -18 q 121 96 157 42 q 66 225 84 150 q 47 391 47 300 q 66 552 47 479 q 121 679 84 626 q 212 762 157 732 q 340 791 267 791 q 467 762 412 791 q 558 679 522 732 q 614 552 595 626 q 633 391 633 479 q 614 225 633 300 q 558 96 595 150 q 467 12 522 42 q 340 -18 412 -18 m 339 127 q 380 140 363 127 q 408 174 397 153 q 425 223 418 195 q 433 280 431 250 q 437 338 436 309 q 437 391 437 367 q 437 444 437 415 q 433 501 436 472 q 425 558 431 530 q 408 607 418 585 q 380 641 397 628 q 340 654 363 654 q 299 641 315 654 q 271 607 282 628 q 255 558 260 585 q 246 501 249 530 q 243 444 243 472 q 243 391 243 415 q 243 338 243 367 q 246 280 243 309 q 255 223 249 250 q 271 174 260 195 q 298 140 281 153 q 339 127 315 127 m 112 846 l 275 1172 l 412 1172 l 568 846 l 398 846 l 333 1043 l 254 846 l 112 846 z "},"õ":{"ha":680,"x_min":47,"x_max":633,"o":"m 340 -18 q 212 12 267 -18 q 121 96 157 42 q 66 225 84 150 q 47 391 47 300 q 66 552 47 479 q 121 679 84 626 q 212 762 157 732 q 340 791 267 791 q 467 762 412 791 q 558 679 522 732 q 614 552 595 626 q 633 391 633 479 q 614 225 633 300 q 558 96 595 150 q 467 12 522 42 q 340 -18 412 -18 m 339 127 q 380 140 363 127 q 408 174 397 153 q 425 223 418 195 q 433 280 431 250 q 437 338 436 309 q 437 391 437 367 q 437 444 437 415 q 433 501 436 472 q 425 558 431 530 q 408 607 418 585 q 380 641 397 628 q 340 654 363 654 q 299 641 315 654 q 271 607 282 628 q 255 558 260 585 q 246 501 249 530 q 243 444 243 472 q 243 391 243 415 q 243 338 243 367 q 246 280 243 309 q 255 223 249 250 q 271 174 260 195 q 298 140 281 153 q 339 127 315 127 m 123 960 q 166 1001 144 983 q 208 1029 185 1017 q 254 1042 231 1042 q 303 1034 281 1042 q 345 1015 325 1025 q 384 997 365 1005 q 425 988 403 988 q 470 997 450 988 q 501 1015 489 1005 q 526 1042 515 1027 l 555 932 q 547 916 555 932 q 521 882 538 901 q 480 849 505 864 q 426 834 456 834 q 381 845 401 834 q 341 868 361 856 q 298 892 321 881 q 247 903 276 903 q 205 892 226 903 q 170 869 185 882 q 134 835 151 854 l 123 960 z "},"ö":{"ha":680,"x_min":47,"x_max":633,"o":"m 340 -18 q 212 12 267 -18 q 121 96 157 42 q 66 225 84 150 q 47 391 47 300 q 66 552 47 479 q 121 679 84 626 q 212 762 157 732 q 340 791 267 791 q 467 762 412 791 q 558 679 522 732 q 614 552 595 626 q 633 391 633 479 q 614 225 633 300 q 558 96 595 150 q 467 12 522 42 q 340 -18 412 -18 m 339 127 q 380 140 363 127 q 408 174 397 153 q 425 223 418 195 q 433 280 431 250 q 437 338 436 309 q 437 391 437 367 q 437 444 437 415 q 433 501 436 472 q 425 558 431 530 q 408 607 418 585 q 380 641 397 628 q 340 654 363 654 q 299 641 315 654 q 271 607 282 628 q 255 558 260 585 q 246 501 249 530 q 243 444 243 472 q 243 391 243 415 q 243 338 243 367 q 246 280 243 309 q 255 223 249 250 q 271 174 260 195 q 298 140 281 153 q 339 127 315 127 m 277 1042 l 277 846 l 81 846 l 81 1042 l 277 1042 m 602 1042 l 602 846 l 407 846 l 407 1042 l 602 1042 z "},"÷":{"ha":541,"x_min":43,"x_max":498,"o":"m 369 195 l 369 0 l 174 -8 l 174 195 l 369 195 m 369 651 l 369 456 l 174 456 l 174 651 l 369 651 m 43 391 l 498 391 l 498 260 l 43 260 l 43 391 z "},"ø":{"ha":682,"x_min":37,"x_max":667,"o":"m 340 -18 q 234 1 281 -18 q 151 58 187 21 l 90 -21 l 37 25 l 109 115 q 63 238 78 168 q 47 391 47 308 q 66 552 47 479 q 121 679 84 626 q 212 762 157 732 q 340 791 267 791 q 465 763 411 791 q 555 683 518 734 l 614 758 l 667 711 l 592 617 q 633 391 633 522 q 614 225 633 300 q 558 96 595 150 q 467 12 522 42 q 340 -18 412 -18 m 243 391 q 243 342 243 369 q 245 289 243 316 l 431 524 q 420 573 427 550 q 403 615 414 597 q 377 643 393 633 q 340 654 361 654 q 299 641 315 654 q 271 607 282 628 q 255 558 260 585 q 246 501 249 530 q 243 444 243 472 q 243 391 243 415 m 339 127 q 380 140 363 127 q 408 174 397 153 q 425 223 418 195 q 433 280 431 250 q 437 338 436 309 q 437 391 437 367 l 437 420 l 261 197 q 290 146 271 166 q 339 127 309 127 z "},"ù":{"ha":749,"x_min":79,"x_max":665,"o":"m 274 258 q 292 178 274 201 q 338 155 309 155 q 367 160 352 155 q 399 174 382 165 q 434 193 416 182 q 469 216 452 204 l 469 765 l 665 781 l 665 8 l 469 -8 l 469 92 q 357 11 412 41 q 252 -18 301 -18 q 182 -4 214 -18 q 127 35 151 9 q 92 97 104 60 q 79 179 79 134 l 79 765 l 274 781 l 274 258 m 433 842 l 155 1076 l 309 1213 l 511 910 l 433 842 z "},"ú":{"ha":749,"x_min":79,"x_max":665,"o":"m 274 258 q 292 178 274 201 q 338 155 309 155 q 367 160 352 155 q 399 174 382 165 q 434 193 416 182 q 469 216 452 204 l 469 765 l 665 781 l 665 8 l 469 -8 l 469 92 q 357 11 412 41 q 252 -18 301 -18 q 182 -4 214 -18 q 127 35 151 9 q 92 97 104 60 q 79 179 79 134 l 79 765 l 274 781 l 274 258 m 264 913 l 465 1216 l 619 1079 l 340 844 l 264 913 z "},"û":{"ha":749,"x_min":79,"x_max":665,"o":"m 274 258 q 292 178 274 201 q 338 155 309 155 q 367 160 352 155 q 399 174 382 165 q 434 193 416 182 q 469 216 452 204 l 469 765 l 665 781 l 665 8 l 469 -8 l 469 92 q 357 11 412 41 q 252 -18 301 -18 q 182 -4 214 -18 q 127 35 151 9 q 92 97 104 60 q 79 179 79 134 l 79 765 l 274 781 l 274 258 m 146 846 l 309 1172 l 446 1172 l 602 846 l 432 846 l 367 1043 l 288 846 l 146 846 z "},"ü":{"ha":749,"x_min":79,"x_max":665,"o":"m 274 258 q 292 178 274 201 q 338 155 309 155 q 367 160 352 155 q 399 174 382 165 q 434 193 416 182 q 469 216 452 204 l 469 765 l 665 781 l 665 8 l 469 -8 l 469 92 q 357 11 412 41 q 252 -18 301 -18 q 182 -4 214 -18 q 127 35 151 9 q 92 97 104 60 q 79 179 79 134 l 79 765 l 274 781 l 274 258 m 309 1042 l 309 846 l 113 846 l 113 1042 l 309 1042 m 634 1042 l 634 846 l 439 846 l 439 1042 l 634 1042 z "},"ý":{"ha":611,"x_min":1,"x_max":603,"o":"m 20 -77 q 54 -78 38 -77 q 81 -79 68 -79 q 101 -79 95 -79 q 158 -71 135 -79 q 197 -48 182 -63 q 218 -12 212 -33 q 224 35 224 9 l 224 73 l 1 772 l 213 781 l 323 292 l 427 777 l 603 779 l 403 14 q 342 -123 378 -71 q 266 -202 307 -175 q 183 -239 225 -230 q 102 -248 140 -248 q 73 -246 88 -248 q 47 -243 58 -245 q 20 -239 33 -241 l 20 -77 m 153 913 l 355 1216 l 509 1079 l 230 844 l 153 913 z "},"þ":{"ha":724,"x_min":84,"x_max":671,"o":"m 84 -243 l 84 1017 l 279 1042 l 279 682 q 327 726 302 706 q 378 761 352 747 q 430 783 404 775 q 481 791 456 791 q 555 770 520 791 q 615 702 589 749 q 656 578 641 655 q 671 391 671 502 q 656 208 671 285 q 613 80 642 131 q 542 6 584 30 q 447 -18 500 -18 q 398 -14 420 -18 q 360 -1 377 -9 q 331 18 343 7 q 309 39 318 28 q 279 98 288 65 l 280 -243 l 84 -243 m 279 326 q 288 225 279 264 q 309 162 296 185 q 340 131 323 140 q 374 121 357 121 q 431 143 410 121 q 461 202 451 165 q 474 288 471 239 q 476 391 476 336 q 474 483 476 440 q 466 557 473 526 q 446 607 460 589 q 408 625 433 625 q 368 617 391 625 q 326 598 346 608 q 279 572 303 586 l 279 326 z "},"ÿ":{"ha":611,"x_min":1,"x_max":603,"o":"m 20 -77 q 54 -78 38 -77 q 81 -79 68 -79 q 101 -79 95 -79 q 158 -71 135 -79 q 197 -48 182 -63 q 218 -12 212 -33 q 224 35 224 9 l 224 73 l 1 772 l 213 781 l 323 292 l 427 777 l 603 779 l 403 14 q 342 -123 378 -71 q 266 -202 307 -175 q 183 -239 225 -230 q 102 -248 140 -248 q 73 -246 88 -248 q 47 -243 58 -245 q 20 -239 33 -241 l 20 -77 m 250 1042 l 250 846 l 55 846 l 55 1042 l 250 1042 m 576 1042 l 576 846 l 380 846 l 380 1042 l 576 1042 z "},"Ā":{"ha":767,"x_min":17,"x_max":751,"o":"m 243 223 l 198 0 l 17 0 l 237 1029 l 526 1042 l 751 8 l 530 0 l 491 223 l 243 223 m 454 390 l 359 888 l 280 390 l 454 390 m 189 1237 l 580 1237 l 580 1107 l 189 1107 l 189 1237 z "},"ā":{"ha":656,"x_min":38,"x_max":598,"o":"m 38 222 q 54 319 38 277 q 97 391 70 361 q 159 441 123 421 q 232 474 194 462 q 309 493 271 487 q 382 502 348 500 q 381 555 382 529 q 375 602 380 581 q 358 635 370 623 q 326 648 347 648 q 295 641 308 648 q 274 620 283 633 q 261 592 266 608 q 255 560 257 576 l 65 593 q 98 690 73 652 q 160 751 124 728 q 240 782 197 773 q 326 791 283 791 q 439 773 392 791 q 517 722 487 754 q 563 645 548 689 q 577 551 577 602 l 577 147 q 580 100 577 124 q 587 55 583 75 q 598 8 592 31 l 408 -8 l 387 87 q 356 47 375 66 q 315 14 338 28 q 266 -9 292 -1 q 215 -18 240 -18 q 142 0 175 -18 q 86 50 110 18 q 51 126 63 82 q 38 222 38 170 m 229 224 q 248 150 229 178 q 307 121 267 121 q 333 129 320 121 q 357 144 347 136 q 382 168 370 155 l 382 385 q 321 377 349 385 q 273 350 294 369 q 241 300 252 331 q 229 224 229 269 m 131 977 l 522 977 l 522 846 l 131 846 l 131 977 z "},"Ă":{"ha":767,"x_min":17,"x_max":751,"o":"m 243 223 l 198 0 l 17 0 l 237 1029 l 526 1042 l 751 8 l 530 0 l 491 223 l 243 223 m 454 390 l 359 888 l 280 390 l 454 390 m 254 1432 q 256 1379 254 1408 q 271 1326 258 1351 q 309 1286 283 1302 q 385 1270 336 1270 q 460 1286 433 1270 q 498 1326 486 1302 q 513 1379 511 1351 q 515 1432 515 1408 l 677 1432 q 672 1365 677 1401 q 652 1293 666 1329 q 616 1223 639 1257 q 562 1164 594 1190 q 485 1122 529 1138 q 385 1107 441 1107 q 284 1122 328 1107 q 208 1164 240 1138 q 153 1223 175 1190 q 117 1293 130 1257 q 97 1365 103 1329 q 92 1432 92 1401 l 254 1432 z "},"ă":{"ha":656,"x_min":36,"x_max":622,"o":"m 38 222 q 54 319 38 277 q 97 391 70 361 q 159 441 123 421 q 232 474 194 462 q 309 493 271 487 q 382 502 348 500 q 381 555 382 529 q 375 602 380 581 q 358 635 370 623 q 326 648 347 648 q 295 641 308 648 q 274 620 283 633 q 261 592 266 608 q 255 560 257 576 l 65 593 q 98 690 73 652 q 160 751 124 728 q 240 782 197 773 q 326 791 283 791 q 439 773 392 791 q 517 722 487 754 q 563 645 548 689 q 577 551 577 602 l 577 147 q 580 100 577 124 q 587 55 583 75 q 598 8 592 31 l 408 -8 l 387 87 q 356 47 375 66 q 315 14 338 28 q 266 -9 292 -1 q 215 -18 240 -18 q 142 0 175 -18 q 86 50 110 18 q 51 126 63 82 q 38 222 38 170 m 229 224 q 248 150 229 178 q 307 121 267 121 q 333 129 320 121 q 357 144 347 136 q 382 168 370 155 l 382 385 q 321 377 349 385 q 273 350 294 369 q 241 300 252 331 q 229 224 229 269 m 199 1172 q 201 1119 199 1147 q 215 1066 203 1090 q 254 1025 227 1042 q 329 1009 280 1009 q 404 1025 378 1009 q 443 1066 431 1042 q 457 1119 455 1090 q 459 1172 459 1147 l 622 1172 q 616 1105 622 1141 q 597 1033 610 1069 q 561 963 583 996 q 506 903 538 929 q 430 862 473 878 q 329 846 386 846 q 228 862 272 846 q 152 903 184 878 q 97 963 119 929 q 61 1033 75 996 q 42 1105 47 1069 q 36 1172 36 1141 l 199 1172 z "},"Ą":{"ha":765,"x_min":17,"x_max":819,"o":"m 243 223 l 198 0 l 17 0 l 237 1029 l 526 1042 l 751 8 l 530 0 l 491 223 l 243 223 m 454 390 l 359 888 l 280 390 l 454 390 m 668 -68 q 665 -88 665 -81 q 680 -121 665 -112 q 718 -130 696 -130 q 747 -127 732 -130 q 775 -121 762 -125 q 800 -113 789 -117 q 819 -106 812 -109 l 819 -218 q 763 -250 800 -239 q 685 -261 726 -261 q 626 -255 655 -261 q 575 -234 597 -248 q 539 -199 553 -220 q 525 -148 525 -178 q 528 -125 525 -137 q 536 -100 531 -114 l 578 14 l 688 14 l 668 -68 z "},"ą":{"ha":656,"x_min":38,"x_max":656,"o":"m 38 222 q 54 319 38 277 q 97 391 70 361 q 159 441 123 421 q 232 474 194 462 q 309 493 271 487 q 382 502 348 500 q 381 555 382 529 q 375 602 380 581 q 358 635 370 623 q 326 648 347 648 q 295 641 308 648 q 274 620 283 633 q 261 592 266 608 q 255 560 257 576 l 65 593 q 98 690 73 652 q 160 751 124 728 q 240 782 197 773 q 326 791 283 791 q 439 773 392 791 q 517 722 487 754 q 563 645 548 689 q 577 551 577 602 l 577 147 q 580 100 577 124 q 587 55 583 75 q 598 8 592 31 l 408 -8 l 387 87 q 356 47 375 66 q 315 14 338 28 q 266 -9 292 -1 q 215 -18 240 -18 q 142 0 175 -18 q 86 50 110 18 q 51 126 63 82 q 38 222 38 170 m 229 224 q 248 150 229 178 q 307 121 267 121 q 333 129 320 121 q 357 144 347 136 q 382 168 370 155 l 382 385 q 321 377 349 385 q 273 350 294 369 q 241 300 252 331 q 229 224 229 269 m 505 -70 q 501 -90 501 -82 q 517 -122 501 -113 q 555 -131 532 -131 q 583 -129 568 -131 q 612 -122 598 -126 q 637 -115 625 -119 q 656 -107 648 -111 l 656 -219 q 599 -251 636 -240 q 522 -262 562 -262 q 463 -256 492 -262 q 412 -236 434 -250 q 375 -200 389 -222 q 361 -149 361 -179 q 365 -127 361 -138 q 373 -102 368 -115 l 415 12 l 525 12 l 505 -70 z "},"Ć":{"ha":725,"x_min":55,"x_max":676,"o":"m 676 355 q 658 214 676 282 q 604 94 640 146 q 511 10 567 41 q 380 -22 456 -22 q 266 2 315 -22 q 180 66 216 25 q 120 162 144 107 q 81 279 96 216 q 61 409 67 342 q 55 543 55 477 q 62 662 55 601 q 86 782 70 724 q 129 891 102 840 q 191 980 155 942 q 276 1041 228 1019 q 385 1063 324 1063 q 508 1030 454 1063 q 598 944 562 998 q 655 824 635 891 q 675 688 675 757 l 478 677 q 477 702 478 683 q 473 745 477 720 q 464 797 470 770 q 446 848 457 825 q 416 886 434 871 q 374 901 399 901 q 331 885 349 901 q 300 842 313 869 q 279 779 288 815 q 267 704 271 743 q 260 623 262 664 q 258 543 258 581 q 260 446 258 494 q 267 354 262 397 q 282 274 273 311 q 306 210 291 237 q 343 168 321 183 q 393 153 364 153 q 445 174 425 153 q 477 228 465 195 q 495 299 490 260 q 503 371 500 337 l 676 355 m 309 1173 l 511 1476 l 665 1339 l 386 1105 l 309 1173 z "},"ć":{"ha":619,"x_min":46,"x_max":579,"o":"m 574 275 q 551 156 566 210 q 508 64 536 102 q 435 3 479 25 q 326 -18 391 -18 q 240 -3 279 -18 q 170 40 201 12 q 116 105 139 67 q 77 188 93 143 q 54 282 62 233 q 46 384 46 332 q 63 532 46 459 q 114 663 79 605 q 202 756 149 720 q 330 791 256 791 q 428 771 383 791 q 506 713 473 751 q 558 625 539 676 q 579 511 577 573 l 394 503 q 389 543 392 520 q 380 587 387 566 q 360 622 373 608 q 328 637 348 637 q 291 623 306 637 q 267 588 277 610 q 253 538 258 566 q 245 483 248 511 q 242 431 243 456 q 242 391 242 407 q 242 350 242 374 q 245 298 243 326 q 254 244 248 271 q 269 195 259 217 q 295 160 279 174 q 334 146 311 146 q 359 153 348 146 q 378 170 370 159 q 392 193 386 180 q 401 220 397 206 q 412 293 410 252 l 574 275 m 199 913 l 400 1216 l 554 1079 l 275 844 l 199 913 z "},"Ĉ":{"ha":725,"x_min":55,"x_max":676,"o":"m 676 355 q 658 214 676 282 q 604 94 640 146 q 511 10 567 41 q 380 -22 456 -22 q 266 2 315 -22 q 180 66 216 25 q 120 162 144 107 q 81 279 96 216 q 61 409 67 342 q 55 543 55 477 q 62 662 55 601 q 86 782 70 724 q 129 891 102 840 q 191 980 155 942 q 276 1041 228 1019 q 385 1063 324 1063 q 508 1030 454 1063 q 598 944 562 998 q 655 824 635 891 q 675 688 675 757 l 478 677 q 477 702 478 683 q 473 745 477 720 q 464 797 470 770 q 446 848 457 825 q 416 886 434 871 q 374 901 399 901 q 331 885 349 901 q 300 842 313 869 q 279 779 288 815 q 267 704 271 743 q 260 623 262 664 q 258 543 258 581 q 260 446 258 494 q 267 354 262 397 q 282 274 273 311 q 306 210 291 237 q 343 168 321 183 q 393 153 364 153 q 445 174 425 153 q 477 228 465 195 q 495 299 490 260 q 503 371 500 337 l 676 355 m 153 1107 l 316 1432 l 453 1432 l 609 1107 l 439 1107 l 374 1303 l 296 1107 l 153 1107 z "},"ĉ":{"ha":619,"x_min":46,"x_max":579,"o":"m 574 275 q 551 156 566 210 q 508 64 536 102 q 435 3 479 25 q 326 -18 391 -18 q 240 -3 279 -18 q 170 40 201 12 q 116 105 139 67 q 77 188 93 143 q 54 282 62 233 q 46 384 46 332 q 63 532 46 459 q 114 663 79 605 q 202 756 149 720 q 330 791 256 791 q 428 771 383 791 q 506 713 473 751 q 558 625 539 676 q 579 511 577 573 l 394 503 q 389 543 392 520 q 380 587 387 566 q 360 622 373 608 q 328 637 348 637 q 291 623 306 637 q 267 588 277 610 q 253 538 258 566 q 245 483 248 511 q 242 431 243 456 q 242 391 242 407 q 242 350 242 374 q 245 298 243 326 q 254 244 248 271 q 269 195 259 217 q 295 160 279 174 q 334 146 311 146 q 359 153 348 146 q 378 170 370 159 q 392 193 386 180 q 401 220 397 206 q 412 293 410 252 l 574 275 m 81 846 l 243 1172 l 380 1172 l 536 846 l 367 846 l 302 1043 l 223 846 l 81 846 z "},"Ċ":{"ha":725,"x_min":55,"x_max":676,"o":"m 676 355 q 658 214 676 282 q 604 94 640 146 q 511 10 567 41 q 380 -22 456 -22 q 266 2 315 -22 q 180 66 216 25 q 120 162 144 107 q 81 279 96 216 q 61 409 67 342 q 55 543 55 477 q 62 662 55 601 q 86 782 70 724 q 129 891 102 840 q 191 980 155 942 q 276 1041 228 1019 q 385 1063 324 1063 q 508 1030 454 1063 q 598 944 562 998 q 655 824 635 891 q 675 688 675 757 l 478 677 q 477 702 478 683 q 473 745 477 720 q 464 797 470 770 q 446 848 457 825 q 416 886 434 871 q 374 901 399 901 q 331 885 349 901 q 300 842 313 869 q 279 779 288 815 q 267 704 271 743 q 260 623 262 664 q 258 543 258 581 q 260 446 258 494 q 267 354 262 397 q 282 274 273 311 q 306 210 291 237 q 343 168 321 183 q 393 153 364 153 q 445 174 425 153 q 477 228 465 195 q 495 299 490 260 q 503 371 500 337 l 676 355 m 457 1346 l 457 1151 l 262 1150 l 262 1345 l 457 1346 z "},"ċ":{"ha":619,"x_min":46,"x_max":579,"o":"m 574 275 q 551 156 566 210 q 508 64 536 102 q 435 3 479 25 q 326 -18 391 -18 q 240 -3 279 -18 q 170 40 201 12 q 116 105 139 67 q 77 188 93 143 q 54 282 62 233 q 46 384 46 332 q 63 532 46 459 q 114 663 79 605 q 202 756 149 720 q 330 791 256 791 q 428 771 383 791 q 506 713 473 751 q 558 625 539 676 q 579 511 577 573 l 394 503 q 389 543 392 520 q 380 587 387 566 q 360 622 373 608 q 328 637 348 637 q 291 623 306 637 q 267 588 277 610 q 253 538 258 566 q 245 483 248 511 q 242 431 243 456 q 242 391 242 407 q 242 350 242 374 q 245 298 243 326 q 254 244 248 271 q 269 195 259 217 q 295 160 279 174 q 334 146 311 146 q 359 153 348 146 q 378 170 370 159 q 392 193 386 180 q 401 220 397 206 q 412 293 410 252 l 574 275 m 406 1043 l 406 848 l 211 847 l 211 1042 l 406 1043 z "},"Č":{"ha":725,"x_min":55,"x_max":676,"o":"m 676 355 q 658 214 676 282 q 604 94 640 146 q 511 10 567 41 q 380 -22 456 -22 q 266 2 315 -22 q 180 66 216 25 q 120 162 144 107 q 81 279 96 216 q 61 409 67 342 q 55 543 55 477 q 62 662 55 601 q 86 782 70 724 q 129 891 102 840 q 191 980 155 942 q 276 1041 228 1019 q 385 1063 324 1063 q 508 1030 454 1063 q 598 944 562 998 q 655 824 635 891 q 675 688 675 757 l 478 677 q 477 702 478 683 q 473 745 477 720 q 464 797 470 770 q 446 848 457 825 q 416 886 434 871 q 374 901 399 901 q 331 885 349 901 q 300 842 313 869 q 279 779 288 815 q 267 704 271 743 q 260 623 262 664 q 258 543 258 581 q 260 446 258 494 q 267 354 262 397 q 282 274 273 311 q 306 210 291 237 q 343 168 321 183 q 393 153 364 153 q 445 174 425 153 q 477 228 465 195 q 495 299 490 260 q 503 371 500 337 l 676 355 m 150 1432 l 313 1107 l 450 1107 l 606 1432 l 436 1432 l 371 1236 l 292 1432 l 150 1432 z "},"č":{"ha":619,"x_min":46,"x_max":579,"o":"m 574 275 q 551 156 566 210 q 508 64 536 102 q 435 3 479 25 q 326 -18 391 -18 q 240 -3 279 -18 q 170 40 201 12 q 116 105 139 67 q 77 188 93 143 q 54 282 62 233 q 46 384 46 332 q 63 532 46 459 q 114 663 79 605 q 202 756 149 720 q 330 791 256 791 q 428 771 383 791 q 506 713 473 751 q 558 625 539 676 q 579 511 577 573 l 394 503 q 389 543 392 520 q 380 587 387 566 q 360 622 373 608 q 328 637 348 637 q 291 623 306 637 q 267 588 277 610 q 253 538 258 566 q 245 483 248 511 q 242 431 243 456 q 242 391 242 407 q 242 350 242 374 q 245 298 243 326 q 254 244 248 271 q 269 195 259 217 q 295 160 279 174 q 334 146 311 146 q 359 153 348 146 q 378 170 370 159 q 392 193 386 180 q 401 220 397 206 q 412 293 410 252 l 574 275 m 223 1172 l 302 975 l 367 1172 l 536 1172 l 380 846 l 243 846 l 81 1172 l 223 1172 z "},"Ď":{"ha":768,"x_min":96,"x_max":718,"o":"m 96 1042 l 309 1042 q 616 912 515 1042 q 718 517 718 782 q 709 387 718 451 q 682 266 701 323 q 634 159 663 208 q 564 75 605 111 q 468 20 522 40 q 345 0 414 0 l 96 0 l 96 1042 m 299 879 l 299 163 l 328 163 q 396 176 367 163 q 446 212 425 189 q 480 266 467 235 q 501 332 493 297 q 512 404 509 367 q 515 478 515 441 l 515 554 q 511 641 515 597 q 496 728 507 686 q 464 805 485 771 q 409 859 443 838 q 323 879 374 879 l 299 879 m 100 1105 l 263 1431 l 400 1431 l 556 1105 l 387 1105 l 321 1302 l 243 1105 l 100 1105 z "},"ď":{"ha":892,"x_min":53,"x_max":930,"o":"m 492 -8 l 445 98 q 415 39 436 65 q 394 18 406 28 q 364 -1 381 7 q 326 -14 347 -9 q 277 -18 304 -18 q 182 6 224 -18 q 112 80 140 30 q 68 208 83 131 q 53 391 53 285 q 65 575 53 498 q 103 699 77 651 q 170 769 129 747 q 268 791 210 791 q 301 787 284 791 q 333 774 317 782 q 363 755 349 766 q 390 734 378 745 q 445 678 419 709 l 445 1017 l 640 1042 l 640 8 l 492 -8 m 445 586 q 415 617 431 604 q 385 638 401 629 q 350 648 368 648 q 294 628 314 648 q 263 573 273 608 q 251 491 253 538 q 248 391 248 444 q 251 288 248 336 q 263 202 253 239 q 294 143 273 165 q 350 121 314 121 q 385 131 368 121 q 415 162 401 140 q 437 225 429 185 q 445 326 445 264 l 445 586 m 930 1042 l 930 846 q 923 782 930 810 q 905 733 916 754 q 879 699 894 713 q 849 675 864 684 q 768 651 813 654 l 768 781 q 805 791 792 781 q 825 814 819 802 q 833 846 832 828 l 735 838 l 735 1042 l 930 1042 z "},"Đ":{"ha":772,"x_min":3,"x_max":722,"o":"m 3 586 l 100 586 l 100 1042 l 313 1042 q 621 912 519 1042 q 722 517 722 782 q 713 387 722 451 q 686 266 705 323 q 638 159 667 208 q 568 75 609 111 q 472 20 526 40 q 349 0 418 0 l 100 0 l 100 456 l 3 456 l 3 586 m 303 879 l 303 586 l 394 586 l 394 456 l 303 456 l 303 163 l 332 163 q 400 176 371 163 q 450 212 429 189 q 484 266 471 235 q 505 332 497 297 q 516 404 513 367 q 519 478 519 441 l 519 554 q 515 641 519 597 q 500 728 511 686 q 468 805 489 771 q 413 859 447 838 q 327 879 378 879 l 303 879 z "},"đ":{"ha":724,"x_min":53,"x_max":733,"o":"m 492 -8 l 445 98 q 415 39 436 65 q 394 18 406 28 q 364 -1 381 7 q 326 -14 347 -9 q 277 -18 304 -18 q 182 6 224 -18 q 112 80 140 30 q 68 208 83 131 q 53 391 53 285 q 65 575 53 498 q 103 699 77 651 q 170 769 129 747 q 268 791 210 791 q 301 787 284 791 q 333 774 317 782 q 363 755 349 766 q 390 734 378 745 q 445 678 419 709 l 445 1017 l 640 1042 l 640 8 l 492 -8 m 445 586 q 415 617 431 604 q 385 638 401 629 q 350 648 368 648 q 294 628 314 648 q 263 573 273 608 q 251 491 253 538 q 248 391 248 444 q 251 288 248 336 q 263 202 253 239 q 294 143 273 165 q 350 121 314 121 q 385 131 368 121 q 415 162 401 140 q 437 225 429 185 q 445 326 445 264 l 445 586 m 342 943 l 733 943 l 733 813 l 342 813 l 342 943 z "},"Ē":{"ha":670,"x_min":96,"x_max":636,"o":"m 96 1042 l 625 1042 l 609 879 l 300 879 l 300 631 l 519 631 l 518 456 l 300 456 l 300 163 l 636 163 l 620 0 l 96 0 l 96 1042 m 144 1237 l 535 1237 l 535 1107 l 144 1107 l 144 1237 z "},"ē":{"ha":654,"x_min":47,"x_max":621,"o":"m 242 363 q 247 285 242 327 q 263 208 252 243 q 292 149 274 172 q 337 125 311 125 q 379 144 360 125 q 412 185 398 162 q 435 229 427 208 q 446 253 444 249 l 593 197 q 557 110 580 149 q 503 42 535 71 q 429 -2 471 14 q 334 -18 387 -18 q 209 12 262 -18 q 119 95 155 41 q 65 223 83 149 q 47 387 47 298 q 66 551 47 476 q 121 679 84 625 q 212 762 157 732 q 340 791 267 791 q 463 762 410 791 q 550 679 515 732 q 603 551 585 625 q 621 387 621 476 l 618 377 q 616 369 616 373 q 615 363 615 366 l 242 363 m 429 476 q 424 548 429 515 q 408 605 418 581 q 379 643 397 629 q 337 657 362 657 q 302 643 319 657 q 272 605 285 629 q 250 548 258 581 q 242 476 242 515 l 429 476 m 130 977 l 521 977 l 521 846 l 130 846 l 130 977 z "},"Ĕ":{"ha":670,"x_min":54,"x_max":640,"o":"m 96 1042 l 625 1042 l 609 879 l 300 879 l 300 631 l 519 631 l 518 456 l 300 456 l 300 163 l 636 163 l 620 0 l 96 0 l 96 1042 m 217 1432 q 219 1379 217 1408 q 233 1326 221 1351 q 272 1286 245 1302 q 347 1270 298 1270 q 422 1286 396 1270 q 461 1326 449 1302 q 475 1379 473 1351 q 477 1432 477 1408 l 640 1432 q 634 1365 640 1401 q 615 1293 629 1329 q 579 1223 602 1257 q 524 1164 557 1190 q 448 1122 492 1138 q 347 1107 404 1107 q 247 1122 290 1107 q 170 1164 203 1138 q 115 1223 138 1190 q 79 1293 93 1257 q 60 1365 66 1329 q 54 1432 54 1401 l 217 1432 z "},"ĕ":{"ha":654,"x_min":35,"x_max":621,"o":"m 242 363 q 247 285 242 327 q 263 208 252 243 q 292 149 274 172 q 337 125 311 125 q 379 144 360 125 q 412 185 398 162 q 435 229 427 208 q 446 253 444 249 l 593 197 q 557 110 580 149 q 503 42 535 71 q 429 -2 471 14 q 334 -18 387 -18 q 209 12 262 -18 q 119 95 155 41 q 65 223 83 149 q 47 387 47 298 q 66 551 47 476 q 121 679 84 625 q 212 762 157 732 q 340 791 267 791 q 463 762 410 791 q 550 679 515 732 q 603 551 585 625 q 621 387 621 476 l 618 377 q 616 369 616 373 q 615 363 615 366 l 242 363 m 429 476 q 424 548 429 515 q 408 605 418 581 q 379 643 397 629 q 337 657 362 657 q 302 643 319 657 q 272 605 285 629 q 250 548 258 581 q 242 476 242 515 l 429 476 m 197 1172 q 199 1119 197 1147 q 214 1066 201 1090 q 252 1025 226 1042 q 328 1009 279 1009 q 403 1025 376 1009 q 441 1066 429 1042 q 456 1119 454 1090 q 458 1172 458 1147 l 621 1172 q 615 1105 621 1141 q 595 1033 609 1069 q 559 963 582 996 q 505 903 537 929 q 428 862 472 878 q 328 846 385 846 q 227 862 271 846 q 151 903 183 878 q 96 963 118 929 q 60 1033 73 996 q 40 1105 46 1069 q 35 1172 35 1141 l 197 1172 z "},"Ė":{"ha":670,"x_min":96,"x_max":636,"o":"m 96 1042 l 625 1042 l 609 879 l 300 879 l 300 631 l 519 631 l 518 456 l 300 456 l 300 163 l 636 163 l 620 0 l 96 0 l 96 1042 m 443 1303 l 443 1108 l 248 1107 l 248 1302 l 443 1303 z "},"ė":{"ha":654,"x_min":47,"x_max":621,"o":"m 242 363 q 247 285 242 327 q 263 208 252 243 q 292 149 274 172 q 337 125 311 125 q 379 144 360 125 q 412 185 398 162 q 435 229 427 208 q 446 253 444 249 l 593 197 q 557 110 580 149 q 503 42 535 71 q 429 -2 471 14 q 334 -18 387 -18 q 209 12 262 -18 q 119 95 155 41 q 65 223 83 149 q 47 387 47 298 q 66 551 47 476 q 121 679 84 625 q 212 762 157 732 q 340 791 267 791 q 463 762 410 791 q 550 679 515 732 q 603 551 585 625 q 621 387 621 476 l 618 377 q 616 369 616 373 q 615 363 615 366 l 242 363 m 429 476 q 424 548 429 515 q 408 605 418 581 q 379 643 397 629 q 337 657 362 657 q 302 643 319 657 q 272 605 285 629 q 250 548 258 581 q 242 476 242 515 l 429 476 m 423 1043 l 423 848 l 228 847 l 228 1042 l 423 1043 z "},"Ę":{"ha":669,"x_min":96,"x_max":744,"o":"m 96 1042 l 625 1042 l 609 879 l 300 879 l 300 631 l 519 631 l 518 456 l 300 456 l 300 163 l 636 163 l 620 0 l 96 0 l 96 1042 m 593 -70 q 589 -90 589 -82 q 605 -122 589 -113 q 643 -131 621 -131 q 671 -129 656 -131 q 700 -122 686 -126 q 725 -115 713 -119 q 744 -107 736 -111 l 744 -219 q 687 -251 724 -240 q 610 -262 650 -262 q 551 -256 580 -262 q 500 -236 522 -250 q 464 -200 477 -222 q 450 -149 450 -179 q 453 -127 450 -138 q 461 -102 456 -115 l 503 12 l 613 12 l 593 -70 z "},"ę":{"ha":655,"x_min":48,"x_max":621,"o":"m 243 363 q 248 285 243 327 q 263 208 252 243 q 293 149 275 172 q 338 125 311 125 q 380 144 361 125 q 413 185 399 162 q 436 229 427 208 q 446 253 444 249 l 594 197 q 558 110 581 149 q 504 42 536 71 q 430 -2 472 14 q 334 -18 388 -18 q 209 12 263 -18 q 120 95 155 41 q 66 223 84 149 q 48 387 48 298 q 66 551 48 476 q 121 679 85 625 q 213 762 158 732 q 341 791 268 791 q 463 762 411 791 q 551 679 515 732 q 604 551 586 625 q 621 387 621 476 l 618 377 q 616 369 617 373 q 616 363 616 366 l 243 363 m 429 476 q 424 548 429 515 q 408 605 419 581 q 380 643 397 629 q 338 657 363 657 q 303 643 320 657 q 272 605 286 629 q 251 548 259 581 q 243 476 243 515 l 429 476 m 389 -68 q 386 -88 386 -81 q 401 -121 386 -112 q 439 -130 417 -130 q 468 -127 453 -130 q 496 -121 483 -125 q 522 -113 510 -117 q 541 -106 533 -109 l 541 -218 q 484 -250 521 -239 q 406 -261 447 -261 q 348 -255 376 -261 q 296 -234 319 -248 q 260 -199 274 -220 q 246 -148 246 -178 q 249 -125 246 -137 q 258 -100 252 -114 l 300 14 l 410 14 l 389 -68 z "},"Ě":{"ha":670,"x_min":96,"x_max":636,"o":"m 96 1042 l 625 1042 l 609 879 l 300 879 l 300 631 l 519 631 l 518 456 l 300 456 l 300 163 l 636 163 l 620 0 l 96 0 l 96 1042 m 106 1101 l 269 1426 l 406 1426 l 562 1101 l 392 1101 l 327 1297 l 248 1101 l 106 1101 z "},"ě":{"ha":654,"x_min":47,"x_max":621,"o":"m 242 363 q 247 285 242 327 q 263 208 252 243 q 292 149 274 172 q 337 125 311 125 q 379 144 360 125 q 412 185 398 162 q 435 229 427 208 q 446 253 444 249 l 593 197 q 557 110 580 149 q 503 42 535 71 q 429 -2 471 14 q 334 -18 387 -18 q 209 12 262 -18 q 119 95 155 41 q 65 223 83 149 q 47 387 47 298 q 66 551 47 476 q 121 679 84 625 q 212 762 157 732 q 340 791 267 791 q 463 762 410 791 q 550 679 515 732 q 603 551 585 625 q 621 387 621 476 l 618 377 q 616 369 616 373 q 615 363 615 366 l 242 363 m 429 476 q 424 548 429 515 q 408 605 418 581 q 379 643 397 629 q 337 657 362 657 q 302 643 319 657 q 272 605 285 629 q 250 548 258 581 q 242 476 242 515 l 429 476 m 240 1172 l 319 975 l 384 1172 l 553 1172 l 397 846 l 260 846 l 98 1172 l 240 1172 z "},"Ĝ":{"ha":768,"x_min":55,"x_max":699,"o":"m 501 688 q 496 731 498 708 q 489 779 494 755 q 478 825 485 803 q 460 865 471 848 q 431 893 448 882 q 391 903 414 903 q 343 885 363 903 q 308 838 323 867 q 283 768 293 808 q 269 685 274 728 q 261 598 263 642 q 258 514 258 553 q 259 435 258 477 q 263 351 260 393 q 275 272 267 310 q 298 205 283 234 q 336 159 313 176 q 392 142 359 142 q 440 157 419 142 q 475 199 460 172 q 496 264 489 227 q 503 345 503 301 l 400 345 l 416 521 l 699 521 l 699 8 l 621 0 q 618 13 621 3 q 612 37 616 23 q 605 68 609 51 q 596 102 600 85 q 574 193 586 143 q 545 85 569 133 q 518 46 534 65 q 479 12 503 27 q 425 -13 456 -3 q 353 -22 394 -22 q 255 -1 298 -22 q 178 57 211 20 q 122 145 145 94 q 83 257 98 196 q 62 386 68 317 q 55 525 55 454 q 63 648 55 585 q 87 771 71 711 q 130 884 104 831 q 194 977 157 937 q 281 1040 232 1017 q 393 1063 331 1063 q 530 1033 473 1063 q 623 953 587 1003 q 677 837 660 903 q 695 701 695 772 l 501 688 m 178 1107 l 341 1432 l 478 1432 l 634 1107 l 465 1107 l 399 1303 l 321 1107 l 178 1107 z "},"ĝ":{"ha":752,"x_min":30,"x_max":747,"o":"m 30 -83 q 36 -47 30 -64 q 51 -15 41 -30 q 73 11 61 -1 q 98 33 85 23 q 167 70 128 55 q 109 93 134 79 q 87 107 98 99 q 68 125 77 115 q 55 147 60 135 q 50 174 50 159 q 57 211 50 193 q 73 244 63 229 q 97 274 83 260 q 123 299 110 288 q 197 347 156 326 q 135 397 162 368 q 112 426 123 410 q 92 461 101 442 q 78 504 83 481 q 73 553 73 526 q 98 656 73 611 q 164 731 123 701 q 256 776 205 761 q 359 791 307 791 q 427 786 397 791 q 482 772 458 781 q 525 753 506 763 q 557 733 543 743 q 585 758 568 743 q 625 788 602 773 q 673 813 647 803 q 726 824 699 824 q 732 824 729 824 q 739 823 736 823 q 747 821 743 822 l 747 657 q 712 670 728 664 q 684 680 699 675 q 661 684 669 684 q 647 682 654 684 q 635 677 641 680 q 623 672 629 675 q 638 631 631 652 q 648 594 644 614 q 653 556 653 574 q 636 469 653 513 q 585 389 618 425 q 500 330 551 353 q 383 315 450 307 q 336 317 357 315 q 302 318 316 318 q 262 300 273 310 q 251 254 251 290 q 265 221 251 234 q 300 205 279 208 l 484 191 q 579 174 537 186 q 652 134 622 161 q 698 70 682 107 q 714 -14 714 33 q 698 -92 714 -58 q 654 -152 682 -127 q 590 -195 627 -178 q 514 -223 554 -212 q 434 -238 475 -233 q 357 -243 393 -243 q 216 -231 277 -243 q 114 -198 155 -219 q 51 -148 73 -177 q 30 -83 30 -119 m 208 -24 q 217 -55 208 -41 q 247 -78 226 -68 q 300 -93 267 -88 q 380 -98 333 -98 q 487 -75 450 -98 q 524 -12 524 -52 q 508 24 524 11 q 469 44 492 37 q 422 52 446 50 q 383 54 398 54 l 269 54 q 247 45 258 51 q 227 29 236 39 q 213 6 218 19 q 208 -24 208 -7 m 268 560 q 271 514 268 538 q 284 471 275 490 q 312 438 294 451 q 359 426 330 426 q 423 459 399 426 q 446 556 446 493 q 439 609 446 587 q 420 645 432 631 q 392 666 408 659 q 358 673 376 673 q 317 663 334 673 q 290 636 300 652 q 273 600 279 620 q 268 560 268 579 m 168 846 l 330 1172 l 467 1172 l 623 846 l 454 846 l 389 1043 l 310 846 l 168 846 z "},"Ğ":{"ha":768,"x_min":55,"x_max":699,"o":"m 501 688 q 496 731 498 708 q 489 779 494 755 q 478 825 485 803 q 460 865 471 848 q 431 893 448 882 q 391 903 414 903 q 343 885 363 903 q 308 838 323 867 q 283 768 293 808 q 269 685 274 728 q 261 598 263 642 q 258 514 258 553 q 259 435 258 477 q 263 351 260 393 q 275 272 267 310 q 298 205 283 234 q 336 159 313 176 q 392 142 359 142 q 440 157 419 142 q 475 199 460 172 q 496 264 489 227 q 503 345 503 301 l 400 345 l 416 521 l 699 521 l 699 8 l 621 0 q 618 13 621 3 q 612 37 616 23 q 605 68 609 51 q 596 102 600 85 q 574 193 586 143 q 545 85 569 133 q 518 46 534 65 q 479 12 503 27 q 425 -13 456 -3 q 353 -22 394 -22 q 255 -1 298 -22 q 178 57 211 20 q 122 145 145 94 q 83 257 98 196 q 62 386 68 317 q 55 525 55 454 q 63 648 55 585 q 87 771 71 711 q 130 884 104 831 q 194 977 157 937 q 281 1040 232 1017 q 393 1063 331 1063 q 530 1033 473 1063 q 623 953 587 1003 q 677 837 660 903 q 695 701 695 772 l 501 688 m 252 1432 q 254 1379 252 1408 q 269 1326 256 1351 q 307 1286 281 1302 q 382 1270 334 1270 q 458 1286 431 1270 q 496 1326 484 1302 q 511 1379 509 1351 q 513 1432 513 1408 l 675 1432 q 670 1365 675 1401 q 650 1293 664 1329 q 614 1223 637 1257 q 559 1164 592 1190 q 483 1122 527 1138 q 382 1107 439 1107 q 282 1122 326 1107 q 205 1164 238 1138 q 151 1223 173 1190 q 115 1293 128 1257 q 95 1365 101 1329 q 90 1432 90 1401 l 252 1432 z "},"ğ":{"ha":752,"x_min":30,"x_max":747,"o":"m 30 -83 q 36 -47 30 -64 q 51 -15 41 -30 q 73 11 61 -1 q 98 33 85 23 q 167 70 128 55 q 109 93 134 79 q 87 107 98 99 q 68 125 77 115 q 55 147 60 135 q 50 174 50 159 q 57 211 50 193 q 73 244 63 229 q 97 274 83 260 q 123 299 110 288 q 197 347 156 326 q 135 397 162 368 q 112 426 123 410 q 92 461 101 442 q 78 504 83 481 q 73 553 73 526 q 98 656 73 611 q 164 731 123 701 q 256 776 205 761 q 359 791 307 791 q 427 786 397 791 q 482 772 458 781 q 525 753 506 763 q 557 733 543 743 q 585 758 568 743 q 625 788 602 773 q 673 813 647 803 q 726 824 699 824 q 732 824 729 824 q 739 823 736 823 q 747 821 743 822 l 747 657 q 712 670 728 664 q 684 680 699 675 q 661 684 669 684 q 647 682 654 684 q 635 677 641 680 q 623 672 629 675 q 638 631 631 652 q 648 594 644 614 q 653 556 653 574 q 636 469 653 513 q 585 389 618 425 q 500 330 551 353 q 383 315 450 307 q 336 317 357 315 q 302 318 316 318 q 262 300 273 310 q 251 254 251 290 q 265 221 251 234 q 300 205 279 208 l 484 191 q 579 174 537 186 q 652 134 622 161 q 698 70 682 107 q 714 -14 714 33 q 698 -92 714 -58 q 654 -152 682 -127 q 590 -195 627 -178 q 514 -223 554 -212 q 434 -238 475 -233 q 357 -243 393 -243 q 216 -231 277 -243 q 114 -198 155 -219 q 51 -148 73 -177 q 30 -83 30 -119 m 208 -24 q 217 -55 208 -41 q 247 -78 226 -68 q 300 -93 267 -88 q 380 -98 333 -98 q 487 -75 450 -98 q 524 -12 524 -52 q 508 24 524 11 q 469 44 492 37 q 422 52 446 50 q 383 54 398 54 l 269 54 q 247 45 258 51 q 227 29 236 39 q 213 6 218 19 q 208 -24 208 -7 m 268 560 q 271 514 268 538 q 284 471 275 490 q 312 438 294 451 q 359 426 330 426 q 423 459 399 426 q 446 556 446 493 q 439 609 446 587 q 420 645 432 631 q 392 666 408 659 q 358 673 376 673 q 317 663 334 673 q 290 636 300 652 q 273 600 279 620 q 268 560 268 579 m 265 1172 q 267 1119 265 1147 q 281 1066 269 1090 q 320 1025 294 1042 q 395 1009 347 1009 q 471 1025 444 1009 q 509 1066 497 1042 q 524 1119 522 1090 q 526 1172 526 1147 l 688 1172 q 683 1105 688 1141 q 663 1033 677 1069 q 627 963 650 996 q 572 903 605 929 q 496 862 540 878 q 395 846 452 846 q 295 862 338 846 q 218 903 251 878 q 163 963 186 929 q 127 1033 141 996 q 108 1105 114 1069 q 102 1172 102 1141 l 265 1172 z "},"Ġ":{"ha":768,"x_min":55,"x_max":699,"o":"m 501 688 q 496 731 498 708 q 489 779 494 755 q 478 825 485 803 q 460 865 471 848 q 431 893 448 882 q 391 903 414 903 q 343 885 363 903 q 308 838 323 867 q 283 768 293 808 q 269 685 274 728 q 261 598 263 642 q 258 514 258 553 q 259 435 258 477 q 263 351 260 393 q 275 272 267 310 q 298 205 283 234 q 336 159 313 176 q 392 142 359 142 q 440 157 419 142 q 475 199 460 172 q 496 264 489 227 q 503 345 503 301 l 400 345 l 416 521 l 699 521 l 699 8 l 621 0 q 618 13 621 3 q 612 37 616 23 q 605 68 609 51 q 596 102 600 85 q 574 193 586 143 q 545 85 569 133 q 518 46 534 65 q 479 12 503 27 q 425 -13 456 -3 q 353 -22 394 -22 q 255 -1 298 -22 q 178 57 211 20 q 122 145 145 94 q 83 257 98 196 q 62 386 68 317 q 55 525 55 454 q 63 648 55 585 q 87 771 71 711 q 130 884 104 831 q 194 977 157 937 q 281 1040 232 1017 q 393 1063 331 1063 q 530 1033 473 1063 q 623 953 587 1003 q 677 837 660 903 q 695 701 695 772 l 501 688 m 497 1303 l 497 1108 l 302 1107 l 302 1302 l 497 1303 z "},"ġ":{"ha":752,"x_min":30,"x_max":747,"o":"m 30 -83 q 36 -47 30 -64 q 51 -15 41 -30 q 73 11 61 -1 q 98 33 85 23 q 167 70 128 55 q 109 93 134 79 q 87 107 98 99 q 68 125 77 115 q 55 147 60 135 q 50 174 50 159 q 57 211 50 193 q 73 244 63 229 q 97 274 83 260 q 123 299 110 288 q 197 347 156 326 q 135 397 162 368 q 112 426 123 410 q 92 461 101 442 q 78 504 83 481 q 73 553 73 526 q 98 656 73 611 q 164 731 123 701 q 256 776 205 761 q 359 791 307 791 q 427 786 397 791 q 482 772 458 781 q 525 753 506 763 q 557 733 543 743 q 585 758 568 743 q 625 788 602 773 q 673 813 647 803 q 726 824 699 824 q 732 824 729 824 q 739 823 736 823 q 747 821 743 822 l 747 657 q 712 670 728 664 q 684 680 699 675 q 661 684 669 684 q 647 682 654 684 q 635 677 641 680 q 623 672 629 675 q 638 631 631 652 q 648 594 644 614 q 653 556 653 574 q 636 469 653 513 q 585 389 618 425 q 500 330 551 353 q 383 315 450 307 q 336 317 357 315 q 302 318 316 318 q 262 300 273 310 q 251 254 251 290 q 265 221 251 234 q 300 205 279 208 l 484 191 q 579 174 537 186 q 652 134 622 161 q 698 70 682 107 q 714 -14 714 33 q 698 -92 714 -58 q 654 -152 682 -127 q 590 -195 627 -178 q 514 -223 554 -212 q 434 -238 475 -233 q 357 -243 393 -243 q 216 -231 277 -243 q 114 -198 155 -219 q 51 -148 73 -177 q 30 -83 30 -119 m 208 -24 q 217 -55 208 -41 q 247 -78 226 -68 q 300 -93 267 -88 q 380 -98 333 -98 q 487 -75 450 -98 q 524 -12 524 -52 q 508 24 524 11 q 469 44 492 37 q 422 52 446 50 q 383 54 398 54 l 269 54 q 247 45 258 51 q 227 29 236 39 q 213 6 218 19 q 208 -24 208 -7 m 268 560 q 271 514 268 538 q 284 471 275 490 q 312 438 294 451 q 359 426 330 426 q 423 459 399 426 q 446 556 446 493 q 439 609 446 587 q 420 645 432 631 q 392 666 408 659 q 358 673 376 673 q 317 663 334 673 q 290 636 300 652 q 273 600 279 620 q 268 560 268 579 m 493 1043 l 493 848 l 298 847 l 298 1042 l 493 1043 z "},"Ģ":{"ha":768,"x_min":55,"x_max":699,"o":"m 501 688 q 496 731 498 708 q 489 779 494 755 q 478 825 485 803 q 460 865 471 848 q 431 893 448 882 q 391 903 414 903 q 343 885 363 903 q 308 838 323 867 q 283 768 293 808 q 269 685 274 728 q 261 598 263 642 q 258 514 258 553 q 259 435 258 477 q 263 351 260 393 q 275 272 267 310 q 298 205 283 234 q 336 159 313 176 q 392 142 359 142 q 440 157 419 142 q 475 199 460 172 q 496 264 489 227 q 503 345 503 301 l 400 345 l 416 521 l 699 521 l 699 8 l 621 0 q 618 13 621 3 q 612 37 616 23 q 605 68 609 51 q 596 102 600 85 q 574 193 586 143 q 545 85 569 133 q 518 46 534 65 q 479 12 503 27 q 425 -13 456 -3 q 353 -22 394 -22 q 255 -1 298 -22 q 178 57 211 20 q 122 145 145 94 q 83 257 98 196 q 62 386 68 317 q 55 525 55 454 q 63 648 55 585 q 87 771 71 711 q 130 884 104 831 q 194 977 157 937 q 281 1040 232 1017 q 393 1063 331 1063 q 530 1033 473 1063 q 623 953 587 1003 q 677 837 660 903 q 695 701 695 772 l 501 688 m 481 -60 l 481 -256 q 474 -320 481 -292 q 456 -369 467 -348 q 430 -404 445 -389 q 400 -427 415 -418 q 319 -451 364 -448 l 319 -321 q 356 -311 343 -321 q 376 -288 370 -300 q 384 -256 383 -274 l 286 -256 l 286 -60 l 481 -60 z "},"ģ":{"ha":752,"x_min":30,"x_max":747,"o":"m 30 -83 q 36 -47 30 -64 q 51 -15 41 -30 q 73 11 61 -1 q 98 33 85 23 q 167 70 128 55 q 109 93 134 79 q 87 107 98 99 q 68 125 77 115 q 55 147 60 135 q 50 174 50 159 q 57 211 50 193 q 73 244 63 229 q 97 274 83 260 q 123 299 110 288 q 197 347 156 326 q 135 397 162 368 q 112 426 123 410 q 92 461 101 442 q 78 504 83 481 q 73 553 73 526 q 98 656 73 611 q 164 731 123 701 q 256 776 205 761 q 359 791 307 791 q 427 786 397 791 q 482 772 458 781 q 525 753 506 763 q 557 733 543 743 q 585 758 568 743 q 625 788 602 773 q 673 813 647 803 q 726 824 699 824 q 732 824 729 824 q 739 823 736 823 q 747 821 743 822 l 747 657 q 712 670 728 664 q 684 680 699 675 q 661 684 669 684 q 647 682 654 684 q 635 677 641 680 q 623 672 629 675 q 638 631 631 652 q 648 594 644 614 q 653 556 653 574 q 636 469 653 513 q 585 389 618 425 q 500 330 551 353 q 383 315 450 307 q 336 317 357 315 q 302 318 316 318 q 262 300 273 310 q 251 254 251 290 q 265 221 251 234 q 300 205 279 208 l 484 191 q 579 174 537 186 q 652 134 622 161 q 698 70 682 107 q 714 -14 714 33 q 698 -92 714 -58 q 654 -152 682 -127 q 590 -195 627 -178 q 514 -223 554 -212 q 434 -238 475 -233 q 357 -243 393 -243 q 216 -231 277 -243 q 114 -198 155 -219 q 51 -148 73 -177 q 30 -83 30 -119 m 208 -24 q 217 -55 208 -41 q 247 -78 226 -68 q 300 -93 267 -88 q 380 -98 333 -98 q 487 -75 450 -98 q 524 -12 524 -52 q 508 24 524 11 q 469 44 492 37 q 422 52 446 50 q 383 54 398 54 l 269 54 q 247 45 258 51 q 227 29 236 39 q 213 6 218 19 q 208 -24 208 -7 m 268 560 q 271 514 268 538 q 284 471 275 490 q 312 438 294 451 q 359 426 330 426 q 423 459 399 426 q 446 556 446 493 q 439 609 446 587 q 420 645 432 631 q 392 666 408 659 q 358 673 376 673 q 317 663 334 673 q 290 636 300 652 q 273 600 279 620 q 268 560 268 579 m 281 883 l 281 1107 q 289 1171 281 1143 q 311 1220 298 1199 q 342 1254 325 1240 q 378 1278 360 1268 q 477 1302 421 1299 l 477 1172 q 420 1162 439 1172 q 391 1139 400 1152 q 378 1107 380 1125 l 509 1107 l 509 891 l 281 883 z "},"Ĥ":{"ha":794,"x_min":96,"x_max":699,"o":"m 495 433 l 300 433 l 300 8 l 96 -8 l 96 1025 l 300 1042 l 300 619 l 495 619 l 495 1025 l 699 1042 l 699 8 l 495 -8 l 495 433 m 169 1107 l 332 1432 l 469 1432 l 625 1107 l 455 1107 l 390 1303 l 311 1107 l 169 1107 z "},"ĥ":{"ha":749,"x_min":-43,"x_max":670,"o":"m 475 524 q 455 602 475 578 q 407 625 436 625 q 350 611 380 625 q 279 572 320 596 l 279 8 l 84 -8 l 84 1017 l 279 1042 l 279 682 q 397 765 340 739 q 503 791 453 791 q 570 778 540 791 q 623 738 601 764 q 657 676 645 713 q 670 594 670 640 l 670 8 l 475 -8 l 475 524 m -43 1107 l 120 1432 l 257 1432 l 413 1107 l 243 1107 l 178 1303 l 100 1107 l -43 1107 z "},"Ħ":{"ha":800,"x_min":18,"x_max":772,"o":"m 18 911 l 98 911 l 98 1025 l 302 1042 l 302 911 l 497 911 l 497 1025 l 701 1042 l 701 911 l 772 911 l 772 788 l 701 788 l 701 8 l 497 -8 l 497 433 l 302 433 l 302 8 l 98 -8 l 98 788 l 18 788 l 18 911 m 497 619 l 497 788 l 302 788 l 302 619 l 497 619 z "},"ħ":{"ha":749,"x_min":-45,"x_max":670,"o":"m 475 524 q 455 602 475 578 q 407 625 436 625 q 350 611 380 625 q 279 572 320 596 l 279 8 l 84 -8 l 84 1017 l 279 1042 l 279 682 q 397 765 340 739 q 503 791 453 791 q 570 778 540 791 q 623 738 601 764 q 657 676 645 713 q 670 594 670 640 l 670 8 l 475 -8 l 475 524 m -45 977 l 410 977 l 410 846 l -45 846 l -45 977 z "},"Ĩ":{"ha":395,"x_min":-16,"x_max":416,"o":"m 96 1025 l 300 1042 l 300 8 l 96 -8 l 96 1025 m -16 1220 q 26 1261 4 1243 q 68 1290 45 1277 q 115 1303 92 1303 q 163 1294 142 1303 q 205 1276 185 1286 q 244 1257 225 1265 q 285 1249 263 1249 q 330 1257 311 1249 q 361 1276 349 1265 q 386 1303 376 1288 l 416 1193 q 407 1177 416 1192 q 381 1143 398 1161 q 341 1109 365 1124 q 286 1095 317 1095 q 242 1105 262 1095 q 201 1129 222 1116 q 159 1152 181 1141 q 107 1163 136 1163 q 66 1153 86 1163 q 30 1129 45 1142 q -6 1095 11 1114 l -16 1220 z "},"ĩ":{"ha":363,"x_min":-35,"x_max":397,"o":"m 84 765 l 279 781 l 279 8 l 84 -8 l 84 765 m -35 960 q 8 1001 -14 983 q 50 1029 27 1017 q 96 1042 73 1042 q 145 1034 123 1042 q 187 1015 167 1025 q 226 997 207 1005 q 267 988 245 988 q 312 997 292 988 q 343 1015 331 1005 q 368 1042 357 1027 l 397 932 q 389 916 397 932 q 363 882 380 901 q 322 849 347 864 q 268 834 298 834 q 223 845 243 834 q 183 868 203 856 q 140 892 163 881 q 89 903 118 903 q 47 892 68 903 q 12 869 27 882 q -24 835 -7 854 l -35 960 z "},"Ī":{"ha":395,"x_min":3,"x_max":393,"o":"m 96 1025 l 300 1042 l 300 8 l 96 -8 l 96 1025 m 3 1237 l 393 1237 l 393 1107 l 3 1107 l 3 1237 z "},"ī":{"ha":363,"x_min":-14,"x_max":377,"o":"m 84 765 l 279 781 l 279 8 l 84 -8 l 84 765 m -14 977 l 377 977 l 377 846 l -14 846 l -14 977 z "},"Ĭ":{"ha":395,"x_min":-96,"x_max":490,"o":"m 96 1025 l 300 1042 l 300 8 l 96 -8 l 96 1025 m 67 1432 q 69 1379 67 1408 q 83 1326 71 1351 q 122 1286 96 1302 q 197 1270 149 1270 q 273 1286 246 1270 q 311 1326 299 1302 q 326 1379 323 1351 q 328 1432 328 1408 l 490 1432 q 485 1365 490 1401 q 465 1293 479 1329 q 429 1223 452 1257 q 374 1164 407 1190 q 298 1122 342 1138 q 197 1107 254 1107 q 97 1122 140 1107 q 20 1164 53 1138 q -35 1223 -12 1190 q -71 1293 -57 1257 q -90 1365 -84 1329 q -96 1432 -96 1401 l 67 1432 z "},"ĭ":{"ha":363,"x_min":-111,"x_max":475,"o":"m 84 765 l 279 781 l 279 8 l 84 -8 l 84 765 m 52 1172 q 54 1119 52 1147 q 68 1066 56 1090 q 106 1025 80 1042 q 182 1009 133 1009 q 257 1025 231 1009 q 296 1066 283 1042 q 310 1119 308 1090 q 312 1172 312 1147 l 475 1172 q 469 1105 475 1141 q 450 1033 463 1069 q 414 963 436 996 q 359 903 391 929 q 282 862 326 878 q 182 846 239 846 q 81 862 125 846 q 5 903 37 878 q -50 963 -28 929 q -86 1033 -73 996 q -105 1105 -100 1069 q -111 1172 -111 1141 l 52 1172 z "},"Į":{"ha":395,"x_min":96,"x_max":410,"o":"m 96 1025 l 300 1042 l 300 8 l 96 -8 l 96 1025 m 259 -68 q 256 -88 256 -81 q 271 -121 256 -112 q 309 -130 287 -130 q 338 -127 323 -130 q 366 -121 353 -125 q 391 -113 380 -117 q 410 -106 403 -109 l 410 -218 q 354 -250 391 -239 q 276 -261 317 -261 q 217 -255 246 -261 q 166 -234 189 -248 q 130 -199 144 -220 q 116 -148 116 -178 q 119 -125 116 -137 q 127 -100 122 -114 l 170 14 l 279 14 l 259 -68 z "},"į":{"ha":363,"x_min":64,"x_max":358,"o":"m 207 -68 q 203 -88 203 -81 q 219 -121 203 -112 q 257 -130 235 -130 q 286 -127 271 -130 q 314 -121 300 -125 q 339 -113 328 -117 q 358 -106 351 -109 l 358 -218 q 301 -250 338 -239 q 224 -261 264 -261 q 165 -255 194 -261 q 114 -234 136 -248 q 78 -199 92 -220 q 64 -148 64 -178 q 67 -125 64 -137 q 75 -100 70 -114 l 117 14 l 227 14 l 207 -68 m 84 765 l 279 781 l 279 8 l 84 -8 l 84 765 m 280 1085 l 280 890 l 85 889 l 85 1084 l 280 1085 z "},"İ":{"ha":395,"x_min":96,"x_max":300,"o":"m 96 1025 l 300 1042 l 300 8 l 96 -8 l 96 1025 m 296 1303 l 296 1108 l 100 1107 l 100 1302 l 296 1303 z "},"ı":{"ha":363,"x_min":84,"x_max":279,"o":"m 84 765 l 279 781 l 279 8 l 84 -8 l 84 765 z "},"Ĳ":{"ha":821,"x_min":96,"x_max":730,"o":"m 96 1025 l 300 1042 l 300 8 l 96 -8 l 96 1025 m 396 139 q 426 132 412 134 q 450 130 439 130 q 494 142 479 130 q 516 176 509 155 q 525 223 524 197 q 526 277 526 250 l 526 1025 l 730 1042 l 730 260 q 720 147 730 198 q 686 59 710 96 q 624 1 663 22 q 526 -19 585 -19 q 396 1 471 -19 l 396 139 z "},"ĳ":{"ha":755,"x_min":84,"x_max":643,"o":"m 84 765 l 279 781 l 279 8 l 84 -8 l 84 765 m 280 1085 l 280 890 l 85 889 l 85 1084 l 280 1085 m 643 1085 l 643 890 l 448 889 l 448 1084 l 643 1085 m 340 -65 q 399 -60 378 -65 q 432 -42 421 -54 q 445 -11 442 -31 q 448 37 448 8 l 448 765 l 643 781 l 643 37 q 640 -62 643 -18 q 621 -135 637 -105 q 570 -180 605 -164 q 470 -195 535 -195 q 411 -192 443 -195 q 340 -182 378 -189 l 340 -65 z "},"Ĵ":{"ha":448,"x_min":19,"x_max":475,"o":"m 23 139 q 53 132 39 134 q 77 130 66 130 q 121 142 106 130 q 143 176 136 155 q 152 223 151 197 q 153 277 153 250 l 153 1025 l 357 1042 l 357 260 q 347 147 357 198 q 313 59 337 96 q 251 1 290 22 q 153 -19 212 -19 q 23 1 98 -19 l 23 139 m 19 1107 l 182 1432 l 319 1432 l 475 1107 l 305 1107 l 240 1303 l 161 1107 l 19 1107 z "},"ĵ":{"ha":363,"x_min":-50,"x_max":406,"o":"m -24 -65 q 36 -60 14 -65 q 68 -42 58 -54 q 81 -11 79 -31 q 84 37 84 8 l 84 765 l 279 781 l 279 37 q 277 -62 279 -18 q 258 -135 274 -105 q 207 -180 241 -164 q 106 -195 172 -195 q 47 -192 79 -195 q -24 -182 15 -189 l -24 -65 m -50 846 l 113 1172 l 250 1172 l 406 846 l 236 846 l 171 1043 l 92 846 l -50 846 z "},"Ķ":{"ha":779,"x_min":96,"x_max":767,"o":"m 400 452 l 300 272 l 300 0 l 96 0 l 96 1025 l 300 1042 l 300 586 l 547 1042 l 764 1042 l 541 612 l 767 29 l 560 -18 l 400 452 m 521 -61 l 521 -256 q 514 -321 521 -293 q 495 -369 507 -349 q 469 -404 484 -390 q 439 -427 454 -418 q 358 -452 404 -449 l 358 -321 q 396 -311 382 -321 q 415 -289 409 -301 q 423 -256 422 -275 l 326 -256 l 326 -61 l 521 -61 z "},"ķ":{"ha":692,"x_min":85,"x_max":690,"o":"m 280 286 l 280 0 l 85 0 l 85 1017 l 280 1042 l 280 526 l 479 781 l 690 781 l 470 500 l 674 41 l 502 -18 l 344 370 l 280 286 m 464 -61 l 464 -256 q 457 -321 464 -293 q 438 -369 450 -349 q 412 -404 427 -390 q 382 -427 397 -418 q 301 -452 347 -449 l 301 -321 q 339 -311 326 -321 q 358 -289 352 -301 q 366 -256 366 -275 l 269 -256 l 269 -61 l 464 -61 z "},"Ĺ":{"ha":659,"x_min":96,"x_max":652,"o":"m 299 1042 l 299 163 l 652 163 l 619 0 l 96 0 l 96 1025 l 299 1042 m 112 1173 l 313 1476 l 467 1339 l 189 1105 l 112 1173 z "},"ĺ":{"ha":363,"x_min":84,"x_max":452,"o":"m 84 1017 l 279 1042 l 279 8 l 84 -8 l 84 1017 m 96 1120 l 298 1423 l 452 1286 l 173 1051 l 96 1120 z "},"Ļ":{"ha":657,"x_min":96,"x_max":652,"o":"m 299 1042 l 299 163 l 652 163 l 619 0 l 96 0 l 96 1025 l 299 1042 m 460 -61 l 460 -256 q 453 -321 460 -293 q 435 -369 446 -349 q 409 -404 424 -390 q 379 -427 394 -418 q 298 -452 343 -449 l 298 -321 q 335 -311 322 -321 q 355 -289 349 -301 q 363 -256 362 -275 l 265 -256 l 265 -61 l 460 -61 z "},"ļ":{"ha":363,"x_min":84,"x_max":287,"o":"m 84 1017 l 279 1042 l 279 8 l 84 -8 l 84 1017 m 287 -61 l 287 -256 q 280 -321 287 -293 q 261 -369 273 -349 q 235 -404 250 -390 q 205 -427 220 -418 q 124 -452 170 -449 l 124 -321 q 162 -311 149 -321 q 181 -289 175 -301 q 189 -256 189 -275 l 92 -256 l 92 -61 l 287 -61 z "},"Ľ":{"ha":659,"x_min":96,"x_max":652,"o":"m 299 1042 l 299 163 l 652 163 l 619 0 l 96 0 l 96 1025 l 299 1042 m 584 1229 l 584 1034 q 577 969 584 997 q 558 921 570 941 q 532 886 547 900 q 503 863 517 871 q 421 838 467 841 l 421 968 q 459 979 446 968 q 478 1001 472 989 q 486 1034 486 1015 l 389 1025 l 389 1229 l 584 1229 z "},"ľ":{"ha":537,"x_min":84,"x_max":574,"o":"m 84 1017 l 279 1042 l 279 8 l 84 -8 l 84 1017 m 574 1042 l 574 846 q 567 782 574 810 q 549 733 560 754 q 523 699 538 713 q 493 675 508 684 q 412 651 457 654 l 412 781 q 449 791 436 781 q 469 814 463 802 q 477 846 476 828 l 379 838 l 379 1042 l 574 1042 z "},"Ŀ":{"ha":682,"x_min":96,"x_max":652,"o":"m 299 1042 l 299 163 l 652 163 l 619 0 l 96 0 l 96 1025 l 299 1042 m 650 716 l 650 521 l 455 521 l 455 716 l 650 716 z "},"ŀ":{"ha":610,"x_min":84,"x_max":594,"o":"m 84 1017 l 279 1042 l 279 8 l 84 -8 l 84 1017 m 594 568 l 594 373 l 399 373 l 399 568 l 594 568 z "},"Ł":{"ha":668,"x_min":-1,"x_max":661,"o":"m 309 1042 l 309 661 l 454 682 l 454 521 l 309 500 l 309 163 l 661 163 l 629 0 l 106 0 l 106 471 l -1 456 l -1 617 l 106 632 l 106 1025 l 309 1042 z "},"ł":{"ha":395,"x_min":-1,"x_max":390,"o":"m -1 552 l 106 579 l 106 1017 l 301 1042 l 301 629 l 390 651 l 390 490 l 301 467 l 301 8 l 106 -8 l 106 418 l -1 391 l -1 552 z "},"Ń":{"ha":844,"x_min":96,"x_max":749,"o":"m 277 643 l 277 8 l 96 0 l 96 1034 l 308 1042 l 576 422 l 576 1025 l 749 1042 l 749 8 l 582 -8 l 277 643 m 357 1173 l 558 1476 l 712 1339 l 433 1105 l 357 1173 z "},"ń":{"ha":749,"x_min":84,"x_max":680,"o":"m 475 522 q 455 602 475 579 q 404 625 435 625 q 346 608 378 625 q 279 571 313 591 l 279 8 l 84 -8 l 84 765 l 279 781 l 279 682 q 395 762 338 732 q 503 791 453 791 q 570 778 540 791 q 623 738 601 764 q 657 676 645 713 q 670 594 670 640 l 670 8 l 475 -8 l 475 522 m 325 913 l 526 1216 l 680 1079 l 401 844 l 325 913 z "},"Ņ":{"ha":844,"x_min":96,"x_max":749,"o":"m 277 643 l 277 8 l 96 0 l 96 1034 l 308 1042 l 576 422 l 576 1025 l 749 1042 l 749 8 l 582 -8 l 277 643 m 519 -61 l 519 -256 q 512 -321 519 -293 q 493 -369 505 -349 q 467 -404 482 -390 q 437 -427 452 -418 q 356 -452 401 -449 l 356 -321 q 394 -311 380 -321 q 413 -289 407 -301 q 421 -256 420 -275 l 323 -256 l 323 -61 l 519 -61 z "},"ņ":{"ha":749,"x_min":85,"x_max":671,"o":"m 475 522 q 456 602 475 579 q 404 625 436 625 q 346 608 378 625 q 280 571 314 591 l 280 8 l 85 -8 l 85 765 l 280 781 l 280 682 q 396 762 338 732 q 504 791 454 791 q 571 778 541 791 q 624 738 602 764 q 658 676 646 713 q 671 594 671 640 l 671 8 l 475 -8 l 475 522 m 472 -61 l 472 -256 q 465 -321 472 -293 q 447 -369 458 -349 q 420 -404 435 -390 q 391 -427 406 -418 q 309 -452 355 -449 l 309 -321 q 347 -311 334 -321 q 366 -289 360 -301 q 374 -256 374 -275 l 277 -256 l 277 -61 l 472 -61 z "},"Ň":{"ha":844,"x_min":96,"x_max":749,"o":"m 277 643 l 277 8 l 96 0 l 96 1034 l 308 1042 l 576 422 l 576 1025 l 749 1042 l 749 8 l 582 -8 l 277 643 m 334 1440 l 413 1244 l 478 1440 l 648 1440 l 492 1115 l 355 1115 l 192 1440 l 334 1440 z "},"ň":{"ha":749,"x_min":84,"x_max":670,"o":"m 475 522 q 455 602 475 579 q 404 625 435 625 q 346 608 378 625 q 279 571 313 591 l 279 8 l 84 -8 l 84 765 l 279 781 l 279 682 q 395 762 338 732 q 503 791 453 791 q 570 778 540 791 q 623 738 601 764 q 657 676 645 713 q 670 594 670 640 l 670 8 l 475 -8 l 475 522 m 180 1172 l 343 846 l 480 846 l 636 1172 l 467 1172 l 401 975 l 323 1172 l 180 1172 z "},"ŉ":{"ha":749,"x_min":50,"x_max":670,"o":"m 475 522 q 455 602 475 579 q 404 625 435 625 q 346 608 378 625 q 279 571 313 591 l 279 8 l 84 -8 l 84 765 l 279 781 l 279 682 q 395 762 338 732 q 503 791 453 791 q 570 778 540 791 q 623 738 601 764 q 657 676 645 713 q 670 594 670 640 l 670 8 l 475 -8 l 475 522 m 245 1211 l 245 1015 q 238 951 245 979 q 219 902 231 923 q 193 867 208 882 q 163 844 178 853 q 82 820 127 823 l 82 950 q 120 960 106 950 q 139 983 133 970 q 147 1015 146 997 l 50 1015 l 50 1211 l 245 1211 z "},"Ŋ":{"ha":844,"x_min":96,"x_max":749,"o":"m 426 -57 q 455 -64 442 -62 q 480 -66 469 -66 q 536 -54 516 -66 q 565 -20 555 -41 q 575 27 574 1 q 576 81 576 54 l 576 97 l 277 677 l 277 8 l 96 0 l 96 1034 l 308 1042 l 576 490 l 576 1025 l 749 1042 l 749 64 q 739 -49 749 2 q 707 -137 729 -100 q 647 -195 684 -174 q 556 -215 610 -215 q 426 -195 501 -215 l 426 -57 z "},"ŋ":{"ha":749,"x_min":84,"x_max":670,"o":"m 367 -65 q 427 -60 405 -65 q 459 -42 448 -54 q 472 -11 469 -31 q 475 37 475 8 l 475 522 q 455 602 475 579 q 404 625 435 625 q 346 608 378 625 q 279 571 313 591 l 279 8 l 84 -8 l 84 765 l 279 781 l 279 682 q 395 762 338 732 q 503 791 453 791 q 570 778 540 791 q 623 738 601 764 q 657 676 645 713 q 670 594 670 640 l 670 37 q 667 -62 670 -18 q 648 -135 665 -105 q 597 -180 632 -164 q 497 -195 562 -195 q 438 -192 470 -195 q 367 -182 406 -189 l 367 -65 z "},"Ō":{"ha":763,"x_min":58,"x_max":705,"o":"m 380 -22 q 264 1 314 -22 q 178 63 214 23 q 119 158 142 103 q 83 276 96 212 q 64 412 69 340 q 58 556 58 483 q 77 760 58 666 q 135 920 96 853 q 235 1022 174 986 q 380 1059 296 1059 q 527 1022 465 1059 q 628 920 588 986 q 686 760 667 853 q 705 556 705 666 q 699 412 705 483 q 680 276 694 340 q 643 158 666 212 q 583 63 619 103 q 497 1 547 23 q 380 -22 447 -22 m 380 151 q 445 179 421 151 q 482 260 469 208 q 498 388 494 313 q 501 556 501 463 q 500 624 501 589 q 495 698 499 660 q 483 772 491 736 q 462 836 475 808 q 428 880 448 863 q 380 897 408 897 q 333 880 353 897 q 300 836 313 863 q 279 772 287 808 q 267 698 271 736 q 262 624 263 660 q 261 556 261 589 q 264 388 261 463 q 280 260 268 313 q 316 179 292 208 q 380 151 340 151 m 186 1237 l 576 1237 l 576 1107 l 186 1107 l 186 1237 z "},"ō":{"ha":680,"x_min":47,"x_max":633,"o":"m 340 -18 q 212 12 267 -18 q 121 96 157 42 q 66 225 84 150 q 47 391 47 300 q 66 552 47 479 q 121 679 84 626 q 212 762 157 732 q 340 791 267 791 q 467 762 412 791 q 558 679 522 732 q 614 552 595 626 q 633 391 633 479 q 614 225 633 300 q 558 96 595 150 q 467 12 522 42 q 340 -18 412 -18 m 339 127 q 380 140 363 127 q 408 174 397 153 q 425 223 418 195 q 433 280 431 250 q 437 338 436 309 q 437 391 437 367 q 437 444 437 415 q 433 501 436 472 q 425 558 431 530 q 408 607 418 585 q 380 641 397 628 q 340 654 363 654 q 299 641 315 654 q 271 607 282 628 q 255 558 260 585 q 246 501 249 530 q 243 444 243 472 q 243 391 243 415 q 243 338 243 367 q 246 280 243 309 q 255 223 249 250 q 271 174 260 195 q 298 140 281 153 q 339 127 315 127 m 144 977 l 535 977 l 535 846 l 144 846 l 144 977 z "},"Ŏ":{"ha":763,"x_min":58,"x_max":705,"o":"m 380 -22 q 264 1 314 -22 q 178 63 214 23 q 119 158 142 103 q 83 276 96 212 q 64 412 69 340 q 58 556 58 483 q 77 760 58 666 q 135 920 96 853 q 235 1022 174 986 q 380 1059 296 1059 q 527 1022 465 1059 q 628 920 588 986 q 686 760 667 853 q 705 556 705 666 q 699 412 705 483 q 680 276 694 340 q 643 158 666 212 q 583 63 619 103 q 497 1 547 23 q 380 -22 447 -22 m 380 151 q 445 179 421 151 q 482 260 469 208 q 498 388 494 313 q 501 556 501 463 q 500 624 501 589 q 495 698 499 660 q 483 772 491 736 q 462 836 475 808 q 428 880 448 863 q 380 897 408 897 q 333 880 353 897 q 300 836 313 863 q 279 772 287 808 q 267 698 271 736 q 262 624 263 660 q 261 556 261 589 q 264 388 261 463 q 280 260 268 313 q 316 179 292 208 q 380 151 340 151 m 251 1432 q 253 1379 251 1408 q 267 1326 255 1351 q 306 1286 279 1302 q 381 1270 332 1270 q 456 1286 430 1270 q 495 1326 483 1302 q 509 1379 507 1351 q 511 1432 511 1408 l 674 1432 q 668 1365 674 1401 q 649 1293 663 1329 q 613 1223 635 1257 q 558 1164 591 1190 q 482 1122 526 1138 q 381 1107 438 1107 q 280 1122 324 1107 q 204 1164 237 1138 q 149 1223 172 1190 q 113 1293 127 1257 q 94 1365 100 1329 q 88 1432 88 1401 l 251 1432 z "},"ŏ":{"ha":680,"x_min":47,"x_max":635,"o":"m 340 -18 q 212 12 267 -18 q 121 96 157 42 q 66 225 84 150 q 47 391 47 300 q 66 552 47 479 q 121 679 84 626 q 212 762 157 732 q 340 791 267 791 q 467 762 412 791 q 558 679 522 732 q 614 552 595 626 q 633 391 633 479 q 614 225 633 300 q 558 96 595 150 q 467 12 522 42 q 340 -18 412 -18 m 339 127 q 380 140 363 127 q 408 174 397 153 q 425 223 418 195 q 433 280 431 250 q 437 338 436 309 q 437 391 437 367 q 437 444 437 415 q 433 501 436 472 q 425 558 431 530 q 408 607 418 585 q 380 641 397 628 q 340 654 363 654 q 299 641 315 654 q 271 607 282 628 q 255 558 260 585 q 246 501 249 530 q 243 444 243 472 q 243 391 243 415 q 243 338 243 367 q 246 280 243 309 q 255 223 249 250 q 271 174 260 195 q 298 140 281 153 q 339 127 315 127 m 212 1172 q 214 1119 212 1147 q 228 1066 216 1090 q 267 1025 240 1042 q 342 1009 293 1009 q 417 1025 391 1009 q 456 1066 444 1042 q 470 1119 468 1090 q 472 1172 472 1147 l 635 1172 q 629 1105 635 1141 q 610 1033 623 1069 q 574 963 596 996 q 519 903 551 929 q 443 862 486 878 q 342 846 399 846 q 241 862 285 846 q 165 903 197 878 q 110 963 132 929 q 74 1033 87 996 q 55 1105 60 1069 q 49 1172 49 1141 l 212 1172 z "},"Ő":{"ha":764,"x_min":59,"x_max":808,"o":"m 381 -22 q 265 1 315 -22 q 179 63 215 23 q 120 158 143 103 q 83 276 97 212 q 64 412 70 340 q 59 556 59 483 q 78 760 59 666 q 136 920 96 853 q 236 1022 175 986 q 381 1059 296 1059 q 527 1022 466 1059 q 628 920 589 986 q 687 760 668 853 q 705 556 705 666 q 700 412 705 483 q 681 276 694 340 q 643 158 667 212 q 584 63 620 103 q 498 1 548 23 q 381 -22 448 -22 m 381 151 q 446 179 422 151 q 483 260 470 208 q 498 388 495 313 q 502 556 502 463 q 501 624 502 589 q 496 698 500 660 q 484 772 492 736 q 463 836 476 808 q 429 880 449 863 q 381 897 409 897 q 334 880 353 897 q 301 836 314 863 q 280 772 288 808 q 268 698 272 736 q 263 624 264 660 q 262 556 262 589 q 265 388 262 463 q 281 260 269 313 q 317 179 293 208 q 381 151 340 151 m 467 1128 l 650 1453 l 808 1322 l 548 1061 l 467 1128 m 126 1128 l 309 1453 l 467 1322 l 207 1061 l 126 1128 z "},"ő":{"ha":681,"x_min":47,"x_max":759,"o":"m 340 -18 q 212 12 267 -18 q 121 96 157 42 q 66 225 84 150 q 47 391 47 300 q 66 552 47 479 q 121 679 84 626 q 212 762 157 732 q 340 791 267 791 q 467 762 412 791 q 558 679 522 732 q 614 552 595 626 q 633 391 633 479 q 614 225 633 300 q 558 96 595 150 q 467 12 522 42 q 340 -18 412 -18 m 339 127 q 380 140 363 127 q 408 174 397 153 q 425 223 418 195 q 433 280 431 250 q 437 338 436 309 q 437 391 437 367 q 437 444 437 415 q 433 501 436 472 q 425 558 431 530 q 408 607 418 585 q 380 641 397 628 q 340 654 363 654 q 299 641 315 654 q 271 607 282 628 q 255 558 260 585 q 246 501 249 530 q 243 444 243 472 q 243 391 243 415 q 243 338 243 367 q 246 280 243 309 q 255 223 249 250 q 271 174 260 195 q 298 140 281 153 q 339 127 315 127 m 418 854 l 600 1180 l 759 1048 l 498 788 l 418 854 m 77 854 l 259 1180 l 418 1048 l 157 788 l 77 854 z "},"Œ":{"ha":1097,"x_min":58,"x_max":1057,"o":"m 521 1042 l 1046 1042 l 1046 879 l 724 879 l 724 631 l 927 631 l 927 456 l 724 456 l 724 163 l 1057 163 l 1057 0 l 521 0 l 521 65 q 461 4 496 26 q 380 -18 427 -18 q 264 4 314 -18 q 178 65 214 26 q 119 157 142 104 q 83 274 96 211 q 64 407 69 337 q 58 549 58 477 q 77 752 58 661 q 135 910 96 844 q 235 1012 174 976 q 380 1048 296 1048 q 460 1027 425 1048 q 521 966 494 1006 l 521 1042 m 380 155 q 449 176 422 155 q 492 236 477 197 q 514 332 508 275 q 521 462 521 389 l 521 600 q 518 664 521 630 q 510 729 516 697 q 494 789 504 761 q 468 840 484 818 q 431 874 452 861 q 380 886 409 886 q 333 870 353 886 q 300 827 313 854 q 279 764 287 800 q 267 692 271 729 q 262 617 263 654 q 261 549 261 581 q 264 385 261 458 q 280 260 268 311 q 316 182 292 209 q 380 155 340 155 z "},"œ":{"ha":1044,"x_min":47,"x_max":1010,"o":"m 632 363 q 637 285 632 327 q 653 208 642 243 q 682 149 664 172 q 727 125 701 125 q 769 144 750 125 q 802 185 788 162 q 825 229 817 208 q 836 253 833 249 l 983 197 q 947 110 970 149 q 893 42 925 71 q 819 -2 861 14 q 724 -18 777 -18 q 616 10 661 -18 q 536 90 572 39 q 451 10 502 39 q 340 -18 400 -18 q 212 12 267 -18 q 121 96 157 42 q 66 225 84 150 q 47 391 47 300 q 66 552 47 479 q 121 679 84 626 q 212 762 157 732 q 340 791 267 791 q 452 761 400 791 q 538 676 503 730 q 620 761 574 731 q 730 791 666 791 q 852 762 800 791 q 940 679 905 732 q 993 551 975 625 q 1010 387 1010 476 l 1008 377 q 1006 369 1006 373 q 1005 363 1005 366 l 632 363 m 339 127 q 380 140 363 127 q 408 174 397 153 q 425 223 418 195 q 433 280 431 250 q 437 338 436 309 q 437 391 437 367 q 437 444 437 415 q 433 501 436 472 q 425 558 431 530 q 408 607 418 585 q 380 641 397 628 q 340 654 363 654 q 299 641 315 654 q 271 607 282 628 q 255 558 260 585 q 246 501 249 530 q 243 444 243 472 q 243 391 243 415 q 243 338 243 367 q 246 280 243 309 q 255 223 249 250 q 271 174 260 195 q 298 140 281 153 q 339 127 315 127 m 819 476 q 813 548 819 515 q 798 605 808 581 q 769 643 787 629 q 727 657 752 657 q 692 643 709 657 q 662 605 675 629 q 640 548 648 581 q 632 476 632 515 l 819 476 z "},"Ŕ":{"ha":784,"x_min":96,"x_max":764,"o":"m 96 -8 l 96 1034 l 343 1042 q 499 1025 429 1042 q 620 973 570 1008 q 698 882 671 937 q 726 751 726 827 q 715 660 726 701 q 684 587 704 619 q 637 531 665 555 q 576 488 610 507 q 585 467 576 487 q 606 416 593 448 q 636 343 619 384 q 670 260 652 302 q 764 36 711 161 l 564 -18 l 378 456 l 299 456 l 299 8 l 96 -8 m 299 607 l 368 607 q 427 612 399 607 q 476 632 454 617 q 510 675 497 648 q 522 749 522 703 q 512 811 522 786 q 485 851 503 836 q 445 872 468 866 q 394 879 421 879 l 299 879 l 299 607 m 328 1173 l 530 1476 l 684 1339 l 405 1105 l 328 1173 z "},"ŕ":{"ha":564,"x_min":84,"x_max":540,"o":"m 84 765 l 279 781 l 279 656 q 319 702 296 678 q 372 746 342 726 q 437 779 401 766 q 516 791 473 791 q 524 791 519 791 q 531 790 528 791 q 540 789 535 789 l 540 556 q 475 576 508 566 q 410 586 443 586 q 345 572 377 586 q 279 521 313 557 l 279 8 l 84 -8 l 84 765 m 149 913 l 351 1216 l 505 1079 l 226 844 l 149 913 z "},"Ŗ":{"ha":785,"x_min":96,"x_max":764,"o":"m 96 -8 l 96 1034 l 343 1042 q 499 1025 429 1042 q 620 973 570 1008 q 698 882 671 937 q 726 751 726 827 q 715 660 726 701 q 684 587 704 619 q 637 531 665 555 q 576 488 610 507 q 585 467 576 487 q 606 416 593 448 q 636 343 619 384 q 670 260 652 302 q 764 36 711 161 l 564 -18 l 378 456 l 299 456 l 299 8 l 96 -8 m 299 607 l 368 607 q 427 612 399 607 q 476 632 454 617 q 510 675 497 648 q 522 749 522 703 q 512 811 522 786 q 485 851 503 836 q 445 872 468 866 q 394 879 421 879 l 299 879 l 299 607 m 519 -61 l 519 -256 q 512 -321 519 -293 q 494 -369 505 -349 q 468 -404 483 -390 q 438 -427 453 -418 q 357 -452 402 -449 l 357 -321 q 394 -311 381 -321 q 414 -289 408 -301 q 422 -256 421 -275 l 324 -256 l 324 -61 l 519 -61 z "},"ŗ":{"ha":563,"x_min":85,"x_max":541,"o":"m 85 765 l 280 781 l 280 656 q 320 702 297 678 q 373 746 343 726 q 438 779 402 766 q 517 791 474 791 q 524 791 520 791 q 532 790 528 791 q 541 789 536 789 l 541 556 q 476 576 509 566 q 410 586 444 586 q 346 572 378 586 q 280 521 314 557 l 280 8 l 85 -8 l 85 765 m 288 -61 l 288 -256 q 281 -321 288 -293 q 263 -369 274 -349 q 237 -404 252 -390 q 207 -427 222 -418 q 125 -452 171 -449 l 125 -321 q 163 -311 150 -321 q 182 -289 176 -301 q 191 -256 190 -275 l 93 -256 l 93 -61 l 288 -61 z "},"Ř":{"ha":784,"x_min":96,"x_max":764,"o":"m 96 -8 l 96 1034 l 343 1042 q 499 1025 429 1042 q 620 973 570 1008 q 698 882 671 937 q 726 751 726 827 q 715 660 726 701 q 684 587 704 619 q 637 531 665 555 q 576 488 610 507 q 585 467 576 487 q 606 416 593 448 q 636 343 619 384 q 670 260 652 302 q 764 36 711 161 l 564 -18 l 378 456 l 299 456 l 299 8 l 96 -8 m 299 607 l 368 607 q 427 612 399 607 q 476 632 454 617 q 510 675 497 648 q 522 749 522 703 q 512 811 522 786 q 485 851 503 836 q 445 872 468 866 q 394 879 421 879 l 299 879 l 299 607 m 153 1105 l 316 1431 l 453 1431 l 609 1105 l 439 1105 l 374 1302 l 296 1105 l 153 1105 z "},"ř":{"ha":564,"x_min":31,"x_max":540,"o":"m 84 765 l 279 781 l 279 656 q 319 702 296 678 q 372 746 342 726 q 437 779 401 766 q 516 791 473 791 q 524 791 519 791 q 531 790 528 791 q 540 789 535 789 l 540 556 q 475 576 508 566 q 410 586 443 586 q 345 572 377 586 q 279 521 313 557 l 279 8 l 84 -8 l 84 765 m 174 1172 l 252 975 l 317 1172 l 487 1172 l 331 846 l 194 846 l 31 1172 l 174 1172 z "},"Ś":{"ha":741,"x_min":33,"x_max":704,"o":"m 501 774 q 478 823 489 800 q 454 863 468 846 q 420 891 440 881 q 370 901 401 901 q 329 892 347 901 q 299 869 311 884 q 282 834 288 854 q 276 793 276 814 q 281 760 276 775 q 296 731 287 744 q 317 708 305 718 q 340 690 328 697 l 508 592 q 606 521 568 558 q 665 447 644 484 q 694 376 686 410 q 704 314 703 342 q 679 177 704 239 q 608 71 653 115 q 503 2 564 26 q 372 -22 442 -22 q 252 -2 307 -22 q 156 53 198 18 q 82 135 113 87 q 33 239 52 183 l 205 319 q 237 266 220 295 q 277 211 255 236 q 326 168 298 185 q 391 151 354 151 q 426 160 409 151 q 455 183 442 168 q 475 216 467 197 q 483 255 483 235 q 463 328 483 296 q 414 378 443 359 l 231 486 q 162 535 193 507 q 107 596 130 563 q 71 669 83 630 q 58 751 58 707 q 82 878 58 821 q 150 977 107 935 q 253 1041 193 1018 q 381 1063 312 1063 q 562 1009 487 1063 q 673 852 637 956 l 501 774 m 329 1173 l 530 1476 l 684 1339 l 406 1105 l 329 1173 z "},"ś":{"ha":628,"x_min":41,"x_max":591,"o":"m 191 229 q 212 182 197 202 q 247 150 224 164 q 305 136 269 136 q 336 139 319 136 q 368 149 353 142 q 393 169 383 157 q 404 199 404 180 q 386 240 404 224 q 345 266 368 256 l 181 332 q 80 415 115 359 q 45 552 45 471 q 68 655 45 610 q 127 730 90 700 q 211 776 163 760 q 309 791 258 791 q 392 779 351 791 q 469 743 433 767 q 530 684 504 719 q 569 603 556 648 l 409 553 q 389 600 401 579 q 358 632 377 618 q 311 647 339 647 q 280 644 295 647 q 253 632 265 640 q 234 613 241 625 q 227 585 227 601 q 234 561 227 572 q 251 543 241 551 q 273 528 262 534 q 294 518 285 522 l 433 460 q 495 426 466 446 q 545 379 524 406 q 578 316 566 352 q 591 232 591 279 q 567 122 591 169 q 505 44 543 75 q 417 -3 466 13 q 318 -18 368 -18 q 212 -4 258 -18 q 130 35 165 9 q 73 98 96 61 q 41 180 51 134 l 191 229 m 203 913 l 404 1216 l 558 1079 l 279 844 l 203 913 z "},"Ŝ":{"ha":741,"x_min":33,"x_max":704,"o":"m 501 774 q 478 823 489 800 q 454 863 468 846 q 420 891 440 881 q 370 901 401 901 q 329 892 347 901 q 299 869 311 884 q 282 834 288 854 q 276 793 276 814 q 281 760 276 775 q 296 731 287 744 q 317 708 305 718 q 340 690 328 697 l 508 592 q 606 521 568 558 q 665 447 644 484 q 694 376 686 410 q 704 314 703 342 q 679 177 704 239 q 608 71 653 115 q 503 2 564 26 q 372 -22 442 -22 q 252 -2 307 -22 q 156 53 198 18 q 82 135 113 87 q 33 239 52 183 l 205 319 q 237 266 220 295 q 277 211 255 236 q 326 168 298 185 q 391 151 354 151 q 426 160 409 151 q 455 183 442 168 q 475 216 467 197 q 483 255 483 235 q 463 328 483 296 q 414 378 443 359 l 231 486 q 162 535 193 507 q 107 596 130 563 q 71 669 83 630 q 58 751 58 707 q 82 878 58 821 q 150 977 107 935 q 253 1041 193 1018 q 381 1063 312 1063 q 562 1009 487 1063 q 673 852 637 956 l 501 774 m 157 1107 l 319 1432 l 456 1432 l 612 1107 l 443 1107 l 378 1303 l 299 1107 l 157 1107 z "},"ŝ":{"ha":628,"x_min":41,"x_max":591,"o":"m 191 229 q 212 182 197 202 q 247 150 224 164 q 305 136 269 136 q 336 139 319 136 q 368 149 353 142 q 393 169 383 157 q 404 199 404 180 q 386 240 404 224 q 345 266 368 256 l 181 332 q 80 415 115 359 q 45 552 45 471 q 68 655 45 610 q 127 730 90 700 q 211 776 163 760 q 309 791 258 791 q 392 779 351 791 q 469 743 433 767 q 530 684 504 719 q 569 603 556 648 l 409 553 q 389 600 401 579 q 358 632 377 618 q 311 647 339 647 q 280 644 295 647 q 253 632 265 640 q 234 613 241 625 q 227 585 227 601 q 234 561 227 572 q 251 543 241 551 q 273 528 262 534 q 294 518 285 522 l 433 460 q 495 426 466 446 q 545 379 524 406 q 578 316 566 352 q 591 232 591 279 q 567 122 591 169 q 505 44 543 75 q 417 -3 466 13 q 318 -18 368 -18 q 212 -4 258 -18 q 130 35 165 9 q 73 98 96 61 q 41 180 51 134 l 191 229 m 85 846 l 248 1172 l 385 1172 l 541 846 l 371 846 l 306 1043 l 227 846 l 85 846 z "},"Ş":{"ha":741,"x_min":33,"x_max":704,"o":"m 501 774 q 478 823 489 800 q 454 863 468 846 q 420 891 440 881 q 370 901 401 901 q 329 892 347 901 q 299 869 311 884 q 282 834 288 854 q 276 793 276 814 q 281 760 276 775 q 296 731 287 744 q 317 708 305 718 q 340 690 328 697 l 508 592 q 606 521 568 558 q 665 447 644 484 q 694 376 686 410 q 704 314 703 342 q 679 177 704 239 q 608 71 653 115 q 503 2 564 26 q 372 -22 442 -22 q 252 -2 307 -22 q 156 53 198 18 q 82 135 113 87 q 33 239 52 183 l 205 319 q 237 266 220 295 q 277 211 255 236 q 326 168 298 185 q 391 151 354 151 q 426 160 409 151 q 455 183 442 168 q 475 216 467 197 q 483 255 483 235 q 463 328 483 296 q 414 378 443 359 l 231 486 q 162 535 193 507 q 107 596 130 563 q 71 669 83 630 q 58 751 58 707 q 82 878 58 821 q 150 977 107 935 q 253 1041 193 1018 q 381 1063 312 1063 q 562 1009 487 1063 q 673 852 637 956 l 501 774 m 348 33 l 451 33 l 431 -52 q 500 -81 472 -63 q 545 -117 528 -98 q 572 -156 563 -136 q 586 -191 582 -175 q 590 -217 590 -207 q 591 -230 591 -228 q 578 -298 591 -271 q 546 -344 566 -326 q 499 -369 526 -361 q 444 -377 473 -377 q 358 -365 400 -377 q 288 -334 317 -353 l 288 -222 q 342 -241 318 -235 q 386 -246 366 -246 q 436 -231 421 -246 q 451 -196 451 -216 q 444 -168 451 -182 q 420 -142 436 -154 q 380 -123 404 -131 q 321 -116 355 -116 l 348 33 z "},"ş":{"ha":629,"x_min":42,"x_max":592,"o":"m 193 229 q 214 182 199 202 q 248 150 226 164 q 307 136 271 136 q 337 139 320 136 q 370 149 355 142 q 395 169 385 157 q 405 199 405 180 q 387 240 405 224 q 346 266 370 256 l 182 332 q 82 415 117 359 q 47 552 47 471 q 69 655 47 610 q 128 730 92 700 q 212 776 165 760 q 311 791 260 791 q 394 779 353 791 q 470 743 435 767 q 531 684 505 719 q 570 603 557 648 l 410 553 q 390 600 403 579 q 359 632 378 618 q 312 647 340 647 q 281 644 296 647 q 255 632 267 640 q 235 613 243 625 q 228 585 228 601 q 235 561 228 572 q 253 543 242 551 q 275 528 263 534 q 296 518 286 522 l 435 460 q 496 426 467 446 q 546 379 525 406 q 580 316 568 352 q 592 232 592 279 q 568 122 592 169 q 506 44 545 75 q 418 -3 467 13 q 319 -18 370 -18 q 213 -4 260 -18 q 132 35 166 9 q 75 98 97 61 q 42 180 52 134 l 193 229 m 220 33 l 323 33 l 302 -52 q 372 -81 344 -63 q 417 -117 399 -98 q 444 -156 435 -136 q 458 -191 454 -175 q 462 -217 462 -207 q 463 -230 463 -228 q 450 -298 463 -271 q 418 -344 438 -326 q 371 -369 397 -361 q 316 -377 345 -377 q 230 -365 272 -377 q 160 -334 189 -353 l 160 -222 q 214 -241 190 -235 q 258 -246 238 -246 q 308 -231 293 -246 q 323 -196 323 -216 q 315 -168 323 -182 q 292 -142 308 -154 q 252 -123 276 -131 q 193 -116 227 -116 l 220 33 z "},"Š":{"ha":740,"x_min":33,"x_max":704,"o":"m 501 774 q 478 823 489 800 q 454 863 468 846 q 420 891 440 881 q 370 901 401 901 q 329 892 347 901 q 299 869 311 884 q 282 834 288 854 q 276 793 276 814 q 281 760 276 775 q 296 731 287 744 q 317 708 305 718 q 340 690 328 697 l 508 592 q 606 521 568 558 q 665 447 644 484 q 694 376 686 410 q 704 314 703 342 q 679 177 704 239 q 608 71 653 115 q 503 2 564 26 q 372 -22 442 -22 q 252 -2 307 -22 q 156 53 198 18 q 82 135 113 87 q 33 239 52 183 l 205 319 q 237 266 220 295 q 277 211 255 236 q 326 168 298 185 q 391 151 354 151 q 426 160 409 151 q 455 183 442 168 q 475 216 467 197 q 483 255 483 235 q 463 328 483 296 q 414 378 443 359 l 231 486 q 162 535 193 507 q 107 596 130 563 q 71 669 83 630 q 58 751 58 707 q 82 878 58 821 q 150 977 107 935 q 253 1041 193 1018 q 381 1063 312 1063 q 562 1009 487 1063 q 673 852 637 956 l 501 774 m 285 1432 l 363 1236 l 429 1432 l 598 1432 l 442 1107 l 305 1107 l 142 1432 l 285 1432 z "},"š":{"ha":628,"x_min":41,"x_max":591,"o":"m 191 229 q 212 182 197 202 q 247 150 224 164 q 305 136 269 136 q 336 139 319 136 q 368 149 353 142 q 393 169 383 157 q 404 199 404 180 q 386 240 404 224 q 345 266 368 256 l 181 332 q 80 415 115 359 q 45 552 45 471 q 68 655 45 610 q 127 730 90 700 q 211 776 163 760 q 309 791 258 791 q 392 779 351 791 q 469 743 433 767 q 530 684 504 719 q 569 603 556 648 l 409 553 q 389 600 401 579 q 358 632 377 618 q 311 647 339 647 q 280 644 295 647 q 253 632 265 640 q 234 613 241 625 q 227 585 227 601 q 234 561 227 572 q 251 543 241 551 q 273 528 262 534 q 294 518 285 522 l 433 460 q 495 426 466 446 q 545 379 524 406 q 578 316 566 352 q 591 232 591 279 q 567 122 591 169 q 505 44 543 75 q 417 -3 466 13 q 318 -18 368 -18 q 212 -4 258 -18 q 130 35 165 9 q 73 98 96 61 q 41 180 51 134 l 191 229 m 227 1172 l 306 975 l 371 1172 l 541 1172 l 385 846 l 248 846 l 85 1172 l 227 1172 z "},"Ţ":{"ha":663,"x_min":20,"x_max":647,"o":"m 20 879 l 37 1042 l 647 1042 l 631 879 l 436 879 l 436 8 l 233 -8 l 233 879 l 20 879 m 433 -61 l 433 -256 q 426 -321 433 -293 q 407 -369 418 -349 q 381 -404 396 -390 q 351 -427 366 -418 q 270 -452 315 -449 l 270 -321 q 308 -311 294 -321 q 327 -289 321 -301 q 335 -256 334 -275 l 237 -256 l 237 -61 l 433 -61 z "},"ţ":{"ha":498,"x_min":20,"x_max":484,"o":"m 135 781 l 155 951 l 324 975 l 324 781 l 484 781 l 476 635 l 325 635 l 325 204 q 334 166 325 181 q 358 144 344 152 q 391 133 373 136 q 425 130 408 130 q 459 132 446 130 q 473 135 467 134 l 473 1 q 437 -9 458 -5 q 391 -15 418 -12 q 324 -18 363 -18 q 258 -9 292 -18 q 195 21 224 0 q 148 78 167 43 q 130 165 130 113 l 130 635 l 20 635 l 28 781 l 135 781 m 392 -63 l 392 -258 q 385 -323 392 -295 q 367 -371 378 -351 q 340 -406 355 -392 q 311 -429 326 -420 q 229 -454 275 -451 l 229 -323 q 267 -313 254 -323 q 286 -291 280 -303 q 294 -258 294 -277 l 197 -258 l 197 -63 l 392 -63 z "},"Ť":{"ha":663,"x_min":19,"x_max":646,"o":"m 19 879 l 35 1042 l 646 1042 l 629 879 l 435 879 l 435 8 l 231 -8 l 231 879 l 19 879 m 245 1432 l 324 1236 l 389 1432 l 559 1432 l 403 1107 l 266 1107 l 103 1432 l 245 1432 z "},"ť":{"ha":496,"x_min":19,"x_max":570,"o":"m 134 781 l 153 951 l 323 975 l 323 781 l 483 781 l 475 635 l 323 635 l 323 204 q 333 166 323 181 q 357 144 342 152 q 389 133 372 136 q 423 130 407 130 q 458 132 444 130 q 472 135 465 134 l 472 1 q 435 -9 457 -5 q 389 -15 417 -12 q 323 -18 361 -18 q 257 -9 291 -18 q 194 21 222 0 q 147 78 165 43 q 128 165 128 113 l 128 635 l 19 635 l 27 781 l 134 781 m 570 1248 l 570 1053 q 563 988 570 1016 q 545 940 556 960 q 519 905 534 919 q 489 882 504 890 q 408 857 453 860 l 408 987 q 445 998 432 987 q 465 1020 458 1008 q 473 1053 472 1034 l 375 1044 l 375 1248 l 570 1248 z "},"Ŧ":{"ha":663,"x_min":19,"x_max":646,"o":"m 19 879 l 35 1042 l 646 1042 l 629 879 l 435 879 l 435 8 l 231 -8 l 231 879 l 19 879 m 132 547 l 522 547 l 522 416 l 132 416 l 132 547 z "},"ŧ":{"ha":497,"x_min":20,"x_max":484,"o":"m 134 781 l 154 951 l 323 975 l 323 781 l 484 781 l 475 635 l 324 635 l 324 204 q 334 166 324 181 q 358 144 343 152 q 390 133 372 136 q 424 130 408 130 q 458 132 445 130 q 473 135 466 134 l 473 1 q 436 -9 458 -5 q 390 -15 418 -12 q 323 -18 362 -18 q 257 -9 292 -18 q 195 21 223 0 q 148 78 166 43 q 129 165 129 113 l 129 635 l 20 635 l 28 781 l 134 781 m 41 523 l 431 523 l 431 393 l 41 393 l 41 523 z "},"Ũ":{"ha":789,"x_min":90,"x_max":699,"o":"m 90 1034 l 293 1042 l 293 327 q 295 264 293 296 q 308 208 297 233 q 342 167 319 183 q 407 151 365 151 q 468 168 446 151 q 499 210 489 184 q 511 267 509 235 q 513 329 513 298 l 513 1025 l 699 1042 l 699 367 q 698 297 699 337 q 688 213 696 256 q 661 128 680 170 q 606 52 642 85 q 515 -1 570 19 q 379 -22 460 -22 q 249 8 304 -22 q 159 87 195 37 q 106 203 123 137 q 90 343 90 270 l 90 1034 m 179 1220 q 222 1261 199 1243 q 264 1290 241 1277 q 310 1303 287 1303 q 359 1294 337 1303 q 400 1276 380 1286 q 439 1257 420 1265 q 480 1249 458 1249 q 525 1257 506 1249 q 557 1276 545 1265 q 581 1303 571 1288 l 611 1193 q 602 1177 611 1192 q 577 1143 593 1161 q 536 1109 560 1124 q 481 1095 512 1095 q 437 1105 457 1095 q 397 1129 417 1116 q 354 1152 376 1141 q 302 1163 332 1163 q 261 1153 281 1163 q 225 1129 241 1142 q 189 1095 206 1114 l 179 1220 z "},"ũ":{"ha":749,"x_min":79,"x_max":665,"o":"m 274 258 q 292 178 274 201 q 338 155 309 155 q 367 160 352 155 q 399 174 382 165 q 434 193 416 182 q 469 216 452 204 l 469 765 l 665 781 l 665 8 l 469 -8 l 469 92 q 357 11 412 41 q 252 -18 301 -18 q 182 -4 214 -18 q 127 35 151 9 q 92 97 104 60 q 79 179 79 134 l 79 765 l 274 781 l 274 258 m 157 960 q 200 1001 178 983 q 242 1029 219 1017 q 288 1042 265 1042 q 337 1034 315 1042 q 379 1015 359 1025 q 418 997 399 1005 q 458 988 437 988 q 504 997 484 988 q 535 1015 523 1005 q 559 1042 549 1027 l 589 932 q 581 916 589 932 q 555 882 572 901 q 514 849 538 864 q 460 834 490 834 q 415 845 435 834 q 375 868 395 856 q 332 892 355 881 q 281 903 310 903 q 239 892 260 903 q 203 869 219 882 q 168 835 184 854 l 157 960 z "},"Ū":{"ha":789,"x_min":90,"x_max":699,"o":"m 90 1034 l 293 1042 l 293 327 q 295 264 293 296 q 308 208 297 233 q 342 167 319 183 q 407 151 365 151 q 468 168 446 151 q 499 210 489 184 q 511 267 509 235 q 513 329 513 298 l 513 1025 l 699 1042 l 699 367 q 698 297 699 337 q 688 213 696 256 q 661 128 680 170 q 606 52 642 85 q 515 -1 570 19 q 379 -22 460 -22 q 249 8 304 -22 q 159 87 195 37 q 106 203 123 137 q 90 343 90 270 l 90 1034 m 199 1237 l 590 1237 l 590 1107 l 199 1107 l 199 1237 z "},"ū":{"ha":749,"x_min":79,"x_max":665,"o":"m 274 258 q 292 178 274 201 q 338 155 309 155 q 367 160 352 155 q 399 174 382 165 q 434 193 416 182 q 469 216 452 204 l 469 765 l 665 781 l 665 8 l 469 -8 l 469 92 q 357 11 412 41 q 252 -18 301 -18 q 182 -4 214 -18 q 127 35 151 9 q 92 97 104 60 q 79 179 79 134 l 79 765 l 274 781 l 274 258 m 178 977 l 569 977 l 569 846 l 178 846 l 178 977 z "},"Ŭ":{"ha":789,"x_min":90,"x_max":699,"o":"m 90 1034 l 293 1042 l 293 327 q 295 264 293 296 q 308 208 297 233 q 342 167 319 183 q 407 151 365 151 q 468 168 446 151 q 499 210 489 184 q 511 267 509 235 q 513 329 513 298 l 513 1025 l 699 1042 l 699 367 q 698 297 699 337 q 688 213 696 256 q 661 128 680 170 q 606 52 642 85 q 515 -1 570 19 q 379 -22 460 -22 q 249 8 304 -22 q 159 87 195 37 q 106 203 123 137 q 90 343 90 270 l 90 1034 m 264 1432 q 267 1379 264 1408 q 281 1326 269 1351 q 319 1286 293 1302 q 395 1270 346 1270 q 470 1286 444 1270 q 509 1326 496 1302 q 523 1379 521 1351 q 525 1432 525 1408 l 688 1432 q 682 1365 688 1401 q 663 1293 676 1329 q 627 1223 649 1257 q 572 1164 604 1190 q 495 1122 539 1138 q 395 1107 452 1107 q 294 1122 338 1107 q 218 1164 250 1138 q 163 1223 185 1190 q 127 1293 140 1257 q 107 1365 113 1329 q 102 1432 102 1401 l 264 1432 z "},"ŭ":{"ha":749,"x_min":79,"x_max":667,"o":"m 274 258 q 292 178 274 201 q 338 155 309 155 q 367 160 352 155 q 399 174 382 165 q 434 193 416 182 q 469 216 452 204 l 469 765 l 665 781 l 665 8 l 469 -8 l 469 92 q 357 11 412 41 q 252 -18 301 -18 q 182 -4 214 -18 q 127 35 151 9 q 92 97 104 60 q 79 179 79 134 l 79 765 l 274 781 l 274 258 m 243 1172 q 245 1119 243 1147 q 260 1066 248 1090 q 298 1025 272 1042 q 374 1009 325 1009 q 449 1025 422 1009 q 488 1066 475 1042 q 502 1119 500 1090 q 504 1172 504 1147 l 667 1172 q 661 1105 667 1141 q 642 1033 655 1069 q 606 963 628 996 q 551 903 583 929 q 474 862 518 878 q 374 846 431 846 q 273 862 317 846 q 197 903 229 878 q 142 963 164 929 q 106 1033 119 996 q 86 1105 92 1069 q 81 1172 81 1141 l 243 1172 z "},"Ů":{"ha":789,"x_min":90,"x_max":699,"o":"m 90 1034 l 293 1042 l 293 327 q 295 264 293 296 q 308 208 297 233 q 342 167 319 183 q 407 151 365 151 q 468 168 446 151 q 499 210 489 184 q 511 267 509 235 q 513 329 513 298 l 513 1025 l 699 1042 l 699 367 q 698 297 699 337 q 688 213 696 256 q 661 128 680 170 q 606 52 642 85 q 515 -1 570 19 q 379 -22 460 -22 q 249 8 304 -22 q 159 87 195 37 q 106 203 123 137 q 90 343 90 270 l 90 1034 m 395 1107 q 317 1118 355 1107 q 250 1153 279 1130 q 201 1210 220 1175 q 183 1292 183 1245 q 201 1373 183 1338 q 250 1430 220 1407 q 317 1464 279 1453 q 395 1476 355 1476 q 473 1464 435 1476 q 541 1430 511 1453 q 589 1373 570 1407 q 607 1292 607 1338 q 589 1210 607 1245 q 541 1153 570 1175 q 473 1118 511 1130 q 395 1107 435 1107 m 395 1215 q 425 1219 410 1215 q 452 1234 440 1224 q 471 1258 464 1244 q 479 1291 479 1272 q 471 1323 479 1310 q 452 1347 464 1337 q 426 1361 441 1356 q 395 1367 410 1367 q 365 1361 380 1367 q 337 1347 349 1356 q 318 1323 326 1337 q 311 1291 311 1310 q 318 1258 311 1272 q 337 1234 326 1244 q 364 1219 349 1224 q 395 1215 379 1215 z "},"ů":{"ha":749,"x_min":79,"x_max":665,"o":"m 274 258 q 292 178 274 201 q 338 155 309 155 q 367 160 352 155 q 399 174 382 165 q 434 193 416 182 q 469 216 452 204 l 469 765 l 665 781 l 665 8 l 469 -8 l 469 92 q 357 11 412 41 q 252 -18 301 -18 q 182 -4 214 -18 q 127 35 151 9 q 92 97 104 60 q 79 179 79 134 l 79 765 l 274 781 l 274 258 m 374 846 q 296 858 334 846 q 228 892 258 869 q 180 950 198 915 q 161 1031 161 985 q 180 1112 161 1078 q 228 1170 198 1147 q 296 1204 258 1192 q 374 1215 334 1215 q 451 1204 413 1215 q 519 1170 489 1192 q 567 1112 549 1147 q 585 1031 585 1078 q 567 950 585 985 q 519 892 549 915 q 451 858 489 869 q 374 846 413 846 m 373 954 q 404 959 389 954 q 430 974 418 964 q 450 998 442 983 q 457 1031 457 1012 q 450 1063 457 1049 q 431 1086 442 1077 q 404 1101 419 1096 q 374 1106 389 1106 q 343 1101 358 1106 q 316 1086 328 1096 q 297 1063 304 1077 q 290 1031 290 1049 q 297 998 290 1012 q 316 974 304 983 q 342 959 328 964 q 373 954 357 954 z "},"Ű":{"ha":789,"x_min":54,"x_max":736,"o":"m 90 1034 l 293 1042 l 293 327 q 295 264 293 296 q 308 208 297 233 q 342 167 319 183 q 407 151 365 151 q 468 168 446 151 q 499 210 489 184 q 511 267 509 235 q 513 329 513 298 l 513 1025 l 699 1042 l 699 367 q 698 297 699 337 q 688 213 696 256 q 661 128 680 170 q 606 52 642 85 q 515 -1 570 19 q 379 -22 460 -22 q 249 8 304 -22 q 159 87 195 37 q 106 203 123 137 q 90 343 90 270 l 90 1034 m 395 1107 l 577 1432 l 736 1301 l 475 1040 l 395 1107 m 54 1107 l 236 1432 l 395 1301 l 134 1040 l 54 1107 z "},"ű":{"ha":749,"x_min":35,"x_max":717,"o":"m 274 258 q 292 178 274 201 q 338 155 309 155 q 367 160 352 155 q 399 174 382 165 q 434 193 416 182 q 469 216 452 204 l 469 765 l 665 781 l 665 8 l 469 -8 l 469 92 q 357 11 412 41 q 252 -18 301 -18 q 182 -4 214 -18 q 127 35 151 9 q 92 97 104 60 q 79 179 79 134 l 79 765 l 274 781 l 274 258 m 376 846 l 558 1172 l 717 1040 l 456 780 l 376 846 m 35 846 l 217 1172 l 376 1040 l 115 780 l 35 846 z "},"Ų":{"ha":788,"x_min":90,"x_max":699,"o":"m 90 1034 l 293 1042 l 293 327 q 295 264 293 296 q 308 208 297 233 q 342 167 319 183 q 407 151 365 151 q 468 168 446 151 q 499 210 489 184 q 511 267 509 235 q 513 329 513 298 l 513 1025 l 699 1042 l 699 367 q 698 297 699 337 q 688 213 696 256 q 661 128 680 170 q 606 52 642 85 q 515 -1 570 19 q 379 -22 460 -22 q 249 8 304 -22 q 159 87 195 37 q 106 203 123 137 q 90 343 90 270 l 90 1034 m 477 -68 q 474 -88 474 -81 q 490 -121 474 -112 q 528 -130 505 -130 q 556 -127 541 -130 q 585 -121 571 -125 q 610 -113 598 -117 q 629 -106 621 -109 l 629 -218 q 572 -250 609 -239 q 494 -261 535 -261 q 436 -255 465 -261 q 385 -234 407 -248 q 348 -199 362 -220 q 334 -148 334 -178 q 337 -125 334 -137 q 346 -100 340 -114 l 388 14 l 498 14 l 477 -68 z "},"ų":{"ha":748,"x_min":79,"x_max":712,"o":"m 274 258 q 292 178 274 201 q 338 155 309 155 q 367 160 352 155 q 399 174 382 165 q 434 193 416 182 q 469 216 452 204 l 469 765 l 665 781 l 665 8 l 469 -8 l 469 92 q 357 11 412 41 q 252 -18 301 -18 q 182 -4 214 -18 q 127 35 151 9 q 92 97 104 60 q 79 179 79 134 l 79 765 l 274 781 l 274 258 m 561 -68 q 557 -88 557 -81 q 573 -121 557 -112 q 611 -130 589 -130 q 640 -127 625 -130 q 668 -121 654 -125 q 693 -113 682 -117 q 712 -106 705 -109 l 712 -218 q 655 -250 692 -239 q 578 -261 618 -261 q 519 -255 548 -261 q 468 -234 490 -248 q 432 -199 446 -220 q 418 -148 418 -178 q 421 -125 418 -137 q 429 -100 424 -114 l 471 14 l 581 14 l 561 -68 z "},"Ŵ":{"ha":1076,"x_min":18,"x_max":1063,"o":"m 416 0 l 230 0 l 18 1034 l 241 1042 l 351 418 l 468 1034 l 634 1042 l 744 411 l 877 1034 l 1063 1042 l 841 0 l 640 0 l 529 636 l 416 0 m 311 1107 l 474 1432 l 611 1432 l 767 1107 l 597 1107 l 532 1303 l 454 1107 l 311 1107 z "},"ŵ":{"ha":892,"x_min":24,"x_max":879,"o":"m 454 507 l 345 0 l 185 0 l 24 766 l 223 781 l 290 339 l 389 765 l 551 781 l 635 345 l 720 765 l 879 773 l 700 0 l 543 0 l 454 507 m 221 846 l 384 1172 l 521 1172 l 677 846 l 507 846 l 442 1043 l 363 846 l 221 846 z "},"Ŷ":{"ha":696,"x_min":-2,"x_max":695,"o":"m 249 412 l -2 1042 l 222 1042 l 365 608 l 519 1042 l 695 1042 l 454 436 l 454 8 l 249 -8 l 249 412 m 119 1107 l 281 1432 l 418 1432 l 574 1107 l 405 1107 l 340 1303 l 261 1107 l 119 1107 z "},"ŷ":{"ha":611,"x_min":1,"x_max":603,"o":"m 20 -77 q 54 -78 38 -77 q 81 -79 68 -79 q 101 -79 95 -79 q 158 -71 135 -79 q 197 -48 182 -63 q 218 -12 212 -33 q 224 35 224 9 l 224 73 l 1 772 l 213 781 l 323 292 l 427 777 l 603 779 l 403 14 q 342 -123 378 -71 q 266 -202 307 -175 q 183 -239 225 -230 q 102 -248 140 -248 q 73 -246 88 -248 q 47 -243 58 -245 q 20 -239 33 -241 l 20 -77 m 87 846 l 250 1172 l 387 1172 l 543 846 l 373 846 l 308 1043 l 229 846 l 87 846 z "},"Ÿ":{"ha":696,"x_min":-2,"x_max":695,"o":"m 249 412 l -2 1042 l 222 1042 l 365 608 l 519 1042 l 695 1042 l 454 436 l 454 8 l 249 -8 l 249 412 m 283 1302 l 283 1107 l 88 1107 l 88 1302 l 283 1302 m 609 1302 l 609 1107 l 414 1107 l 414 1302 l 609 1302 z "},"Ź":{"ha":684,"x_min":35,"x_max":644,"o":"m 394 879 l 66 879 l 83 1042 l 634 1042 l 634 907 l 286 163 l 644 163 l 611 0 l 35 0 l 35 129 l 394 879 m 233 1173 l 434 1476 l 588 1339 l 309 1105 l 233 1173 z "},"ź":{"ha":597,"x_min":36,"x_max":566,"o":"m 566 159 l 549 0 l 36 0 l 36 123 l 304 627 l 56 627 l 73 781 l 537 781 l 537 666 l 274 159 l 566 159 m 188 913 l 389 1216 l 543 1079 l 264 844 l 188 913 z "},"Ż":{"ha":684,"x_min":35,"x_max":644,"o":"m 394 879 l 66 879 l 83 1042 l 634 1042 l 634 907 l 286 163 l 644 163 l 611 0 l 35 0 l 35 129 l 394 879 m 440 1303 l 440 1108 l 245 1107 l 245 1302 l 440 1303 z "},"ż":{"ha":597,"x_min":36,"x_max":566,"o":"m 566 159 l 549 0 l 36 0 l 36 123 l 304 627 l 56 627 l 73 781 l 537 781 l 537 666 l 274 159 l 566 159 m 395 1043 l 395 848 l 200 847 l 200 1042 l 395 1043 z "},"Ž":{"ha":684,"x_min":35,"x_max":644,"o":"m 394 879 l 66 879 l 83 1042 l 634 1042 l 634 907 l 286 163 l 644 163 l 611 0 l 35 0 l 35 129 l 394 879 m 257 1432 l 336 1236 l 401 1432 l 570 1432 l 414 1107 l 277 1107 l 115 1432 l 257 1432 z "},"ž":{"ha":597,"x_min":36,"x_max":566,"o":"m 566 159 l 549 0 l 36 0 l 36 123 l 304 627 l 56 627 l 73 781 l 537 781 l 537 666 l 274 159 l 566 159 m 212 1172 l 291 975 l 356 1172 l 526 1172 l 370 846 l 233 846 l 70 1172 l 212 1172 z "},"Ə":{"ha":752,"x_min":47,"x_max":694,"o":"m 490 553 l 490 556 q 489 627 490 589 q 484 703 488 665 q 472 777 480 741 q 451 841 465 813 q 417 885 437 868 q 370 901 397 901 q 321 886 342 901 q 287 843 301 870 q 262 782 272 817 q 248 708 253 747 l 60 774 q 103 895 76 841 q 169 986 130 949 q 257 1043 207 1023 q 370 1063 307 1063 q 516 1027 454 1063 q 617 924 577 991 q 675 764 656 858 q 694 556 694 671 q 688 412 694 483 q 669 276 683 340 q 632 158 655 212 q 572 63 608 103 q 486 1 536 23 q 370 -22 436 -22 q 253 1 303 -22 q 168 63 203 23 q 109 157 132 103 q 72 276 85 212 q 53 410 58 340 q 47 553 47 481 l 490 553 m 370 151 q 423 168 401 151 q 458 218 444 185 q 478 297 471 250 q 488 404 485 344 l 253 404 q 262 298 256 345 q 282 218 269 251 q 316 169 295 186 q 370 151 338 151 z "},"ƒ":{"ha":477,"x_min":-5,"x_max":452,"o":"m 321 -15 q 318 -107 321 -62 q 295 -188 314 -153 q 237 -245 277 -224 q 127 -267 198 -267 q 66 -264 91 -267 q 26 -257 41 -261 q -5 -247 7 -253 l -5 -130 l 38 -130 q 86 -120 68 -130 q 113 -94 104 -110 q 124 -57 121 -77 q 126 -14 126 -36 l 126 427 l 30 427 l 30 586 l 126 586 l 126 796 q 130 889 126 844 q 152 969 134 934 q 210 1027 171 1005 q 320 1048 250 1048 q 381 1045 356 1048 q 422 1038 406 1042 q 452 1028 440 1034 l 452 911 l 410 911 q 361 901 379 911 q 335 875 344 891 q 324 838 326 859 q 321 795 321 817 l 321 586 l 451 586 l 451 425 l 321 425 l 321 -15 z "},"Ǆ":{"ha":1417,"x_min":96,"x_max":1378,"o":"m 96 1042 l 309 1042 q 616 912 515 1042 q 718 517 718 782 q 709 387 718 451 q 682 266 701 323 q 634 159 663 208 q 564 75 605 111 q 468 20 522 40 q 345 0 414 0 l 96 0 l 96 1042 m 299 879 l 299 163 l 328 163 q 396 176 367 163 q 446 212 425 189 q 480 266 467 235 q 501 332 493 297 q 512 404 509 367 q 515 478 515 441 l 515 554 q 511 641 515 597 q 496 728 507 686 q 464 805 485 771 q 409 859 443 838 q 323 879 374 879 l 299 879 m 1128 879 l 801 879 l 817 1042 l 1369 1042 l 1369 907 l 1020 163 l 1378 163 l 1345 0 l 769 0 l 769 129 l 1128 879 m 876 1412 l 1039 1086 l 1176 1086 l 1332 1412 l 1162 1412 l 1097 1215 l 1019 1412 l 876 1412 z "},"ǅ":{"ha":1428,"x_min":96,"x_max":1396,"o":"m 96 1042 l 309 1042 q 616 912 515 1042 q 718 517 718 782 q 709 387 718 451 q 682 266 701 323 q 634 159 663 208 q 564 75 605 111 q 468 20 522 40 q 345 0 414 0 l 96 0 l 96 1042 m 299 879 l 299 163 l 328 163 q 396 176 367 163 q 446 212 425 189 q 480 266 467 235 q 501 332 493 297 q 512 404 509 367 q 515 478 515 441 l 515 554 q 511 641 515 597 q 496 728 507 686 q 464 805 485 771 q 409 859 443 838 q 323 879 374 879 l 299 879 m 1396 159 l 1379 0 l 866 0 l 866 123 l 1134 627 l 886 627 l 903 781 l 1367 781 l 1367 666 l 1104 159 l 1396 159 m 1048 1169 l 1127 972 l 1192 1169 l 1362 1169 l 1206 844 l 1069 844 l 906 1169 l 1048 1169 z "},"ǆ":{"ha":1336,"x_min":53,"x_max":1304,"o":"m 492 -8 l 445 98 q 415 39 436 65 q 394 18 406 28 q 364 -1 381 7 q 326 -14 347 -9 q 277 -18 304 -18 q 182 6 224 -18 q 112 80 140 30 q 68 208 83 131 q 53 391 53 285 q 65 575 53 498 q 103 699 77 651 q 170 769 129 747 q 268 791 210 791 q 301 787 284 791 q 333 774 317 782 q 363 755 349 766 q 390 734 378 745 q 445 678 419 709 l 445 1017 l 640 1042 l 640 8 l 492 -8 m 445 586 q 415 617 431 604 q 385 638 401 629 q 350 648 368 648 q 294 628 314 648 q 263 573 273 608 q 251 491 253 538 q 248 391 248 444 q 251 288 248 336 q 263 202 253 239 q 294 143 273 165 q 350 121 314 121 q 385 131 368 121 q 415 162 401 140 q 437 225 429 185 q 445 326 445 264 l 445 586 m 1304 159 l 1288 0 l 774 0 l 774 123 l 1042 627 l 795 627 l 811 781 l 1276 781 l 1276 666 l 1013 159 l 1304 159 m 843 1172 l 1006 846 l 1143 846 l 1299 1172 l 1129 1172 l 1064 975 l 985 1172 l 843 1172 z "},"Ǉ":{"ha":1093,"x_min":96,"x_max":1002,"o":"m 299 1042 l 299 163 l 652 163 l 619 0 l 96 0 l 96 1025 l 299 1042 m 668 139 q 697 132 684 134 q 722 130 711 130 q 766 142 751 130 q 788 176 781 155 q 797 223 795 197 q 798 277 798 250 l 798 1025 l 1002 1042 l 1002 260 q 992 147 1002 198 q 958 59 982 96 q 896 1 935 22 q 798 -19 857 -19 q 668 1 743 -19 l 668 139 z "},"ǈ":{"ha":1051,"x_min":96,"x_max":938,"o":"m 299 1042 l 299 163 l 652 163 l 619 0 l 96 0 l 96 1025 l 299 1042 m 938 1085 l 938 890 l 743 889 l 743 1084 l 938 1085 m 635 -65 q 694 -60 673 -65 q 727 -42 716 -54 q 740 -11 737 -31 q 743 37 743 8 l 743 765 l 938 781 l 938 37 q 935 -62 938 -18 q 916 -135 932 -105 q 865 -180 900 -164 q 765 -195 830 -195 q 706 -192 738 -195 q 635 -182 673 -189 l 635 -65 z "},"ǉ":{"ha":755,"x_min":84,"x_max":643,"o":"m 84 1017 l 279 1042 l 279 8 l 84 -8 l 84 1017 m 643 1085 l 643 890 l 448 889 l 448 1084 l 643 1085 m 340 -65 q 399 -60 378 -65 q 432 -42 421 -54 q 445 -11 442 -31 q 448 37 448 8 l 448 765 l 643 781 l 643 37 q 640 -62 643 -18 q 621 -135 637 -105 q 570 -180 605 -164 q 470 -195 535 -195 q 411 -192 443 -195 q 340 -182 378 -189 l 340 -65 z "},"Ǌ":{"ha":1267,"x_min":96,"x_max":1177,"o":"m 277 643 l 277 8 l 96 0 l 96 1034 l 308 1042 l 576 422 l 576 1025 l 749 1042 l 749 8 l 582 -8 l 277 643 m 843 139 q 872 132 859 134 q 897 130 886 130 q 941 142 926 130 q 963 176 956 155 q 972 223 970 197 q 973 277 973 250 l 973 1025 l 1177 1042 l 1177 260 q 1167 147 1177 198 q 1133 59 1157 96 q 1070 1 1109 22 q 973 -19 1031 -19 q 843 1 918 -19 l 843 139 z "},"ǋ":{"ha":1227,"x_min":96,"x_max":1124,"o":"m 277 643 l 277 8 l 96 0 l 96 1034 l 308 1042 l 576 422 l 576 1025 l 749 1042 l 749 8 l 582 -8 l 277 643 m 1124 1085 l 1124 890 l 928 889 l 928 1084 l 1124 1085 m 821 -65 q 880 -60 859 -65 q 912 -42 902 -54 q 926 -11 923 -31 q 928 37 928 8 l 928 765 l 1124 781 l 1124 37 q 1121 -62 1124 -18 q 1102 -135 1118 -105 q 1051 -180 1086 -164 q 951 -195 1016 -195 q 891 -192 924 -195 q 821 -182 859 -189 l 821 -65 z "},"ǌ":{"ha":1145,"x_min":84,"x_max":1028,"o":"m 475 522 q 455 602 475 579 q 404 625 435 625 q 346 608 378 625 q 279 571 313 591 l 279 8 l 84 -8 l 84 765 l 279 781 l 279 682 q 395 762 338 732 q 503 791 453 791 q 570 778 540 791 q 623 738 601 764 q 657 676 645 713 q 670 594 670 640 l 670 8 l 475 -8 l 475 522 m 1028 1085 l 1028 890 l 833 889 l 833 1084 l 1028 1085 m 725 -65 q 785 -60 763 -65 q 817 -42 806 -54 q 830 -11 827 -31 q 833 37 833 8 l 833 765 l 1028 781 l 1028 37 q 1025 -62 1028 -18 q 1006 -135 1023 -105 q 955 -180 990 -164 q 855 -195 920 -195 q 796 -192 828 -195 q 725 -182 764 -189 l 725 -65 z "},"Ǔ":{"ha":789,"x_min":90,"x_max":699,"o":"m 90 1034 l 293 1042 l 293 327 q 295 264 293 296 q 308 208 297 233 q 342 167 319 183 q 407 151 365 151 q 468 168 446 151 q 499 210 489 184 q 511 267 509 235 q 513 329 513 298 l 513 1025 l 699 1042 l 699 367 q 698 297 699 337 q 688 213 696 256 q 661 128 680 170 q 606 52 642 85 q 515 -1 570 19 q 379 -22 460 -22 q 249 8 304 -22 q 159 87 195 37 q 106 203 123 137 q 90 343 90 270 l 90 1034 m 309 1432 l 388 1236 l 453 1432 l 623 1432 l 467 1107 l 330 1107 l 167 1432 l 309 1432 z "},"ǔ":{"ha":749,"x_min":79,"x_max":665,"o":"m 274 258 q 292 178 274 201 q 338 155 309 155 q 367 160 352 155 q 399 174 382 165 q 434 193 416 182 q 469 216 452 204 l 469 765 l 665 781 l 665 8 l 469 -8 l 469 92 q 357 11 412 41 q 252 -18 301 -18 q 182 -4 214 -18 q 127 35 151 9 q 92 97 104 60 q 79 179 79 134 l 79 765 l 274 781 l 274 258 m 288 1172 l 367 975 l 432 1172 l 602 1172 l 446 846 l 309 846 l 146 1172 l 288 1172 z "},"Ǣ":{"ha":1072,"x_min":-5,"x_max":1038,"o":"m 522 0 l 532 223 l 305 223 l 217 0 l -5 0 l 444 1029 l 582 1042 l 1027 1042 l 1010 879 l 749 879 l 749 631 l 920 631 l 920 456 l 749 456 l 749 163 l 1038 163 l 1021 0 l 522 0 m 533 390 l 548 888 l 372 390 l 533 390 m 545 1239 l 936 1239 l 936 1109 l 545 1109 l 545 1239 z "},"ǣ":{"ha":987,"x_min":37,"x_max":954,"o":"m 576 363 q 581 285 576 327 q 596 208 585 243 q 626 149 608 172 q 671 125 644 125 q 713 144 694 125 q 746 185 732 162 q 769 229 760 208 q 779 253 777 249 l 927 197 q 891 110 913 149 q 837 42 869 71 q 763 -2 805 14 q 667 -18 721 -18 q 563 12 608 -18 q 484 98 517 43 q 439 41 466 64 q 381 6 412 19 q 315 -13 349 -7 q 248 -18 281 -18 q 161 0 200 -18 q 95 50 122 18 q 52 126 67 82 q 37 222 37 170 q 53 319 37 277 q 95 391 68 361 q 157 441 122 421 q 231 474 193 462 q 308 493 269 487 q 380 502 347 500 q 380 555 380 529 q 374 602 379 581 q 357 635 368 623 q 324 648 345 648 q 294 641 307 648 q 273 620 281 633 q 260 592 264 608 q 254 560 256 576 l 64 593 q 97 690 71 652 q 159 751 123 728 q 238 782 195 773 q 324 791 281 791 q 421 767 380 791 q 490 700 462 743 q 572 767 527 743 q 674 791 618 791 q 796 762 744 791 q 884 679 848 732 q 937 551 919 625 q 954 387 954 476 l 951 377 q 949 369 950 373 q 949 363 949 366 l 576 363 m 228 224 q 247 150 228 178 q 305 121 265 121 q 335 134 321 121 q 359 166 349 146 q 375 211 370 186 q 380 259 380 235 l 380 385 q 320 377 348 385 q 272 350 292 369 q 239 300 251 331 q 228 224 228 269 m 762 476 q 757 548 762 515 q 741 605 752 581 q 713 643 730 629 q 671 657 696 657 q 636 644 653 657 q 607 608 620 631 q 585 553 593 585 q 576 484 576 521 l 576 476 l 762 476 m 283 977 l 673 977 l 673 846 l 283 846 l 283 977 z "},"Ǳ":{"ha":1441,"x_min":96,"x_max":1401,"o":"m 96 1042 l 309 1042 q 616 912 515 1042 q 718 517 718 782 q 709 387 718 451 q 682 266 701 323 q 634 159 663 208 q 564 75 605 111 q 468 20 522 40 q 345 0 414 0 l 96 0 l 96 1042 m 299 879 l 299 163 l 328 163 q 396 176 367 163 q 446 212 425 189 q 480 266 467 235 q 501 332 493 297 q 512 404 509 367 q 515 478 515 441 l 515 554 q 511 641 515 597 q 496 728 507 686 q 464 805 485 771 q 409 859 443 838 q 323 879 374 879 l 299 879 m 1152 879 l 824 879 l 840 1042 l 1392 1042 l 1392 907 l 1043 163 l 1401 163 l 1369 0 l 792 0 l 792 129 l 1152 879 z "},"ǲ":{"ha":1365,"x_min":96,"x_max":1333,"o":"m 96 1042 l 309 1042 q 616 912 515 1042 q 718 517 718 782 q 709 387 718 451 q 682 266 701 323 q 634 159 663 208 q 564 75 605 111 q 468 20 522 40 q 345 0 414 0 l 96 0 l 96 1042 m 299 879 l 299 163 l 328 163 q 396 176 367 163 q 446 212 425 189 q 480 266 467 235 q 501 332 493 297 q 512 404 509 367 q 515 478 515 441 l 515 554 q 511 641 515 597 q 496 728 507 686 q 464 805 485 771 q 409 859 443 838 q 323 879 374 879 l 299 879 m 1333 159 l 1317 0 l 804 0 l 804 123 l 1072 627 l 824 627 l 840 781 l 1305 781 l 1305 666 l 1042 159 l 1333 159 z "},"ǳ":{"ha":1321,"x_min":53,"x_max":1289,"o":"m 492 -8 l 445 98 q 415 39 436 65 q 394 18 406 28 q 364 -1 381 7 q 326 -14 347 -9 q 277 -18 304 -18 q 182 6 224 -18 q 112 80 140 30 q 68 208 83 131 q 53 391 53 285 q 65 575 53 498 q 103 699 77 651 q 170 769 129 747 q 268 791 210 791 q 301 787 284 791 q 333 774 317 782 q 363 755 349 766 q 390 734 378 745 q 445 678 419 709 l 445 1017 l 640 1042 l 640 8 l 492 -8 m 445 586 q 415 617 431 604 q 385 638 401 629 q 350 648 368 648 q 294 628 314 648 q 263 573 273 608 q 251 491 253 538 q 248 391 248 444 q 251 288 248 336 q 263 202 253 239 q 294 143 273 165 q 350 121 314 121 q 385 131 368 121 q 415 162 401 140 q 437 225 429 185 q 445 326 445 264 l 445 586 m 1289 159 l 1273 0 l 760 0 l 760 123 l 1027 627 l 780 627 l 796 781 l 1261 781 l 1261 666 l 998 159 l 1289 159 z "},"Ǽ":{"ha":1072,"x_min":-5,"x_max":1038,"o":"m 522 0 l 532 223 l 305 223 l 217 0 l -5 0 l 444 1029 l 582 1042 l 1027 1042 l 1010 879 l 749 879 l 749 631 l 920 631 l 920 456 l 749 456 l 749 163 l 1038 163 l 1021 0 l 522 0 m 533 390 l 548 888 l 372 390 l 533 390 m 638 1173 l 840 1476 l 994 1339 l 715 1105 l 638 1173 z "},"ǽ":{"ha":987,"x_min":37,"x_max":954,"o":"m 576 363 q 581 285 576 327 q 596 208 585 243 q 626 149 608 172 q 671 125 644 125 q 713 144 694 125 q 746 185 732 162 q 769 229 760 208 q 779 253 777 249 l 927 197 q 891 110 913 149 q 837 42 869 71 q 763 -2 805 14 q 667 -18 721 -18 q 563 12 608 -18 q 484 98 517 43 q 439 41 466 64 q 381 6 412 19 q 315 -13 349 -7 q 248 -18 281 -18 q 161 0 200 -18 q 95 50 122 18 q 52 126 67 82 q 37 222 37 170 q 53 319 37 277 q 95 391 68 361 q 157 441 122 421 q 231 474 193 462 q 308 493 269 487 q 380 502 347 500 q 380 555 380 529 q 374 602 379 581 q 357 635 368 623 q 324 648 345 648 q 294 641 307 648 q 273 620 281 633 q 260 592 264 608 q 254 560 256 576 l 64 593 q 97 690 71 652 q 159 751 123 728 q 238 782 195 773 q 324 791 281 791 q 421 767 380 791 q 490 700 462 743 q 572 767 527 743 q 674 791 618 791 q 796 762 744 791 q 884 679 848 732 q 937 551 919 625 q 954 387 954 476 l 951 377 q 949 369 950 373 q 949 363 949 366 l 576 363 m 228 224 q 247 150 228 178 q 305 121 265 121 q 335 134 321 121 q 359 166 349 146 q 375 211 370 186 q 380 259 380 235 l 380 385 q 320 377 348 385 q 272 350 292 369 q 239 300 251 331 q 228 224 228 269 m 762 476 q 757 548 762 515 q 741 605 752 581 q 713 643 730 629 q 671 657 696 657 q 636 644 653 657 q 607 608 620 631 q 585 553 593 585 q 576 484 576 521 l 576 476 l 762 476 m 284 913 l 486 1216 l 640 1079 l 361 844 l 284 913 z "},"Ǿ":{"ha":766,"x_min":20,"x_max":766,"o":"m 381 -22 q 297 -11 335 -22 q 229 20 260 0 q 175 68 199 39 q 133 131 151 96 l 84 72 l 20 134 l 96 227 q 67 384 75 300 q 59 556 59 467 q 78 764 59 671 q 136 924 96 858 q 236 1027 175 991 q 381 1063 296 1063 q 541 1019 475 1063 q 645 893 606 974 l 702 962 l 766 900 l 680 794 q 705 556 705 689 q 700 412 705 483 q 681 276 694 340 q 643 158 667 212 q 584 63 620 103 q 498 1 548 23 q 381 -22 448 -22 m 262 556 l 262 490 q 263 430 262 459 l 494 711 q 482 782 490 748 q 461 843 474 817 q 428 885 448 869 q 381 901 408 901 q 334 885 353 901 q 301 841 314 868 q 280 777 288 813 q 268 703 272 741 q 263 627 264 665 q 262 556 262 589 m 381 151 q 446 179 422 151 q 483 260 470 208 q 498 388 495 313 q 502 556 502 463 l 502 578 l 273 301 q 308 190 283 229 q 381 151 333 151 m 378 1173 l 579 1476 l 733 1339 l 454 1105 l 378 1173 z "},"ǿ":{"ha":682,"x_min":37,"x_max":667,"o":"m 340 -18 q 234 1 281 -18 q 151 58 187 21 l 90 -21 l 37 25 l 109 115 q 63 238 78 168 q 47 391 47 308 q 66 552 47 479 q 121 679 84 626 q 212 762 157 732 q 340 791 267 791 q 465 763 411 791 q 555 683 518 734 l 614 758 l 667 711 l 592 617 q 633 391 633 522 q 614 225 633 300 q 558 96 595 150 q 467 12 522 42 q 340 -18 412 -18 m 243 391 q 243 342 243 369 q 245 289 243 316 l 431 524 q 420 573 427 550 q 403 615 414 597 q 377 643 393 633 q 340 654 361 654 q 299 641 315 654 q 271 607 282 628 q 255 558 260 585 q 246 501 249 530 q 243 444 243 472 q 243 391 243 415 m 339 127 q 380 140 363 127 q 408 174 397 153 q 425 223 418 195 q 433 280 431 250 q 437 338 436 309 q 437 391 437 367 l 437 420 l 261 197 q 290 146 271 166 q 339 127 309 127 m 256 913 l 458 1216 l 612 1079 l 333 844 l 256 913 z "},"Ȁ":{"ha":766,"x_min":-1,"x_max":751,"o":"m 243 223 l 198 0 l 17 0 l 237 1029 l 526 1042 l 751 8 l 530 0 l 491 223 l 243 223 m 454 390 l 359 888 l 280 390 l 454 390 m 516 1080 l 317 1390 l 500 1485 l 609 1127 l 516 1080 m 260 1078 l -1 1339 l 158 1470 l 340 1145 l 260 1078 z "},"ȁ":{"ha":656,"x_min":-65,"x_max":598,"o":"m 38 222 q 54 319 38 277 q 97 391 70 361 q 159 441 123 421 q 232 474 194 462 q 309 493 271 487 q 382 502 348 500 q 381 555 382 529 q 375 602 380 581 q 358 635 370 623 q 326 648 347 648 q 295 641 308 648 q 274 620 283 633 q 261 592 266 608 q 255 560 257 576 l 65 593 q 98 690 73 652 q 160 751 124 728 q 240 782 197 773 q 326 791 283 791 q 439 773 392 791 q 517 722 487 754 q 563 645 548 689 q 577 551 577 602 l 577 147 q 580 100 577 124 q 587 55 583 75 q 598 8 592 31 l 408 -8 l 387 87 q 356 47 375 66 q 315 14 338 28 q 266 -9 292 -1 q 215 -18 240 -18 q 142 0 175 -18 q 86 50 110 18 q 51 126 63 82 q 38 222 38 170 m 229 224 q 248 150 229 178 q 307 121 267 121 q 333 129 320 121 q 357 144 347 136 q 382 168 370 155 l 382 385 q 321 377 349 385 q 273 350 294 369 q 241 300 252 331 q 229 224 229 269 m 452 821 l 253 1131 l 436 1225 l 545 868 l 452 821 m 195 819 l -65 1080 l 94 1211 l 276 886 l 195 819 z "},"Ȃ":{"ha":767,"x_min":17,"x_max":751,"o":"m 243 223 l 198 0 l 17 0 l 237 1029 l 526 1042 l 751 8 l 530 0 l 491 223 l 243 223 m 454 390 l 359 888 l 280 390 l 454 390 m 92 1107 q 97 1174 92 1138 q 117 1246 103 1210 q 153 1316 130 1282 q 208 1375 175 1350 q 284 1417 240 1401 q 385 1432 328 1432 q 485 1417 441 1432 q 562 1375 529 1401 q 616 1316 594 1350 q 652 1246 639 1282 q 672 1174 666 1210 q 677 1107 677 1137 l 515 1107 q 513 1160 515 1131 q 498 1213 511 1188 q 460 1253 486 1237 q 385 1270 433 1270 q 309 1253 336 1270 q 271 1213 283 1237 q 256 1160 258 1188 q 254 1107 254 1131 l 92 1107 z "},"ȃ":{"ha":656,"x_min":36,"x_max":622,"o":"m 38 222 q 54 319 38 277 q 97 391 70 361 q 159 441 123 421 q 232 474 194 462 q 309 493 271 487 q 382 502 348 500 q 381 555 382 529 q 375 602 380 581 q 358 635 370 623 q 326 648 347 648 q 295 641 308 648 q 274 620 283 633 q 261 592 266 608 q 255 560 257 576 l 65 593 q 98 690 73 652 q 160 751 124 728 q 240 782 197 773 q 326 791 283 791 q 439 773 392 791 q 517 722 487 754 q 563 645 548 689 q 577 551 577 602 l 577 147 q 580 100 577 124 q 587 55 583 75 q 598 8 592 31 l 408 -8 l 387 87 q 356 47 375 66 q 315 14 338 28 q 266 -9 292 -1 q 215 -18 240 -18 q 142 0 175 -18 q 86 50 110 18 q 51 126 63 82 q 38 222 38 170 m 229 224 q 248 150 229 178 q 307 121 267 121 q 333 129 320 121 q 357 144 347 136 q 382 168 370 155 l 382 385 q 321 377 349 385 q 273 350 294 369 q 241 300 252 331 q 229 224 229 269 m 36 846 q 42 913 36 878 q 61 986 47 949 q 97 1056 75 1022 q 152 1115 119 1089 q 228 1156 184 1141 q 329 1172 272 1172 q 430 1156 386 1172 q 506 1115 473 1141 q 561 1056 538 1089 q 597 986 583 1022 q 616 913 610 949 q 622 846 622 877 l 459 846 q 457 899 459 871 q 443 952 455 928 q 404 993 431 977 q 329 1009 378 1009 q 254 993 280 1009 q 215 952 227 977 q 201 899 203 928 q 199 846 199 871 l 36 846 z "},"Ȅ":{"ha":670,"x_min":27,"x_max":637,"o":"m 96 1042 l 625 1042 l 609 879 l 300 879 l 300 631 l 519 631 l 518 456 l 300 456 l 300 163 l 636 163 l 620 0 l 96 0 l 96 1042 m 544 1091 l 345 1402 l 528 1496 l 637 1139 l 544 1091 m 288 1090 l 27 1350 l 186 1482 l 368 1156 l 288 1090 z "},"ȅ":{"ha":654,"x_min":-48,"x_max":621,"o":"m 242 363 q 247 285 242 327 q 263 208 252 243 q 292 149 274 172 q 337 125 311 125 q 379 144 360 125 q 412 185 398 162 q 435 229 427 208 q 446 253 444 249 l 593 197 q 557 110 580 149 q 503 42 535 71 q 429 -2 471 14 q 334 -18 387 -18 q 209 12 262 -18 q 119 95 155 41 q 65 223 83 149 q 47 387 47 298 q 66 551 47 476 q 121 679 84 625 q 212 762 157 732 q 340 791 267 791 q 463 762 410 791 q 550 679 515 732 q 603 551 585 625 q 621 387 621 476 l 618 377 q 616 369 616 373 q 615 363 615 366 l 242 363 m 429 476 q 424 548 429 515 q 408 605 418 581 q 379 643 397 629 q 337 657 362 657 q 302 643 319 657 q 272 605 285 629 q 250 548 258 581 q 242 476 242 515 l 429 476 m 469 848 l 270 1158 l 453 1253 l 562 895 l 469 848 m 212 846 l -48 1107 l 111 1238 l 293 913 l 212 846 z "},"Ȇ":{"ha":670,"x_min":58,"x_max":644,"o":"m 96 1042 l 625 1042 l 609 879 l 300 879 l 300 631 l 519 631 l 518 456 l 300 456 l 300 163 l 636 163 l 620 0 l 96 0 l 96 1042 m 58 1107 q 63 1174 58 1138 q 83 1246 69 1210 q 119 1316 96 1282 q 174 1375 141 1350 q 250 1417 206 1401 q 351 1432 294 1432 q 451 1417 408 1432 q 528 1375 495 1401 q 583 1316 560 1350 q 618 1246 605 1282 q 638 1174 632 1210 q 644 1107 644 1137 l 481 1107 q 479 1160 481 1131 q 465 1213 477 1188 q 426 1253 452 1237 q 351 1270 399 1270 q 275 1253 302 1270 q 237 1213 249 1237 q 222 1160 224 1188 q 220 1107 220 1131 l 58 1107 z "},"ȇ":{"ha":654,"x_min":35,"x_max":621,"o":"m 242 363 q 247 285 242 327 q 263 208 252 243 q 292 149 274 172 q 337 125 311 125 q 379 144 360 125 q 412 185 398 162 q 435 229 427 208 q 446 253 444 249 l 593 197 q 557 110 580 149 q 503 42 535 71 q 429 -2 471 14 q 334 -18 387 -18 q 209 12 262 -18 q 119 95 155 41 q 65 223 83 149 q 47 387 47 298 q 66 551 47 476 q 121 679 84 625 q 212 762 157 732 q 340 791 267 791 q 463 762 410 791 q 550 679 515 732 q 603 551 585 625 q 621 387 621 476 l 618 377 q 616 369 616 373 q 615 363 615 366 l 242 363 m 429 476 q 424 548 429 515 q 408 605 418 581 q 379 643 397 629 q 337 657 362 657 q 302 643 319 657 q 272 605 285 629 q 250 548 258 581 q 242 476 242 515 l 429 476 m 35 846 q 40 913 35 878 q 60 986 46 949 q 96 1056 73 1022 q 151 1115 118 1089 q 227 1156 183 1141 q 328 1172 271 1172 q 428 1156 385 1172 q 505 1115 472 1141 q 559 1056 537 1089 q 595 986 582 1022 q 615 913 609 949 q 621 846 621 877 l 458 846 q 456 899 458 871 q 441 952 454 928 q 403 993 429 977 q 328 1009 376 1009 q 252 993 279 1009 q 214 952 226 977 q 199 899 201 928 q 197 846 197 871 l 35 846 z "},"Ȉ":{"ha":395,"x_min":-168,"x_max":442,"o":"m 96 1025 l 300 1042 l 300 8 l 96 -8 l 96 1025 m 349 1108 l 151 1419 l 334 1513 l 442 1156 l 349 1108 m 93 1107 l -168 1367 l -9 1499 l 174 1173 l 93 1107 z "},"ȉ":{"ha":363,"x_min":-198,"x_max":412,"o":"m 84 765 l 279 781 l 279 8 l 84 -8 l 84 765 m 319 848 l 120 1158 l 303 1253 l 412 895 l 319 848 m 62 846 l -198 1107 l -39 1238 l 143 913 l 62 846 z "},"Ȋ":{"ha":395,"x_min":-96,"x_max":490,"o":"m 96 1025 l 300 1042 l 300 8 l 96 -8 l 96 1025 m -96 1107 q -90 1174 -96 1138 q -71 1246 -84 1210 q -35 1316 -57 1282 q 20 1375 -12 1350 q 97 1417 53 1401 q 197 1432 140 1432 q 298 1417 254 1432 q 374 1375 342 1401 q 429 1316 407 1350 q 465 1246 452 1282 q 485 1174 479 1210 q 490 1107 490 1137 l 328 1107 q 326 1160 328 1131 q 311 1213 323 1188 q 273 1253 299 1237 q 197 1270 246 1270 q 122 1253 149 1270 q 83 1213 96 1237 q 69 1160 71 1188 q 67 1107 67 1131 l -96 1107 z "},"ȋ":{"ha":363,"x_min":-114,"x_max":472,"o":"m 84 765 l 279 781 l 279 8 l 84 -8 l 84 765 m -114 846 q -108 913 -114 878 q -89 986 -102 949 q -53 1056 -75 1022 q 2 1115 -31 1089 q 78 1156 35 1141 q 179 1172 122 1172 q 280 1156 236 1172 q 356 1115 323 1141 q 411 1056 389 1089 q 447 986 433 1022 q 466 913 460 949 q 472 846 472 877 l 309 846 q 307 899 309 871 q 293 952 305 928 q 254 993 281 977 q 179 1009 228 1009 q 104 993 130 1009 q 65 952 77 977 q 51 899 53 928 q 49 846 49 871 l -114 846 z "},"Ȍ":{"ha":763,"x_min":14,"x_max":705,"o":"m 380 -22 q 264 1 314 -22 q 178 63 214 23 q 119 158 142 103 q 83 276 96 212 q 64 412 69 340 q 58 556 58 483 q 77 760 58 666 q 135 920 96 853 q 235 1022 174 986 q 380 1059 296 1059 q 527 1022 465 1059 q 628 920 588 986 q 686 760 667 853 q 705 556 705 666 q 699 412 705 483 q 680 276 694 340 q 643 158 666 212 q 583 63 619 103 q 497 1 547 23 q 380 -22 447 -22 m 380 151 q 445 179 421 151 q 482 260 469 208 q 498 388 494 313 q 501 556 501 463 q 500 624 501 589 q 495 698 499 660 q 483 772 491 736 q 462 836 475 808 q 428 880 448 863 q 380 897 408 897 q 333 880 353 897 q 300 836 313 863 q 279 772 287 808 q 267 698 271 736 q 262 624 263 660 q 261 556 261 589 q 264 388 261 463 q 280 260 268 313 q 316 179 292 208 q 380 151 340 151 m 530 1108 l 332 1419 l 515 1513 l 623 1156 l 530 1108 m 274 1107 l 14 1367 l 172 1499 l 355 1173 l 274 1107 z "},"ȍ":{"ha":680,"x_min":-50,"x_max":633,"o":"m 340 -18 q 212 12 267 -18 q 121 96 157 42 q 66 225 84 150 q 47 391 47 300 q 66 552 47 479 q 121 679 84 626 q 212 762 157 732 q 340 791 267 791 q 467 762 412 791 q 558 679 522 732 q 614 552 595 626 q 633 391 633 479 q 614 225 633 300 q 558 96 595 150 q 467 12 522 42 q 340 -18 412 -18 m 339 127 q 380 140 363 127 q 408 174 397 153 q 425 223 418 195 q 433 280 431 250 q 437 338 436 309 q 437 391 437 367 q 437 444 437 415 q 433 501 436 472 q 425 558 431 530 q 408 607 418 585 q 380 641 397 628 q 340 654 363 654 q 299 641 315 654 q 271 607 282 628 q 255 558 260 585 q 246 501 249 530 q 243 444 243 472 q 243 391 243 415 q 243 338 243 367 q 246 280 243 309 q 255 223 249 250 q 271 174 260 195 q 298 140 281 153 q 339 127 315 127 m 467 848 l 269 1158 l 452 1253 l 560 895 l 467 848 m 211 846 l -50 1107 l 109 1238 l 292 913 l 211 846 z "}}}
